/* XPM */
static char *b5e6cf06e1f347e0c21cf5a2725fed68NCz93CnwsTC8EceV[] = {
/* columns rows colors chars-per-pixel */
"65 65 252 2 ",
"   c #2B1B08",
".  c #381903",
"X  c #30120F",
"o  c #372501",
"O  c #431C07",
"+  c #4D1B11",
"@  c #432601",
"#  c #5C3D03",
"$  c #553703",
"%  c #4E320A",
"&  c #633B01",
"*  c #503E34",
"=  c #5C4301",
"-  c #594705",
";  c #634302",
":  c #634B02",
">  c #6A4C03",
",  c #694706",
"<  c #774C06",
"1  c #6D5403",
"2  c #6B5606",
"3  c #755301",
"4  c #7A5401",
"5  c #765A03",
"6  c #72520B",
"7  c #795A06",
"8  c #685317",
"9  c #755014",
"0  c #7A6402",
"q  c #6D6404",
"w  c #755D34",
"e  c #7F6322",
"r  c #55663C",
"t  c #5B5C5A",
"y  c #685C49",
"u  c #665E5A",
"i  c #59664B",
"p  c #5D6455",
"a  c #5D645D",
"s  c #59695A",
"d  c #656949",
"f  c #74684C",
"g  c #646555",
"h  c #626B53",
"j  c #64645C",
"k  c #6A635C",
"l  c #64695B",
"z  c #6C6A5C",
"x  c #6A6955",
"c  c #756959",
"v  c #6F764D",
"b  c #5C5C67",
"n  c #5A5C72",
"m  c #645D64",
"M  c #6C5E64",
"N  c #635D6B",
"B  c #6C5E6C",
"V  c #645666",
"C  c #745B69",
"Z  c #635E72",
"A  c #695C77",
"S  c #755E74",
"D  c #6E4F78",
"F  c #5D6363",
"G  c #5D6A63",
"H  c #5A676A",
"J  c #5D6574",
"K  c #5C7168",
"L  c #656565",
"P  c #6A6463",
"I  c #646964",
"U  c #6A6A64",
"Y  c #65646A",
"T  c #6B646B",
"R  c #646A6B",
"E  c #6A696B",
"W  c #756768",
"Q  c #687169",
"!  c #646472",
"~  c #6A6472",
"^  c #6B6B73",
"/  c #6B647B",
"(  c #656A77",
")  c #746676",
"_  c #6F7271",
"`  c #865604",
"'  c #896803",
"]  c #966B07",
"[  c #977B03",
"{  c #897110",
"}  c #A47A05",
"|  c #A37417",
" . c #877B26",
".. c #89775B",
"X. c #88726A",
"o. c #988603",
"O. c #AC8704",
"+. c #B58909",
"@. c #B89905",
"#. c #B79214",
"$. c #AE920C",
"%. c #B8A515",
"&. c #BCAF29",
"*. c #A79030",
"=. c #C79B06",
"-. c #D49B04",
";. c #CB9614",
":. c #EA9E04",
">. c #CCA301",
",. c #CEA30A",
"<. c #C9A704",
"1. c #D3A402",
"2. c #DBA201",
"3. c #D3AB02",
"4. c #DCAC02",
"5. c #D2A50A",
"6. c #D9AA0B",
"7. c #DBB203",
"8. c #DCB20C",
"9. c #D6B703",
"0. c #D7A812",
"q. c #D9B715",
"w. c #CBAE0C",
"e. c #E4A905",
"r. c #E3B402",
"t. c #EBB402",
"y. c #E5BA01",
"u. c #EDBD02",
"i. c #EDBB0B",
"p. c #E7B70B",
"a. c #F2BC02",
"s. c #FABD02",
"d. c #F9BA08",
"f. c #E4AA16",
"g. c #E6B816",
"h. c #FABC13",
"j. c #F3A100",
"k. c #D1B42C",
"l. c #E2BC27",
"z. c #F5B225",
"x. c #DCC50A",
"c. c #E4C300",
"v. c #ECC401",
"b. c #EDCB01",
"n. c #E9C709",
"m. c #F4C402",
"M. c #FBC402",
"N. c #F4CA02",
"B. c #FACB03",
"V. c #F3C40C",
"C. c #FBC50A",
"Z. c #F5CB0C",
"A. c #FCCC0B",
"S. c #E6D603",
"D. c #F4D203",
"F. c #FDD202",
"G. c #FDD20B",
"H. c #F6D709",
"J. c #EAC718",
"K. c #F8C917",
"L. c #F5D413",
"P. c #FDD314",
"I. c #FEDB14",
"U. c #FCD41B",
"Y. c #FEDB1C",
"T. c #F5D918",
"R. c #FEE41C",
"E. c #FFE114",
"W. c #FFE200",
"Q. c #DAC92B",
"!. c #D4C337",
"~. c #EAC823",
"^. c #F9C825",
"/. c #E9D628",
"(. c #F6D524",
"). c #FCD523",
"_. c #FDDB23",
"`. c #FDD52B",
"'. c #FDDB2C",
"]. c #F5D92A",
"[. c #E5CC37",
"{. c #F7CC38",
"}. c #FDDD34",
"|. c #FDDD3A",
" X c #F7D836",
".X c #EED836",
"XX c #FFE423",
"oX c #FEE42C",
"OX c #F9E529",
"+X c #FDE333",
"@X c #FDEA35",
"#X c #FDE33B",
"$X c #FCEA3C",
"%X c #F6E638",
"&X c #F2F032",
"*X c #988752",
"=X c #A89354",
"-X c #949370",
";X c #AC9975",
":X c #BCAA5B",
">X c #CCA95C",
",X c #D3C450",
"<X c #FDDE43",
"1X c #FADC47",
"2X c #F7DB57",
"3X c #EBD14C",
"4X c #FDE443",
"5X c #FEEA44",
"6X c #FDE44B",
"7X c #F6EA4D",
"8X c #FDEB4C",
"9X c #F3E747",
"0X c #FDF24A",
"qX c #F8F749",
"wX c #FDE554",
"eX c #FEEB54",
"rX c #FDE45A",
"tX c #FDEC5B",
"yX c #F4E956",
"uX c #FEF25D",
"iX c #FFF354",
"pX c #ECE84A",
"aX c #FFD660",
"sX c #FEEC63",
"dX c #FDED6B",
"fX c #F9E867",
"gX c #FEF164",
"hX c #FDF16B",
"jX c #FBF669",
"kX c #FCEC73",
"lX c #FEEE7D",
"zX c #F8EB75",
"xX c #FDF274",
"cX c #FEF47C",
"vX c #FEFA7B",
"bX c #F9F678",
"nX c #EDE86C",
"mX c #5D6382",
"MX c #686581",
"NX c #FAE986",
"BX c #FEF582",
"VX c #FFFA83",
"CX c #FBF78A",
"ZX c #FEE999",
"AX c #FEF793",
"SX c #F6F7A5",
"DX c #FBF9B7",
"FX c #FFEDAF",
"GX c #FBF8C6",
"HX c #FDF9D6",
"JX c #FAFAEB",
"KX c #FBFCF7",
/* pixels */
"L L L L L L L L L L L L L Y I I L j Y Y L j N P k N ~ L L b E L T L L L I L Y L L L L L L L L L L L L L L L L L L L L L L L L L L ",
"L L L L L L L L L L L L L L L L k Y I I L L L Y G I L L P L ! p s I L I L L E j L L L L L L L L L L L L L L L L L L L L L L L L L ",
"L L L L L E L L L L L L L L L L L Y L j Y Y I L L ! L s g j ~ T T L m L j b P P L L L L L L L L L L L L E L L L L L L L L L Y L L ",
"L L L L L L L L L L L L L P L Y Y P l L L Y Y j k b E Y I Y x V j _ L b _ R a R L L Y L E L L L L L L L L L L L L L L L E L L L L ",
"L L L L L L L L L L L L L L L L Y L L Y I L L L U d Y Y m m R K Y n ~ P k Y L I L L L L L L L L L L L L L L L L L L L L I L L L L ",
"L L L L L L L L L L L L L L L L k Y Y Y I j j ! s Z l A h _ i ( P h z U I m m S L L L L L L L L L L L L L L L L L L L L L L L L L ",
"L L L L L L L L L L L L L L L L I ! Y Y L j j Y P ~ k / T y MXV j I U R a L E p L I L L L L L L L L L L L L L L L L L L L L L Y L ",
"L L L L L L L L L L Y L L L L L Z L L I L ~ T l k A qX0XfXxXsXCXVXZX>Xl.k...Y G j L L T L L L L L L L L L L L L L L L L L L L L L ",
"L L L L L L L L L L L L L U L j B Z Y d n p u :XyX9X%X0X0X9XuXeXwXtXDXGX2Xv.y.d.J.-Xs P S Y a L L z F j B L l I L L L L L L L L L ",
"L I E L L L L L L L L L L L L L v J g ( ) *X$X%X$XiX0X8XrXeX8XeXtXyX0XfXDXGXg.K.s.t.h.>XN h l ! T b Y E J P L L L L L L L L L L L ",
"L L L L L L L L L L L L L L L P J i T D S.$X6X4X6X5X6XwX0X5XeX6X7XsXyXqXeXkXKX2XA.b.i.d.S.b ) l m W Y L l Y E u L L L L L L L L L ",
"L L L L L Y L L L L L L L P L L F S c |.9X$X.X5X6X4X@X+X4X8X5X8X5X8X8XdXqXtXkXJXNXD.V.u.N.t.L h I F U ~ i p J T L L L L L L L L L ",
"Y L L L L L L L L L L L L L L L J c J.+X1XOX%X+XoX#X#X4X5X%XeXwXrX4XtX9XsXyX&XdXJXZXB.h.M.N.B.f s Z Q j W F H P L L L L L L L L L ",
"L L L L L L L L L L L L L L T T I &.6X|.R.@X%X+X%X&.5 { { [ o.%.yXiX1X0X0XeXeXiXfXKX].C.h.D.r.^...R p MXu ( I j L E Y L L L L L L ",
"L L L L L L L L L L L L L L L L :X%X&XU.@X<X1X#.{ 2 ,XzXAXBXbXbX!.0 yXrXwX9X8X9X6XNXJXD.D.K.b.M.i.s X.u G M I L L L L L L L L L L ",
"L L L L L L L L L L L L L T L m _.XX.X].`.).< : zXVXNXCXjXjXcXNXVXzXfX[ sXeX5XtXqX9XHXJXM.A.b.M.M.b.H F B G I T L L L L L L L L L ",
"L L L L L L L L Y k H P ( m I ]. X(.#X+X.X3 1 BXcXbXvXNXCXVXVXbXAXCXVXlX[ rXwX4XuXiX6XKXkX).A.m.L.d.:XW x a L T L L P L L L L L L ",
"L L L L L L L L / z L k I u W T._.'.H..X3 w xXjXBXbXkXvXbXbXcXVXbXzXVXBXkXo.eX9XeXpX8XiXKX`.~.).V.S.M.u / g I P L L L L L L L L L ",
"L L L L L L L L R j j k j P (.I._._.'.4 > NXkXBXxXvXkX3X3X,Xk.&.VXVXzXvXcXbX$.7XwX&X2X$XJXNX}.K.^.N.J.J.a E V R Y P L L L L L L L ",
"L L L L L L L L G E T Y J C P.`.).'.] ; gX$XiXyXxXgX#.# $ &.q.!.zXBXVXbXcXxXjX3X6XyXwX8X6XJX{.{.^.].h.J.L W a Y L L L L L L L L L ",
"L L L L L L L L h T Z L Q J.L._.K.6.{ |.8XtX9XuXeXfXw.<.w.$X#X5XBXcXbXBXbXBXcX2X6X8X7X#XnXGXkX^.|.J.U.A.Q.n c s L L L L L L L L L ",
"L L L L L L L L j L x z H H.}.U.Y.] ` #X].OX4X6XeXxX^.7.8.@X4X5XxXzXcXcXBXVXcXcX%.4X#X6XqXAXDX1X{.{.K.J.^.B B a I Y Y L L L L L L ",
"L L L L L L L L ~ A H L *XU._.H.8.] oXoXoXoX#X+X%XsXg.p.,.$X#X@XvXhXvXfXcXVXxXbXhX@X9XwX9XwXFX2X{.J.^.J.i.*XP F L L L L L L L L L ",
"E Y L L L L L L m B K I [.U.G._.+.` _.T.E.}._.#X$XsXt.r.9.OX5X&XjXjXjXxXkXdXbXvXlXQ.wX4X@X|.DX3X^.)./.z.~.x.J L L I L L L L L L L ",
"L L L I L L Y L b U d L |.(.P.L.#.J.`.I.P.}._.].XXlXy.6.3.#X$X@XsXsXdXhXxXxXxXxXBX5X1X6X%X4XfXCX{.3XJ.V.V.t.L B Y L a l L L Y L L ",
"L L L L L L L L l T t ) T.I.P.6.` U.Y._._.).R.}.OXlXy.7.3.#X$X@XtXsXgXgXhXhXdXhXxXuX1X5X4X|.wXAXl.l.p.r.8.8.f j T L L L L L L L L ",
"L L L L L L L L j ~ U ;XI._.U.<.] I.P.).).U.I.'.'.kXr.7.3.$X@X@XeXtXtXuXuXgXgXhXjXdX[.%X4X|.5XZXq.i.p.f.9.3.*Xx Y L I L L L L L L ",
"L L L L L L L L I Y d :XU.`._.3.q.I.U.U.U._.).U.oXdXr.4.4.@XOX@X8X8XeXeXtXsXgXjXtXdX!.+X4X+X#XZXx.f.r.7.w.3.%.E N L I L L L L E L ",
"L L L L L L L L j ! j [.}.'._.g.).P.'._.I.'.`.R.}.sXr.7.1.@XOX@X6X8X6XeXtXtXrXtXgXgXyX5X#X X#XlXQ.,.,.>.<.=.=.a T Y F L L L L L L ",
"L L I L L L L L t R L XX}._.Z.7.T.Y._.)._._.(.XX+XgX7.4.5.oXXX@X4X4X6X8XeXwXrXuXsXtXtX4X+X|.#XrXyX,.=.<.<.=.=.g E L Y F L L T L L ",
"L L L L L L L L E I t I.`.'.L.3.U.R._.`._.XX'.'.}.iXr.7.5.oXR.oX4X4X4X4X8X8XeXiXtX7XyX X}.4X%X4X2X<.=.=.@.@.+.z P L I Y L L L L Y ",
"L L L T L L L L ^ p ^ U.U.(._.8.P.P._.(._._.`.'.}.eX4.4.6.oXXX@X#X#X4X5X6X6X6X6XeXeX6X X|.4XoX#X}.O.=.O.O.O.O.j L L Y L L L L L L ",
"L L L L L L L L a T P ].).Y.%Xp.A.U.P.I.U.Y.U.'.'.$X7.4.6.XXOX@X4X6X4X4X6X6X6X4X6XwX6X~.#X}.#X}.B.+.[ O.} } | a L L L L L L L L L ",
"L L L L L L L L a P Y U.P.T.wXH.G.P.P.G.P.I.P.'.].$X3.2.5.OXoX+X4X4X4X4X<X4X4X4X5X6X6X/.#X#X#X}.7.] { ] ' ' ' a L L L L L L L L L ",
"Y L L L L L L I L P R U.G.K.tXH.G.A.A.B.A.G.G.U._.#X1.3.,.XXoX+X#X4X4X#X4X4X4X#X4X6X4X].#X#X+X+X7.9 2 < > < 5 F T L L L L L L L L ",
"P L L L L L L L P Z x K.G.P.hXOXA.m.m.N.N.G.A.G.U.+X<.1.5.R.XX+X4X4X4X4X4X4X4X9X4X6X5X.X#X#X+X4X3.; - & = = ; b I L L L L L L L L ",
"L L L L L L L I k / i A.M.G.rXtXG.m.m.m.m.M.B.B.P.}.>.-.,.R.XX'.|.|.4X#X<X4X4X<X4X4X4X+X|.#X#X<X=.; : , ; = ; ~ L L L L L L L L L ",
"L L L L L L L L j H ^ b.G.N.<XcXU.m.m.m.m.m.m.N.C.].>.1.,.R.XXoX}.}.}.#X#X|.4X4X4X4X#X#X#X#X$X[.O.= - & # - = W j L L L L L T L L ",
"L L L Y L F Y E m Q N J.M.A.J.CX).v.u.V.m.m.m.m.m._.=.1.,.R.XXoX_._._.'.}.|.|.4X<X4X+X#X4X#X4X;.] % % % $ % % U L L L L L L I L L ",
"P L L L L L L L Y H u &.B.m.F.AX`.v.u.t.a.a.V.m.m.T.-.-.,.R.Y.XXG.P.U.)._.'.}.|.<X#X}.}.#X#X X[ & o o O o o o p L L L L L L L L L ",
"L L L L L T E E a z I ;XC.V.m.GXdXt.f.9.v.f.m.a.V.Z.<.-.1.T.OXT.G.B.P.G.U.U.).`.'.|.].oX].@X|.]       + .   * s L L L L L Y L L L ",
"L L L L L L L I P I p U d.B.N.ZXSX^.p.r.r.d.r.y.a.F.=.;.1.XXY.XXN.M.G.B.G.L.)._.'.'.(.+X}.+X#X] o o o + O o t z L L L L L L L L L ",
"L L L L L L L L ~ F E R C.n.m.}.DXK.e.8.r.p.p.t.y.N.#.-.,.+XR.Y.N.m.B.B.A.A.P.P.L._.).'.#X X|.4 , - = % # $ ! I L L L L L L L L L ",
"L L L L L L L L p E p Q l.N.a.D.HXyXe.6.:.e.e.7.i.v.<.1.-.(.XXT.B.m.B.B.B.F.M.A.G.A.U.}.(.].O., 6 : - - , - F F L L L L L L L L L ",
"L L L L L L L L J T u s X.C.A.i.CXDXz.4.p.1.r.6.e.p.;.=.1.E._._.m.u.m.m.M.B.B.F.G.A.).)._.L.< - , ; - : > w F E L L L L L L L L L ",
"L L L L L L L L F ^ S i n M.v.B.v.HXrX7.5.e.e.2.e.V.=.@.>.R.U._.v.u.a.m.m.B.B.A.G.G._.K.T.].# : ; ; - ; = L m L L L L L L L L L L ",
"L L L L L b L L ^ t B ( J 9.C.n.Z.ZXSX^.4.-.6.e.e.r.8.=.6.T.T.R.i.u.u.m.m.m.m.B.I.P.Z.G.'.] # ; - , , , 8 ~ L L L L L L L I L E L ",
"L L L L L L L L L h I l h X.s.c.V.n.GXkXt.0.e.-.3.9.VXkXdXiXiX0Xr.y.y.V.y.m.m.G.B.L.Z.G.^.% : 1 : : < < g E F T L L Y L L L L L L ",
"L L L L L L L L Y I H M T H u.m.i.m.rXHX1X1.:.-.<.<.NXFXcXnXeX4Xg.t.v.p.V.m.m.G.A.A.W.n.0.% , < 2 3 < 7 F I k Y L L L L L L L L L ",
"L L L L T L L L a Y T _ Y a T M.c.B.s.nXHXK.1.0.f.f.e.3.f.f.w.r.f.r.r.t.r.i.F.V.F.U.K.P.. > 6 > 2 3 4 f T ! T l L L L L L L L L L ",
"L L L L L L L L z Y u I ! j K c.K.v.M.i.SXGXK.9.-.1.-.1.-.6.4.2.4.r.r.y.u.G.G.B.U.B.A.+.. 3 3 , 6 4 8 j P L J P L L L L L L L L L ",
"L L L L L L I L M J x P Y N Y B y.C.V.u.D.NXDX}.8.-.-.4.4.2.j.4.e.7.7.Z.G.D.Z.F.G.M.Z.. 8 3 6 4 1 4 y mXY L a P L L L L L L L L L ",
"L L L L L L L L T H F u L R j R =Xv.t.B.a.i.J.FXAXm.:.0.1.f.1.,.6.6.|.G.Z.P.F.C.A.B.@ % 0 6 5 3 2 w U I j Y I L L L L L L L L L L ",
"L L L L L L L L l I ~ T p l n z ( 9.C.V.s.M.n.S.fXAXVXwXK.K.`.#X4XL.Z.b.Z.m.A.M.M.9 X 2 5 3 3 1 q L / A h F P L L L L L L L L L L ",
"L L L L L L L L Y j j L I Y ^ j N g w.d.b.d.n.m.a.n.x.K.T./.J.Z.i.v.F.m.M.B.Z.Z.;.X 8 7 9 < , q u a d T L I L N L L L L L L L L L ",
"L L L L L L L L T P G j T k Y s ! f P 4.m.m.V.s.g.A.M.N.M.a.D.a.D.B.a.K.m.N.b.#.  6 5 2 4 4 2 u ~ L Z f T R H k L L L L E L L L L ",
"E L L L L L L L L L L L L L L L Y / K B >.s.n.m.n.m.N.m.m.V.Z.v.v.K.M.C.m.D.' . 6 4 ` ` q  .u P L L L L L L L Y L L L L L L L L L ",
"L Y L L L L L L L L L L L L L L z i N W / o.p.n.s.d.d.a.m.m.v.m.N.a.V.m.A.+ O { ' ] ' { W a U Y L L L Y L L I L L L L L L L L L L ",
"L L L L L L L L L L L L L L L L b ^ d u G R C @.a.u.n.n.V.V.d.M.s.J.S.0 @ e ] ] } [ c Y J F ! I L L L P Y L L L L L L L Y L L L I ",
"L L L L L L L L L L L L L L L L G B m ^ g l J B .. .=.i.s.i.~.q.O.3 < | $.$.*.:XW T E a j ) p Y L L L L L L L L L L L L E L L L Y ",
"L L L L L L L L L L L L L L L L Y U j Y j T U p z b U W d d d y L -X_ E p E a ^ b H s R P B T Y L L L L L L L L L L L L I L L L L ",
"L L L L L L L L L L T L L L L L T t U j H L u u S T Q z x j m Y L N g I g b / m U ^ a E L u L l L L L l L L L L L L L L L L L L L ",
"L L L L L L L L L I L L L L L L L U N R E Y U / J Y j m ! ! L z L Y U Y I E x p z u m Y I I L L L L L Y L L L Y L L L L L L L L L ",
"L L L L L L L L L L L L L L L L I F I L M j I G j j G I Y R L m L P N a L l b R F L W m U J I T L L L L L L L L L L L L L L L L L ",
"L L L L L L L L L L L L L L L L L E L L L L L P P P L T L L E L T L L U P b T ^ T T E L L L L L L L L L L L L L L L L L L L L L L "
};
