/* XPM */
static char *_fda9328ea2146fde1290ed6e8389066gjkgTVaVGBPUAumn[] = {
/* columns rows colors chars-per-pixel */
"65 65 243 2 ",
"   c #32053E",
".  c #282329",
"X  c #3A1B44",
"o  c #39194A",
"O  c #3C1851",
"+  c #360F47",
"@  c #392044",
"#  c #42144C",
"$  c #411B4C",
"%  c #440D55",
"&  c #441B54",
"*  c #4C155C",
"=  c #481859",
"-  c #4B1256",
";  c #4D235D",
":  c #492756",
">  c #52275D",
",  c #4D3654",
"<  c #4E0D65",
"1  c #510D66",
"2  c #510D68",
"3  c #4E1460",
"4  c #4F1E66",
"5  c #551D63",
"6  c #521766",
"7  c #4D2463",
"8  c #4D2767",
"9  c #522263",
"0  c #552D69",
"q  c #5B2C6D",
"w  c #572768",
"e  c #5C336B",
"r  c #5D3B6C",
"t  c #573565",
"y  c #5E2C73",
"u  c #5D3672",
"i  c #613C6D",
"p  c #63356A",
"a  c #652E74",
"s  c #633274",
"d  c #633B73",
"f  c #6A3D76",
"g  c #66337B",
"h  c #69357B",
"j  c #663D7B",
"k  c #6C3D7C",
"l  c #723C7D",
"z  c #72367E",
"x  c #602E6D",
"c  c #5E4469",
"v  c #64466C",
"b  c #664175",
"n  c #694377",
"m  c #6D427C",
"M  c #6D497B",
"N  c #684777",
"B  c #73437D",
"V  c #724A7E",
"C  c #7A447E",
"Z  c #74547E",
"A  c #735979",
"S  c #6E557D",
"D  c #79657B",
"F  c #78707D",
"G  c #6D3C83",
"H  c #6D3885",
"J  c #723D84",
"K  c #7A3C84",
"L  c #743D8B",
"P  c #7A3E8D",
"I  c #76368A",
"U  c #763D91",
"Y  c #7B3E92",
"T  c #7B3A9C",
"R  c #6E4383",
"E  c #6C4984",
"W  c #6E438A",
"Q  c #744385",
"!  c #7A4285",
"~  c #744A85",
"^  c #7A4B85",
"/  c #75438B",
"(  c #7A428C",
")  c #754A8A",
"_  c #7B4B8C",
"`  c #7A518D",
"'  c #785686",
"]  c #764292",
"[  c #7B4392",
"{  c #744992",
"}  c #7C4B92",
"|  c #7D4399",
" . c #7B499B",
".. c #7B5192",
"X. c #7E5995",
"o. c #6F4090",
"O. c #7E638B",
"+. c #7D688A",
"@. c #813E9A",
"#. c #823D94",
"$. c #813C8F",
"%. c #81438D",
"&. c #824D8E",
"*. c #835C8D",
"=. c #80558D",
"-. c #814394",
";. c #834B94",
":. c #844499",
">. c #88429C",
",. c #84499B",
"<. c #8A4C97",
"1. c #835592",
"2. c #845B93",
"3. c #8C5E9B",
"4. c #885898",
"5. c #83688A",
"6. c #88768E",
"7. c #856491",
"8. c #8D649C",
"9. c #896995",
"0. c #946A9E",
"q. c #916699",
"w. c #8E7B9B",
"e. c #8C7796",
"r. c #94739D",
"t. c #937D9C",
"y. c #9B7D9E",
"u. c #947898",
"i. c #8C48A1",
"p. c #8855A0",
"a. c #924DA0",
"s. c #8C68A5",
"d. c #946AA3",
"f. c #9A6CA7",
"g. c #9472A3",
"h. c #9C74A5",
"j. c #957CA2",
"k. c #9B7DA3",
"l. c #9D74AA",
"z. c #9C7CA9",
"x. c #9479AD",
"c. c #9A6FB3",
"v. c #A27CAA",
"b. c #A47DB2",
"n. c #8D839A",
"m. c #938595",
"M. c #938A95",
"N. c #94839B",
"B. c #99819C",
"V. c #9481A1",
"C. c #9B82A4",
"Z. c #9D83AB",
"A. c #9E8CA6",
"S. c #9E95A3",
"D. c #9A89B4",
"F. c #8C83A2",
"G. c #A18AA5",
"H. c #A484AC",
"J. c #A38AAC",
"K. c #A588AB",
"L. c #AA97A7",
"P. c #A898A5",
"I. c #AB95AB",
"U. c #A597A9",
"Y. c #A583B3",
"T. c #AA82B4",
"R. c #A68BB3",
"E. c #A98AB8",
"W. c #AD99B4",
"Q. c #B49BBA",
"!. c #B4A3BC",
"~. c #B8A5BA",
"^. c #B8B1BD",
"/. c #AFA0B3",
"(. c #B494C3",
"). c #BB9DC5",
"_. c #BA99C7",
"`. c #B18AC5",
"'. c #BDAAC3",
"]. c #BAA3C5",
"[. c #C19DCB",
"{. c #C19AC7",
"}. c #C592D7",
"|. c #C2ADC6",
" X c #C2AACB",
".X c #C7A2CE",
"XX c #C5B4CC",
"oX c #CCABD4",
"OX c #C9A9D6",
"+X c #CBBAD4",
"@X c #CDB5DB",
"#X c #CDB6D7",
"$X c #D1B4DB",
"%X c #D3BADA",
"&X c #D1B6D5",
"*X c #D1AED8",
"=X c #D69FE3",
"-X c #D5AAE4",
";X c #D5B5E5",
":X c #D5BCE3",
">X c #DCB9E8",
",X c #DFA7F2",
"<X c #E1B6EC",
"1X c #EDB7FD",
"2X c #D6C5DD",
"3X c #D6C9DA",
"4X c #CCC0D4",
"5X c #E3D9DF",
"6X c #DAC7E6",
"7X c #DFD3E3",
"8X c #E6CAEB",
"9X c #E3D4EA",
"0X c #EBD2EE",
"qX c #EBDDEF",
"wX c #E4D5E8",
"eX c #EDCBF7",
"rX c #F4CEFB",
"tX c #ECD3F2",
"yX c #EBDCF3",
"uX c #E7D5F5",
"iX c #F1D3F1",
"pX c #F2D5FB",
"aX c #FBDDFF",
"sX c #F4DCF9",
"dX c #F0D1EE",
"fX c #EAE2EE",
"gX c #EAE9EC",
"hX c #E7E1EE",
"jX c #F2E7EB",
"kX c #EDE6F3",
"lX c #EBEAF2",
"zX c #E9E8F3",
"xX c #F1E5F4",
"cX c #F4ECF4",
"vX c #FDE4FF",
"bX c #F6E9FD",
"nX c #FEECFE",
"mX c #F5E4F8",
"MX c #FEF5FF",
"NX c #FFFDFF",
"BX c #FFFEFF",
"VX c #FEFBFE",
"CX c #F7F7F8",
/* pixels */
"/ / H | Y [ <.z C B B ^ w % 3 + , . S.NXNXNXVXVXMXVXVXMXMXVXVXMXVXVXNXNXNXNXNXNXNXNXNXNXNXNXVXF X O O : O g P K K $.K K :.J K { / ",
") ) { L L K K <.%.Q W G }.>X<X>X2X|.4X~.XX'.].#X X X X X X|. X X X X X X X'.'.|.|.|.'.|.'.|.'. X%X$X;X;X-X`.z I $.%.K ! K %.[ J / ",
"N R ~ h %.<.I #.P ,.p.y rXMXnXMXnXnX,X  = ; = % = * * * * * * * * * 3 6 3 3 3 3 3 - - 5 * % * aXMXMXnXMXnX1X4 ,.-.:.;.;.Q f Q ~ Q ",
") ~ ~ Q ! l 9 * 4 4 4 O 6XMXMXMXnXvX1Xa <.| -.,.:.:.-.:.:.:.:.>.>.>.>.@.>.>.>.>.#.i.>.#.-.a.$.rXnXMXnXMXaXOXO 0 = = = ; Q ~ _ R Q ",
"| L J } m *.)..X).).].(.>X'.6X;X-X,X}.H P | ,.I Y #.Y Y Y Y #.Y Y Y Y L ] P P ( [ I ( [ J K ( =X<X-X>X$X$X%X].~.!.'.'.`.` W  .L L ",
"U | } _ r y.MXMXMXVXMXMXZ.X ; O 4 % H ] } L Y U ] ( Y U Y Y ] ] / / / / ( / / ( Q Q ( ^ Q ( J w * * # > @ !.VXVXNXMXVXMX' G  . .| ",
"T I h e @ w.MXMXVXVXnXMXK.r X.) ` M ~ W g W / ) / ) W / / / Q W / / / / / Q / Q ) Q Q _ Q k ~ ( %.<.l *.: +XVXCXNXCXVXMXN O y H / ",
"[ Q l.).J.!.yXuX6X6X6X8Xr.e ) ) Q ~ E ~ E ) R Q ) Q Q Q ~ Q Q Q / / ) W / W ) / W } G G / _ ) ( ! ! &.B t E.uX2X6X7XyX6XQ.E.`.c.I ",
"} 0 pXMXMXsXw.z.8.8 8 e m V C Q Q Q Q Q / / / / ] / / / / ( / ( ] ] ] / U ] / L ] ( U / ] / ( / B ~ / ) W g q 4 N x.u.K.MXMXVX&X< ",
"{ 7 tXVXVXjXt.D.c.G ( ( ( ! ~ _ ( ( ( P ( P ( ( P ( Y P P P ( K / / ] / / / ( / ( / ] / / / / / E W ~ / ] U P J ;.b.v.W.MXVXNXXX* ",
"{ 8 tXMXVXjXm.A.x.W _ %.K I U T P P P ] P Y P Y Y P P ( P P P ( Q W / ) ) Q ) Q ) Q / Q W Q R / ) W ] U Y | -.%.&.T.v.I.MXVXNX+X3 ",
" .8 tXCXVXjXm.D.s.b Q K $.@.T @.Y ( ( K ( P ( P P ( P ( ( ( / / / Q Q Q W Q Q Q W Q Q Q Q Q / ) ( { ] U Y Y P J &.v.y.L.MXNXNX+X1 ",
"{ w dXMXNXgXF.D.x.R V C %.%.@.T / / Q / / Q / / / / Q / ) Q Q Q / / / K / ] / U / / L ( / L / P P ( Y Y | ] / W ..Y.z.I.MXVXNX&X1 ",
"( 9 dXMXNXgXF.D.s.k ^ C C K T Y / Q Q ~ Q / ) W / ~ / Q Q Q Q Q ( ( ( ( ( ( ( K ( ( ( ( P ( ( P P K ( P U ] { W ` D.V.I.MXMXNX&X2 ",
"{ 7 0XMXVXjXV.D.c.G ( ! C V Q { / / / / L / / ] / / / ) / ) / / Q K ( / / / ( ( / K / ( ( ] ( P ( ! ( P / / Q R ` Z.j.U.MXVXNX%X< ",
"| 8 0XMXVXjXj.Y.c.U P Q Q W E R / / ( / / / / / / / / / / / / / Q Q / / / ! Q / / / / / / / / / J ~ Q / [ ( L R ` Y.Z.U.MXVXVX#X1 ",
"( > dXVXVXxXy.T.f.I :.] Q Q / L ( ( J ( ! J } Q / / / / / ] / / ! ! ! Q / ! / / / / / ( ] / / L / ( / / / | U W { Y.C.L.MXVXVX&X2 ",
"$.> dXVXVXxXB.H.h.I T | Q Q [ ] I %.K ( ! K ( Q / / / / / ] ] / Q Q Q Q ( / / / L Y / / / / ] / / / ( / ( { ] U  .Y.k.L.MXVXVX#X2 ",
"-.> dXMXVXkXB.K.h.z ] / Q Q / ( J ;.J P J / J ( / / / / / / / / / Q Q / Q / / / ( / / / / / / / / / ( Q / ( ] L ..Y.B.L.MXMXVX&X1 ",
"[ 5 tXVXNXkXm.K.f.k { [ Q B Q J ( _ Q / ( / / / K Q / / / / / Q / / / / / / / / / / / / / Q ~ / Q ( ! ! ! / / W ..Y.y.L.MXVXVX@X2 ",
"| 4 tXVXNXzXM.A.0.f _ / C l K ! ) R ) / / / } } U / ( ( Q ! ! ~ ) / W / / W / / / / ( Q Q ! Q K K ( ! C K ! / J _ H.B.L.MXVXNX@X2 ",
"| 9 uXVXVXzXM.C.r.m ( / m ^ -.P u t u e 0 s G L / ( / Q Q Q Q Q / W W ] / / / ) / Q / ! ! ! ! ( K ( ! C ! ( Q Q ` H.y.L.MXVXNX@X2 ",
"| 4 uXVXVXzXM.A.r.m ( / K ! #.H g.D.b.D.b.T.} / ( P K / ( Q ~ / ) o.] / / / Q / / / / ( P ! ( P ( ( ( ! ! %.^ K ` H.B.P.MXVXNX@X2 ",
"T 9 uXVXVXgXm.A.0.R [ L ! ;.U 6 6XMXnXMXnXnX8.h / / ( / P / / / / / / / / / / / / Q P ( ( P P P Y / ( ! ! ( J Q &.H.N.U.MXVXVX@X1 ",
"-.5 iXVXVXlXm.G.0.( L | L K i.% 6XMXMXMXMXnX8.f Q Q / ] ] ] L [ / / ( / ( J ~ J Q / L P Y Y Y Y U ] / J ( L ;.k _ T.y.P.MXVXNX@X2 ",
"-.5 dXVXVXgXm.K.0.k L | ( P i.4 2XVXVXVXMXnX7.d Q _ / J U { U L P / ( / _ ( ( ~ / / / / / ( ] U  .] / / ( H { / ` H.B.P.MXNXVX@X2 ",
"%.5 dXMXVXkXm.K.v./ ] | ( / | % 3XVXVXMXVXnX5.v M ` / / ] U U U | ! J l Q l ~ _ / ) ~ / / { ( { W W ) ) } / | G } Y.B.L.VXVXVX@X2 ",
"-.5 iXVXMXjXy.K.d.G ] G ) ~ } : 3XVXCXVXVXMX5.c M M m { } U Y | ( z ( &._ Q f n n b b j m j m j E E E d m R { W ` T.y.L.MXVXVX@X2 ",
"( 5 dXVXVXxXB.K.f.! / Q Z r d @ 3XCXVXVXNXgXF , v v j m g P P P } ( ( ( p ' 7.' O.7.O.O.O.7.O.5.' +.+.' 7.) R R ` T.y.L.MXMXNX@X2 ",
"( > tXMXVXkXy.K.0.f g E.tXtXsX0XCXVXCXCXNXNXfXqXyXsXrX_.s ,.-.K K ( ( m e -XvXnXvXbXbXbXbXbXbXcXbXbXnXnXaXT.j W ..b.y.I.MXVXNX@X2 ",
"[ 7 tXVXVXkXB.K.v.V ; Q.VXVXVXVXCXVXVXVXNXNXNXNXMXMXMXoX# %.l P L [ / ) : >XMXMXVXVXVXNXVXVXVXVXVXVXVXMXMXH.0 ) ` T.y.I.MXVXVX$X2 ",
"[ 9 tXVXVXkXN.K.q.C : ).VXMXMXVXVXMXVXVXNXCXNXNXNXnXMXoX# 4.K -.[ / ) ..O ;XMXMXMXVXVXNXCXVXCXVXCXVXVXMXVXR.> ) ` b.k.I.MXMXVX@X2 ",
"@.9 0XNXVXgXN.G.q.V : [.VXcXVXCXVXVXVXVXCXCXVXVXNXnXMX*X# ;.[ P L / ) ` o 6XMXMXNXNXVXVXCXVXVXVXVXVXVXVXMXK.0 E ` Y.k.I.MXVXVX$X2 ",
"@.9 0XNXCXgXN.Z.h.C > {.MXMXVXCXCXVXVXVXVXVXCXVXNXMXMX*X# / P [ | L Q ~ o $XMXVXNXNXNXNXNXNXVXVXVXCXVXVXMXI.e M ` Y.k.I.MXMXNX$X1 ",
"@.9 uXVXVXgXN.J.0.B e (.vXnXVXcXVXVXVXCXCXCXlXlXMXnXnX[.w ! P | Y I ( _ e OXpXyXyXqXqXfXhXyXyXyXkXkXkXqX8Xk.d R ..D.k.I.MXVXNX%X1 ",
"@.w uXVXVXgXN.D.v.B f f.(.J.S.M.5XCXVXVXVXCX^.U.G.J.Q.q.x ( [ | | ] } Q e d.v.j.t.N.t.N.N.t.N.t.t.e.t.B.H.' m W ..b.k.I.MXVXNX@X1 ",
"#.9 tXVXNXgXN.Y.q.l C 3.b.z.J.B.5XCXNXNXNXCXS.e.G.H.b.q.! } ( H U P ( P _ f.T.T.Y.Y.H.T.Y.R.Y.Y.Y.H.K.H.v.2.) R ..b.z.I.MXVXNX@X1 ",
":.5 tXVXNXzXV.Y.f.l ~ ;.s.d.0.A 5XNXVXVXMXMXD.e.9.q.q.<.( / ( _ L P / J / _ 3.3.2.2.2.2.2.4.2.2.2.2.*.2.2.^ W G ..Y.C.I.MXVXNX%X1 ",
"[ 9 tXVXNXzXk.Y.l.Q ! J / R n $ 4XVXVXVXMXnXO.r B ^ K J l l Q _ ( / ( / / k Q k R B l R K m J J R Q k f ^ k } / } Y.k.U.MXVXNX@X1 ",
"| 9 tXVXNXzXV.Y.d.Q ( L / Q &.$ 6XNXMXVXMXMX7.b / ( J ( _ ( ' ) _ _ _ _ / J _ / ( ( ( ( ( ( ( ] { [ Q B &.l / /  .Y.k.U.MXVXVX%X1 ",
"| w 8XNXNXhXV.Y.f.B ( / [ / J f J.4XXX#X@XOXX.m ( ( ( P ~ w $ o & o O 0 ~ ~ Q Q ( ( ( P P / / / ] Y ( ! ~ / / / X.D.C.I.MXMXNX@X2 ",
"L ; 0XVXNXkXn.Y.d.B Q / } [ %.B e.J.6.e.r.l.) Q P [ P [ Q [.oXoX@XoX*X).n ~ Q ( / ( ( P ( P ( ( Y P ( ! J / G R ..b.V.I.MXNXNX#X2 ",
",.8 0XMXVXzXj.R.g.B M W W L ( l 9.Z.k.R.Y.v.../ P [ H / s pXMXMXnXnXMXvXN ~ Q Q / / P / / / ! / Y U ( ( ! _ ) ~ ` Z.V.L.MXVXVX@X2 ",
"[ ; iXVXNXcXn.Y.9.m M W W / ( ( ` ' M ~ M ^ Q ( -.] { ) 8.sXnXnXVXMXMXsX7.b Q ! P P Y / ( / Q / ] Y ( Q k l W j ~ Z.B.U.MXVXNX;X< ",
"( 9 0XMXNXkXN.D.t.7.7.9.~ G ~ K k m n Q B B Q J L G } b 8XMXVXVXVXMXVXMXpXV ~ Q / P ( ( / / Q / [ ] _ ! B =.8.3.9.K.B.P.MXMXMX@X1 ",
"-.q iXVXVXhXN.C.R.G.H.Y.X.W ! Q [ _ ( ^ ~ Q Q _ [ G } 0 aXVXMXCXNXVXNXnXMXr Q _ ( ( P / ( Q Q ~ P G ! ~ V 8.T.Y.z.C.m.S.CXVXVX@X< ",
"/ e 0XVXNXwXN.N.u.t.j.x.' j C K H I K k Q B Q Q / / ) M pXMXCXCXCXNXNXnXaXV Q J ] Y ( P / ~ ! ) { G ~ n d 7.v.x.z.V.m.P.cXMXVX;X< ",
"| a *X9XwX2XU.'.!.!.!.].e.' 2.1.4.3.;.Q ( Q Q Q ) / R m h.B.m.M.M.M.N.J.h.n _ Q ( ( P Q / ( _ _ 4.2.4.' ' C.].).].!.~./.wXwX0X(.a ",
":.I G 0 X 6.nXMXnXVXMXMX!.j.R.Z.Z.(.s.J :.P [ R R W ( K z p t t t e e d h J / [ R ) R ) E Q / b.`.x.E.A.N.4XVXVXMXMXMXnXv > t h ( ",
"U L } ` i Z.nXMXMXVXMXVXW.m.N.N.6.A.s.L I Y G ) ) ) Y Y #.-.%.^ ` ) / ( K [ ( / ) W j R ) W k f.x.V.V.V.6.'.VXVXMXMXnXvX2._ ( _ / ",
"[ [ / ) j l.eXaXvXwXsXxX!.I./.W.!.Q.H.n ] ( G ) R / | Y [ P Q Q / / [ ( ( P P / L { } G Q E f _.).W.W.'.U.XXyXuXyXaXvXeX=.s k %.Q ",
"Q J / ) R M ~ d r N c , uXMXnXVXMXnX<Xp 1.G _ ) _ [ ( ( K / P L [ ] [ ( ( / / L U P / / ) ` V dXnXMXMXbXMX+X@ S N r u ~ m _ _ / / ",
"! ~ G K ) ) / R E ` ' : tXnXMXMXnXnX8X  v e ) k L G R W { [ ( P #.U I J / _ ( L | I U | k i t aXVXnXCXMXMX:X+ E ) { { { / ~ Q ! ( ",
"C ^ ~ Q / L L { / ) Q d 8XaXiXvXvXaX&XD e.9.^ ( / [ ..` E W { -.#.-.[ ( ~ W ) } U | :.H 1.0.6.sXjXvXvXaXaXoXq X.W ] / L / / Q / / ",
"Q ~ ~ Q / L U | U G / ^ B Z Z Z Z p Q.bXMXaX2.K ( ( n c r r G U I Y ( m r r d G U | -.3 _.nXcXcXD v A A C ~ Q L ]  .] U { / J ~ / ",
"Q R Q P { -.P U Y [ Q ! B V n f &.# Q.MXMXnX2.k ( ~ ~ +.N.j.4.L :.K J ' 9.r.g.s.W U ;.% .XMXNXjXA v M B m / ( L L | L P / ( Q / / ",
") / ] / ( ( ( P P ( ( Q Q ~ Q Q [ w Q.MXVXbX7.h ~ j A bXMXMX{.- ;.K M t sXMXMX;XO / _ & ).VXVXgXS E ) ) ! ( P ( P P ( P ( / / / K ",
"/ ] / / ( ] K P ( P K ( / / / / :.* Q.VXCXkX7.~ 4.V A kXVXMX{.> ` V A c yXVXMX:Xr ....r |.MXCXcX' W / } / ( P ( P ( P ( / / / / Q ",
"U ] ] / L ( ! ! ! K ( ( P ] U | @.3 (.VXNXNXD.H.v.v.G.MXMXcX%Xy.v.H.H.6.kXVXVX2Xt.R.Z.9.+XVXVXcX) W ] ] / ( K ! ! ! ! K / / / / / ",
"] ] / / / ( K Q ! ! ! ( / / / U Y 5 (.MXCXCXu.r.v.r.N.gXVXVX|.5.C.w.6.6.qXNXMX4X+.w.t.e.^.MXVXxX` o.] [ K ( Q ! ! ! ! ! / ) ] / / ",
"U / L / / ) / ~ / Q Q ( ( P / P a.3 [.MXVXNX7X8X8X8X3XVXNXVXxX0XuX9X9X3XMXVXVXkX7XwX0X7XqXVXVXmX) L { ( / ( / ! ! Q Q / / / / / / ",
"/ / ( / / / / W / / / Q Q ( ( P >.% ).VXCXCXMXMXnXnXMXVXNXMXMXVXMXVXNXVXVXnXVXMXVXMXVXNXMXVXMXvX` Q ( ( Q ( / ( / / / / / / / / / ",
"! ! / Q / / / W ) / / / Q ! ! K K 5 ).NXCXCXVXbXMXMXMXMXMXMXMXMXNXMXnXMXMXVXMXnXVXMXVXNXMXMXVXvXC C ^ ! J / / / / ] ] / / / / / ( ",
"! ! Q ! / ) o.] / W / Q Q Q ! ! ( K 8.G.F.S.t.y.j.r.k.t.t.t.V.t.w.w.t.y.u.y.y.u.u.u.N.w.j.Z.E.r.C l ! Q Q / L W ] / / / / / / Q / ",
"( Q / ! / / / / / / / / / / Q K ( ( l q q q a a a a a a a s a s s a s a a a a a p a a s s y y g K / ! / / / / / / / / / / / / / / "
};
