/* XPM */
static char *ae03d800dfbf46f7d9d1cd4f45cec34aAV5e24sq2NIwS4GY[] = {
/* columns rows colors chars-per-pixel */
"63 61 216 2 ",
"   c #4F2811",
".  c #4F2A14",
"X  c #552B13",
"o  c #532C13",
"O  c #5B2E15",
"+  c #5C2E15",
"@  c #502C19",
"#  c #5E3316",
"$  c #5E3416",
"%  c #583219",
"&  c #58341C",
"*  c #603116",
"=  c #613217",
"-  c #623417",
";  c #643319",
":  c #623718",
">  c #653418",
",  c #673C1A",
"<  c #683B1A",
"1  c #6F3D1D",
"2  c #6C3F1D",
"3  c #4F3120",
"4  c #4F3324",
"5  c #4F3528",
"6  c #4F3B2F",
"7  c #5A3520",
"8  c #5D3824",
"9  c #573B28",
"0  c #4E3D32",
"q  c #4D3F37",
"w  c #633C21",
"e  c #623E24",
"r  c #613F29",
"t  c #633F28",
"y  c #71431D",
"u  c #73401E",
"i  c #58443A",
"p  c #58463D",
"a  c #6B4120",
"s  c #6F4527",
"d  c #62422F",
"f  c #64412F",
"g  c #754620",
"h  c #714626",
"j  c #794621",
"k  c #794B22",
"l  c #7F4E24",
"z  c #754B2D",
"x  c #7B4E2F",
"c  c #7D5027",
"v  c #7D512C",
"b  c #634535",
"n  c #664734",
"m  c #6A4A33",
"M  c #694938",
"N  c #684B3B",
"B  c #6F4F39",
"V  c #6A4E3E",
"C  c #754B30",
"Z  c #70513E",
"A  c #76543D",
"S  c #7D553B",
"D  c #4D4541",
"F  c #4D4A49",
"G  c #4C4C4C",
"H  c #5C4E46",
"J  c #584F4C",
"K  c #515151",
"L  c #5B5B5B",
"P  c #634F44",
"I  c #6C5447",
"U  c #6C594F",
"Y  c #775A45",
"T  c #785B4A",
"R  c #7D6048",
"E  c #6B615D",
"W  c #776358",
"Q  c #606060",
"!  c #6A6866",
"~  c gray43",
"^  c #756B66",
"/  c #7C6961",
"(  c #717171",
")  c #747474",
"_  c #797979",
"`  c #7E7E7E",
"'  c #814D24",
"]  c #835225",
"[  c #885527",
"{  c #83522A",
"}  c #8D5929",
"|  c #8C5A29",
" . c #915D2B",
".. c #915E2F",
"X. c #855633",
"o. c #825637",
"O. c #8B5D36",
"+. c #875F3D",
"@. c #96612C",
"#. c #9A642E",
"$. c #8F623C",
"%. c #946336",
"&. c #9E6934",
"*. c #926539",
"=. c #98683B",
"-. c #A26E3B",
";. c #846040",
":. c #8B6442",
">. c #8F6745",
",. c #8E6A49",
"<. c #936741",
"1. c #9D764A",
"2. c #99724D",
"3. c #846B55",
"4. c #967450",
"5. c #9B7953",
"6. c #9D7853",
"7. c #A47440",
"8. c #A47645",
"9. c #A87A47",
"0. c #A3794D",
"q. c #AC7F4C",
"w. c #A57E52",
"e. c #A47F5A",
"r. c #8A7366",
"t. c #807169",
"y. c #847871",
"u. c #897F7A",
"i. c #907D73",
"p. c #947E73",
"a. c #AF8451",
"s. c #A7855C",
"d. c #B38958",
"f. c #B18B5B",
"g. c #B78E5D",
"h. c #9C836A",
"j. c #8E847F",
"k. c #928572",
"l. c #99857B",
"z. c #B99363",
"x. c #B2956E",
"c. c #B8976E",
"v. c #BD9869",
"b. c #A48B71",
"n. c #AB957C",
"m. c #C19D6E",
"M. c #C4A374",
"N. c #C8A97A",
"B. c #CAAE7F",
"V. c gray51",
"C. c #868686",
"Z. c gray53",
"A. c #8F8580",
"S. c gray54",
"D. c gray55",
"F. c #928884",
"G. c #968C87",
"H. c #998982",
"J. c #9E8A80",
"K. c #9E8A81",
"L. c #9C928D",
"P. c #9F9F8D",
"I. c gray57",
"U. c #9A9A9A",
"Y. c #9C9A98",
"T. c gray61",
"R. c #AB978D",
"E. c #B5A98F",
"W. c #A3A390",
"Q. c #A8A895",
"!. c #ACAC98",
"~. c #B4B39F",
"^. c #A0A0A0",
"/. c gray63",
"(. c #A5A5A5",
"). c gray66",
"_. c #AAAAAA",
"`. c #AEAEAE",
"'. c #B4B4B4",
"]. c gray71",
"[. c #B7B7B7",
"{. c gray73",
"}. c #BCBCBC",
"|. c #CEB385",
" X c #D1B78A",
".X c #C1B39A",
"XX c #C3B39A",
"oX c #C2B49A",
"OX c #C9BEA5",
"+X c #C3B9B4",
"@X c #CBC9B1",
"#X c #CFCDB4",
"$X c #CECEB6",
"%X c #D1D1B7",
"&X c #D7D3B9",
"*X c #D9D8BE",
"=X c #C0C0C0",
"-X c #C1C1C1",
";X c #C6C3C2",
":X c gray78",
">X c #CACACA",
",X c #CDCDCD",
"<X c gray81",
"1X c #DDDCC1",
"2X c #DDDCC2",
"3X c #DFDCC2",
"4X c #DEDDC3",
"5X c #DEDDC4",
"6X c LightGray",
"7X c gray83",
"8X c #DADADA",
"9X c gray88",
"0X c #E7E7E7",
"qX c gray95",
"wX c #F9F9F9",
"eX c white",
/* pixels */
"4X4X4X4X4X4X4X4X4X4X4X4X4X4X4X4X4X4X4X4X5X5X5X5X5X5X5X5X5X5X5X5X5X5X5X5X5X5X5X5X5X5X5X5X5X5X5X5X5X5X5X5X5X5X5X5X5X5X5X5X5X5X5X",
"4X4X4X4X4X4X4X4X4X4X4X4X4X4X4X4X4X4X4X4X4X5X5X5X5X5X5X5X5X5X5X5X5X5X5X5X5X5X5X5X5X5X5X5X5X5X5X5X5X5X5X5X5X5X5X5X5X5X5X5X5X5X5X",
"4X4X4X4X4X4X4X4X4X4X4X4X4X4X4X4X4X4X4X4X4X5X5X5X5X5X5X5X5X5X5X5X5X5X5X5X5X5X5X5X5X5X5X5X5X5X5X5X5X5X5X5X5X5X5X5X5X5X5X5X5X5X5X",
"4X4X4X4X4X4X4X4X4X4X4X4X4X4X4X4X4X4X4X4X4X4X5X5X5X5X5X5X5X5X5X5X5X5X5X5X5X5X5X5X5X5X5X5X5X5X5X5X5X5X5X5X5X5X5X5X5X5X5X5X5X5X5X",
"4X4X4X4X4X4X4X&Xb.b.b.b.b.b.b.b.b.b.b.b.b.b.b.b.b.b.b.b.b.b.b.b.b.b.b.b.b.b.b.b.b.b.b.b.b.b.b.b.b.b.b.b.b.b.b.b.n.&X5X5X5X5X5X",
"4X4X4X4X4X4X&XS > > > > > > > > > > > > > > > > > > > > > > > > > > > > > > > > > > > > > > > > > > > > > > > > > C OX5X5X5X5X",
"4X4X4X4X4X4XoX> > > > > > > > > > > > > > > > > > > > > > > > > > > > > > > > > > > > > > > > > > > > > > > > > > > b.5X5X5X5X",
"4X4X4X4X4X4XoX> e.c.c.c.>.> > } } } } } } } } } } } } } } } } } } } } } } } } } } } } } } } } } } 0.<.> > c.c.c.c.x b.5X5X5X5X",
"4X4X4X4X4X4XoX> 0.v. X X6.> > #.&.#.#.&.7.#.#.-.g.#.#.#.&.&.#.#.q.&.#.#.#.#.#.7.&.#.q.q.9.a.#.#.#.f.6.; > g.M. X Xo.b.5X5X5X5X",
"4X4X4X4X4X4XoX> } 7. X X6.> > 9.q.9.M.a.z.#.d.-.g.7. Xd.q.a.a.g.q.a.&.g.M.z.#.z.q.m.M.&.9.9.&.v.v.|.6.> > #.d. X Xo.b.5X5X5X5X",
"4X4X4X4X4X4XoX> } q.q. X6.> > M.M.B. XB.M.M.|.M.M.N. XB.M.|. X XN. XN.|. XB.M.M.N. X XM.M.M.M.M. X X6.> > #.g.a. Xo.b.5X5X5X5X",
"4X4X4X4X4X4XoX> } &.&. X6.> > 6.6.6.6.6.6.6.6.6.6.6.6.6.6.6.6.6.6.6.6.6.6.6.6.6.6.6.6.6.6.6.6.6.6.6.o.> > #.-.9. Xo.b.5X5X5X5X",
"4X4X4X4X4X4XoX> %.v.#. X6.> > > > > > > > > > > > > > > > > > > > > > > > > > > > > > > > > > > > > > > > q.d.9. Xo.b.5X5X5X5X",
"4X4X4X4X4X4XoX> ..d.#. X6.> > > > > > > > > > > > > > > > > > > > > > > > > > > > > > > > > > > > > > > > 7.q.9. Xo.b.5X5X5X5X",
"4X4X4X4X4X4XoX> %.q.#. X6.> o. X X X X X X Xo.>  X X X X X X X6.> 6. X X X X X X X> >  X X X X X X X6.> > 9.7.9. Xo.b.5X5X5X5X",
"4X4X4X4X4X4XoX> ..d. X X6.> o.|.g.|. X X X Xo.>  Xm.m. X X X X6.> 6.B.z.|. X X X X> >  Xz.N. X X X X6.> > -.v. X Xo.b.5X5X5X5X",
"4X4X4X4X4X4XoX> } q. X X6.= z w.#.g. Xm.B. Xo.>  X#.#. X Xv. X6.; 0.g.#.z. Xz.|. X; ; N.#.9. XB.m. X6.> > #.z. X Xo.b.5X5X5X5X",
"4X4X4X4X4X4XoX> } d.&. X4.V u./ h g. Xg.g. Xo.>  X#.#. XN.&. X6.; 6.q.#.g. X9.v. X; ; M.#.9. XM.-.|.6.> > -.d.9. Xo.b.5X5X5X5X",
"4X4X4X4X4X4XoX> } m.-. Xn `.0X6Xt.5. X9.9. Xo.> B.#.#. XM.#.B.6.> 6.9.#.g. X8.g. X> > M.#.9. Xz.&. X6.> > -.m.9. Xo.b.5X5X5X5X",
"4X4X4X4X4X4XoX> } #.#. Xn 0XeXeXL.b W W W W W W W W W W W W W W W W W W W W W W W W W W W W W d #. X6.> > #.#.9. Xo.b.5X5X5X5X",
"4X4X4X4X4X4XoX> } q.z. Xb 8XeXeXA.J.0X0X0X0X0X0X0X0X0X0X0X0X0X0X0X0X0X0X0X0X0X0X0X0X0X0X0X0X,Xy.#. X6.> > #.d.v. Xo.b.5X5X5X5X",
"4X4X4X4X4X5XoX> } a. X Xb /.qX:Xu.J.0X0X0X0X0X0X0X0X0X0X0X0X0X0X0X0X0X0X0X0X0X0X0X0X0X0X0X0X,Xu.#.|.6.> > #.m. X Xo.b.5X5X5X5X",
"4X4X4X4X5X5XXX; } -.M. Xb U.0X].u.i Q Q Q Q Q Q Q Q Q Q Q Q Q Q Q Q Q Q Q Q Q Q E Q Q Q Q Q ) u.#.M.6.> > #.a.N. Xo.b.5X5X5X5X",
"3X4X4X4X5X5XoX= } #.a. Xb V./.( u.W U.U.U.U.U.U.U.U.U.U.U.U.U.U.U.U.U.U.U.U.U.T.U.U.U.U.U.U.(.F.#.M.6.> > #.&.z. Xo.b.5X5X5X5X",
"3X3X4X4X4X4XoX> } -.|. XN _ G L F.T J.J.J.J.J.J.J.J.J.J.J.J.J.J.l.J.J.l.K.K.l.K.J.J.J.l.J.J.l.r #.M.6.> > &.9.|. Xo.b.5X5X5X5X",
"3X3X3X4X4X4XoX> ..d.7. X7 ;X`.}.l.      .               .         o o     o   o .   o o   o o o #.M.6.> > a.a.d. Xo.b.5X5X5X5X",
"3X3X3X3X4X4XoX> } -. X X% r p.T   >.1.[ [ x.z = 1.[ [ s.[ [ 1.:.# +.[ [ 1.*.{ *.x.# = *.{ *.s. .#.M.6.> > #.d.|. Xo.b.5X5X5X5X",
"3X3X3X3X3X4XoX> } -.|. X,.o     # f.9.#.#. Xo.> g.#.#.M.#.#.g.6.; %.#.#.g.9.#.-. X; > 9.#.9.z.#.#.M.6.> > @.a. X Xo.b.5X5X5X5X",
"3X3X3X3X3X3XoX> } q.v. X6.= = l #.g.9.#.#. Xo.> &.#.#.m.#.#.g.6.> ] #.#.g.#.#.#. X; ; -.#.9.g.#.#.M.6.> > #.9.N. Xo.b.5X5X5X5X",
"3X3X3X3X3X3XXX> } q.-. X6.> 1 #.#.g.&.#.#. Xo.> #.#.#.g.#.#.g.6.> ' #.#.g.#.#.#. X; > ..#.9.d.#.#.v.6.> > #.9.9. Xo.b.5X5X5X5X",
"3X3X3X3X3X3XXX> } 7.d. X6.> g #.#.g.#.#.#.|.o.; #.#.#.g.#.#.g.6.> ' #.#.q.#.#.#. X= + u ] 9.9.#.#.g.6.> > #.q.z. Xo.b.5X5X5X5X",
"3X3X3X3X3X3XXX> } z. X X6.> 1 #.#.a.#.#.#.M.o.; #.#.#.9.#.#.g.6.> ' #.#.9.#.#.] f p E ^ H 9 c #.#.g.6.> > #.B.|. Xo.b.5X5X5X5X",
"3X3X3X3X3X3XXX> } &.-. X6.> u #.#.#.#.#.#.M.o.> #.#.#.#.#.#.g.6.> ' #.#.#.#.] 5 ! -XeXeX8X` 0 g #.g.6.> > #.-.a. Xo.b.3X5X5X5X",
"3X3X3X3X3X3XXX> =. X#. X6.> u #.#.#.#.#.#.M.o.> #.#.#.#.#.#.9.6.> ' #.#.#.@.3 ) U.eXeXeXeX`.` 4 [ g.6.> > d.m.9. Xo.b.5X5X5X5X",
"3X3X3X3X3X3XXX> } -.-. X6.> u #.#.#.#.#.#.M.o.> #.#.#.#.#.#.9.6.> ' #.#.#.l i -XU.0XeXeXwXQ.=XL 2 d.6.> > -.-.9. Xo.b.5X5X5X5X",
"3X3X3X3X3X3XXX> } -.g. X6.> u #.#.#.#.#.#.M.o.> #.#.#.#.#.#.9.6.> ' #.#.@., ! <XQ.,X6X>X).U.}.C.e g.6.> > #.a.z. Xo.b.5X5X5X5X",
"3X3X3X3X3X3XXX> } #.#. X6.> u #.#.#.#.#.#.M.o.> #.#.#.#.#.#.9.6.> ' #.#.#.; ) -X].eX0XT.U.D.^.U.e g.6.> > #.#.9. Xo.b.5X5X5X5X",
"3X3X3X3X3X3XXX> } m.7. X6.> u #.#.#.#.#.#.M.o.> #.#.#.#.#.#.9.6.> ' #.#.#.y J 0XQ T.S.V.~ K 6X) $ a.6.> > -.M.9. Xo.b.4X5X5X5X",
"3X3X3X3X3X3XXX> } 9.g. X6.> u #.#.#.#.#.#.v.o.> #.#.#.#.#.#.9.6.> ' #.#.#.| 6 (.>XQ G G Q [.[.q k 9.6.> > #.d.v. Xo.b.4X4X4X5X",
"4X3X3X3X3X3XXX> } 9. X X6.> u #.#.#.#.#.#.g.o.> #.#.#.#.#.#.9.6.> ' #.#.#.#., D ` [.-X>X-XI.F 3 @.9.6.> > #.g. X Xo.b.4X4X4X4X",
"*X4X4X3X3X3X.X> } -.g. X6.> 1 #.#.#.#.#.#.g.o.> #.#.#.#.#.#.7.6.> ' #.#.#.#.l o q F F G G D @ y #.9.6.> > #.7.v. Xo.b.4X4X4X4X",
"4X4X4X*X3X3X.X> [ a.M. X6.> u #.#.#.#.#.#.g.o.> #.#.#.#.#.#.#.6.> ' #.#.#.#.@.X   o 3 3 @ o   } #.9.6.> > #.g.N. Xo.b.4X4X4X4X",
"4X4X4X4X4X4XoX> } a. X X6.> u #.#.#.#.#.#.g.o.> #.#.#.#.#.#.#.6.> ' #.#.#.#.#.y           O ; #.#.9.6.> > #.v. X Xo.b.4X4X4X4X",
"*X4X4X4X3X*XoX> } q.g. X2.8 W I g #.#.#.#.g.o.> #.#.#.#.#.#.#.6.> ' #.#.#.#.#.#.w o       $ | #.#.9.6.> > #.g.z. Xo.b.4X4X4X4X",
"4X4X*X4X3X4XoX> } &.&. Xm Y.,X{.W [ #.#.#.g.o.; #.#.#.#.#.#.#.6.> ' #.#.#.#.#.#.g.# o ; g | #.#.#.9.6.> ; #.-.9. Xo.b.4X4X4X4X",
"4X4X4X4X*X4XoX> ..d.#. Xn 9XeXeXG.e A A A T Z M A A A A A A A Y M B A A A A A A T M M A A A A a #.#.6.> > -.a.9. Xo.b.4X4X4X4X",
"*X4X4X*X*X4X.X> %.z.#. Xb 9XeXeXG.i.,X,X,X,X,X,X,X,X,X,X,X,X,X,X,X,X,X,X,X,X,X,X,X,X,X,X,X>X].t.#.#.6.> > 9.a.9. Xo.b.4X4X4X4X",
"4X4X4X4X4X4X.X> ..q.#. Xb `.qX,Xu.R.eXeXeXeXeXeXeXeXeXeXeXeXeXeXeXeXeXeXeXeXeXeXeXeXeXeXeXeX0Xj.#.#.6.> , -.7.9. Xo.b.4X4X4X4X",
"*X3X4X*X4X4XoX> %.z.|. Xb U.0X'.j.U C.C.C.Z.Z.Z.S.C.C.Z.Z.Z.Z.Z.C.C.Z.Z.Z.Z.Z.Z.C.Z.Z.Z.Z.Z.S.u.#.#.6.> > -.v. X Xo.b.4X4X4X4X",
"*X4X1X1X4X4XoX> } a. X Xb S.[.C.j.P ) ) ) ) ) ) ) ( ) ) ) ) ) ) ) ) ) ( ) ) ) ) ) ( ) ) ) ) j.F.#.#.6.; > #.v. X Xo.b.4X4X4X4X",
"4X1X1X1X4X*XoX> } 7.9. XN _ G K j.r.+X+X+X+X+X+X+X+X+X+X+X+X+X+X+X+X+X+X+X+X+X+X+X+X+X+X+X+X+XW #.#.5.; > #.9.d. Xo.b.4X4X4X4X",
"4X3X1X1X*X4XoX> } |.-. Xf -XI._.l.                    o         o                     o X       #.#.5.= > 7.|.9. Xo.b.4X4X4X4X",
"4X*X*X4X4X*XoX> ..z.#. X  Y l.k.o , g g y { a % y g g g g g g s O , g g g g g g v # O y y k y k #.#.2.; > 9.a.9. Xo.b.5X4X4X4X",
"3X4X4X*X%X#XE.> } -.m. X$.X X o o @.#.#.#.9.o.; #.#.#.#.#.#.#.$.> ' #.#.#.#.#.#.9.> > #.#.#.#.#.#.#.*.; > #.7.N. Xo.h.$X$X*X4X",
"3X1X@XW.P.P.k.> } -. X X5.O $ y } #.#.#.#.#.o.; #.#.#.#.#.#.#.*.> ' #.#.#.#.#.#.9.> > #.#.#.#.#.#.#.*.; > #.d. X Xo.3.P.P.W.&X",
"1X1XQ.P.P.R.k.> j ' O.6.S = y  .} } } } } | x ; ..| | | | | | X.> j } } } } } } =.> > } }  .} } } } X.> > ] { <.6.h 3.P.P.P.!.",
"1X1XP.P.P.P.k.: : : > > : > > > > $ : > ; ; ; ; : > > > $ : > > > > > > $ , - > > > > > > > > > ; $ ; : > > > > > > 3.P.P.P.P.",
"1X1XQ.P.P.P.P.P.P.P.P.P.P.P.P.P.R.P.P.P.P.P.P.P.P.P.P.P.P.P.P.P.P.P.P.P.P.P.P.P.P.P.P.P.P.P.P.P.R.P.P.R.P.P.P.P.P.P.P.P.P.P.~.",
"1X1X%XQ.P.P.P.P.P.P.P.P.P.P.P.P.P.P.P.P.P.P.P.P.P.P.P.P.P.P.P.R.R.R.P.P.P.P.P.R.P.P.P.P.P.P.P.P.P.P.P.P.P.P.P.P.P.P.P.P.P.!.*X",
"1X1X1X1X1X1X1X1X4X4X*X4X1X1X1X3X1X4X4X5X1X1X1X1X4X4X4X4X4X*X4X4X1X3X4X4X2X2X2X2X4X4X4X4X3X3X3X3X4X1X4X4X4X4X4X4X4X4X4X4X4X4X4X",
"1X1X1X1X1X1X1X1X*X3X4X*X4X3X*X3X1X1X1X1X1X1X1X1X*X4X4X4X4X*X4X4X1X1X5X2X2X5X2X5X4X3X3X3X3X3X3X3X4X4X4X4X4X4X4X4X4X4X4X4X4X4X4X"
};
