/* XPM */
static char *beb53ff27c1a4c50a323dc584a7d0b19Zwoz95kYDjzhjCWk[] = {
/* columns rows colors chars-per-pixel */
"65 65 40 1 ",
"  c #3E88B7",
". c #3F89B8",
"X c #408AB9",
"o c #418BBA",
"O c #428ABA",
"+ c #438BBB",
"@ c #428CBB",
"# c #448DBA",
"$ c #458EBB",
"% c #438DBC",
"& c #448CBC",
"* c #458DBD",
"= c #448EBD",
"- c #468FBC",
"; c #468EBE",
": c #478FBF",
"> c #488FBD",
", c #4B8FBE",
"< c #4790BD",
"1 c #4990BE",
"2 c #4891BE",
"3 c #4A91BF",
"4 c #4992BF",
"5 c #4C90BF",
"6 c #4C93BF",
"7 c #4B92C0",
"8 c #4A93C0",
"9 c #4D91C0",
"0 c #4C93C1",
"q c #4E92C1",
"w c #4B94C1",
"e c #4D94C0",
"r c #4E95C1",
"t c #4D94C2",
"y c #4E95C3",
"u c #4F96C2",
"i c #4F96C4",
"p c #5097C3",
"a c #5198C4",
"s c #5299C5",
/* pixels */
"  ......X@XXX@X%oooooo.oooooooooooO&O&O&+*&&O++*&&=O###$$$$$$<$<<",
"  ......@XXXXXX@oooooooooooooooo&&&O&OO&O&*&++O&&&==#$#$$$$$<$<$<",
"......XXX@XXX@@Xoooooooo@@o@@@@@o&O&&&&&+***++**&&%%$@$$$$$<<$$<&",
".....XXX%X@XXXX@oooooo@@@@@@@@@@&O&O&&&&O&***O&*&.7%@$$$$$<$$<$<<",
"...XXXXX@@@XXXXXoooo@@@@@@@@@@@@&O&&&&&&&***&&**%%$$$$$$<$<$<<<<<",
"..XXXXXX@%XXXXXXooo@@@%&@@@@@@@@&&&&&&&&&***&***&%$$$$$<$<$<<<<<<",
"XXXXXXX@%@@XXXXXooo@@%&&@%%%%%%%&&&&&&&&****&&**<$$$$$<$<$$<<<<<<",
"XXXXXX@X%@X@XXXXooo@@%&&%%%%%%%%&&&&&&7&****&&*:<<$$$$$<$<<<<<<<<",
"XXXXX@X@X@X@X@X@O&O&O&++&&&&&&&&&&&&&&&&****:*:*<$<$<$<<<<<<<<<<<",
"XXX@@X@X@X@X@X@X&O&O&O++&&&&&&&&&&&&&&&&*****:*:$<$<$<<<<<<<<<<<<",
"X@@XX@X@@@@@@@@@O&&OOOO+&&&&&&&&&&&&&&&*****:*:*<$<$<<<<<<<<<<<<<",
"@XX@X@@@@@@@@@@@&&&&7O&&&&&&&&&&*&&&*****:*:*:*:$<$<<<<<<<<<<<<<2",
"X@X@@@@@@@@@@@@@&&&&.77O&&&&&&&&*********:*:*8::<$<<<<<<222222222",
"@XX@@@@@@@@@@@@@OO&&OO. &7&&7&%&********:*:*:*::<<<<<<22222222222",
"X@%@@@@@%%%%%%%%7O7O7..7.7&8&<&&*&*******:*:::::<<<<<222222222222",
"%@@@@@%%%%%%%%%%OOO.7O7.7&&&&&<&7***:*:*:*7*::::<<<<2222222222222",
"X&++++++&&&&&&&&&&&&&&&&$$$$$$$$$$$$$$$$<$<$<$<<<<<<<<88<<<<88<<2",
"+&++++++&&&&&&&&&&&&&&&&$$$$$$$$$<$<$<$<$<$<$<$<<<<<<8<<<88<<<<88",
"++++++++&&&&&&&&&&&&&&&&$$$$$$$$<$<$<$<$<$<$<$<&<<<<<<8<<<<<<<<82",
"++++++++&&&&&&&&********$$$@$$$$$<$<$<$<<<<<<<<<<<228<<<888888<88",
"++++++++&&&&&&&&********$<$<$<$<<$<$<$<$<<<<<<<<222222<8<888888<2",
"++++++++****************<$<$<$<<<<<<<<<<<<<<<<<<2222628888<<8<888",
"++++++++****************$<$<$<<%<<<<<<<<<<<<<<<<222226<<8<88<8<82",
"++++++++********:*:*:***<$<$<$<<<<<<<<<<<<<<<<<<2222628888<888<88",
"++++7.OO77OO&&&&*:*::*::::;;<<<<<<<<<222<22<222<7>>7>7772887>>778",
"+++&O.7..O7O&&&&:*:**:::::;8<<<<<<<<222222288222777777>>82>8777>9",
"++&&O77.&OOO&&&+*:*::*::%8=8<<<<<<<<222222<82222>77>7>7728>8787>8",
"&&&&.7.7&O7&****:*:***::7=8=<<<<<<<222222<828222>77>77>798997989y",
"&&&&&&7.7+*******:*:*:::%8<<<<<<22222<82&888<88877>77777777877779",
"&&&>&7&&&&******:*:*:*::8%&8<<<<22222628882888<&77778977777977775",
"&&&&&&&&&&*+*****:*:*:7:7&8&<<<<22<282828<8888777979999999999999p",
"&&&&&7&87&*7***7:*:*:*::.8%%<<<<22<828288<8888>77999999999p999995",
"###<<###<#<#@#$@$<$<$<@<<<<<<<<<22<2882877>>77777777777777777777y",
"######<#<#<#<<<<<$<$<<<<<<<<8<8822<88282>777>77777777777t7t77tt72",
"<#<##<<<#<<<<<<<$<$<$<&<<<%<<<<<2<82282877777777777777777t7t7t7ty",
"<####<#<#<#<<#@<<<<<<<<<<<8<<88<88288288&777777777777777t7t7t7t76",
"###<<#<<<<#<<<<<<<<<<<<<<<8<<<8<2828288877777778988t8t7tt7t77t7ty",
"#<<<<#<#<<<<<<<<<<<<<<<<8<8<8<8882888888777777ttt9t9t9t7tttttttty",
"#<#<<<<<<<<<<<<<<<<<<<<<<<<<88<8288888887777t7t98t8t8t7ttttttttty",
"<<#<#<<<<<<<<<<<<<<<<<<<88<8<8888288888877777t8tt9t8t7t7tttttttty",
"<##<<<<<<<<<<<<<<<222222<888<88<2828444488897777666666p6996y6p666",
"<<<<#<<<<<<<<<<<<<2222<688<8<88<828244448888787766666666y96666p66",
"##<##<<<<<<<<<<<<222<4848<8<88888228448898988989666666p6yy6y6666p",
"<<<<<<<<<<<<<<<<<22284448<888<<888888888889889886666p6666666p6p66",
"<<<<<<<<4<4<4<4<<<<444447&8877778888888898t8t9t866p666p66p6p6p6pp",
"<<<<<<<<<4<4<4<4848444488888888888888888998t8t9t6666666pp6p6p6p66",
"<<<<<<<64<4<4<4<8444488888888888888888888899t9t866p66p6p6p6p6p6pp",
"<<<<<6<<<4<4<4<<4444488888888888888y888yty8t8t8t6p66p6p6p6p6p6p66",
"<<<<<4<4<4<4<4<47>777>77777777778y8y8yy88yy89yyyp6p66p66pppp6p6pp",
"<<<<<44<4<4<4<4<7>7>7777777777779899989yy9yyyy866p6pp6pp6p6pp6p6y",
"<<<<4<4<<4<44<<47777777777777777y8y8yyyyyy9y8yyyp6p66ppppppppp6pp",
"<<<<<4<4444444447&777777777777778989y88yy8y8yyy66p6ppp6ppp6pp6ppp",
"4<4<4<44444444447777777t77889877ty9t8yy9yyyyyyyyp6pp6pp6pppp6pp6p",
"<4<444444444444477777t98979t8t7tttttyyyyyyyyyyyypp6pppppppppppppp",
"4<4<44444444444477778t7789t8t9t8tttt9yyyyyyyyyyypppp6pppppppppp6p",
"<4<64444444444447777t777ttttttttttttyyyyyyyyyyyy6p6pppppppppppppp",
">>>7>7776677777798877777988y9yy8y866666p6p6p6ppppppppppp6pppppppp",
">>>>>>>>88777777t89877778y9882yy6yp6p666p6ppppp6p6p6p6p6ppppppppp",
">77>7777888777778t987777y889y99y66666p6p6p6p6p6p6ppp6ppppppppppps",
">>>>7>>788777777t9887777y9y8yyy8y6y66666p6p6ppppppp6ppp6pppppsppp",
"987>77>777777777t8t889888yy8y6yyp6p6p6p66p6ppppp6p6ppp6ppppspspss",
"8977>77>77777777tt9t889y9t9yyyyy6p6p6p6pp6ppp6p6ppppp6ppppppspsps",
"999>9,9,99999999tt8t9t89ttttyyyyp6p6p6p66p6p6ppppp6pppppsppspssss",
"9899,9,>99999999ttt9t8y8ttttyyyp6p6p6p6pp6p6ppp6p6ppp6pppsspspsss",
"98887>77>7877777t9t9t8ttttttttttsttitisittatataypyppppppppspspsss"
};
