/* XPM */
static char *_3cd632071ee40b2eca649bd05ae65022xXnI3zN5J0eeIII[] = {
/* columns rows colors chars-per-pixel */
"65 65 32 1 ",
"  c #A3A2A0",
". c #A6A5A3",
"X c #A7A6A4",
"o c #A8A7A5",
"O c #A9A8A6",
"+ c #AAA9A7",
"@ c #ABAAA8",
"# c #ACABA9",
"$ c #ADACAA",
"% c #AEADAB",
"& c #AFAEAC",
"* c #B0AFAD",
"= c #B1B0AE",
"- c #B2B1AF",
"; c #B3B2B0",
": c #B4B3B1",
"> c #B5B4B2",
", c #B6B5B3",
"< c #B7B6B4",
"1 c #B8B7B5",
"2 c #B9B8B6",
"3 c #BAB9B7",
"4 c #BBBAB8",
"5 c #BCBBB9",
"6 c #BDBCBA",
"7 c #BEBDBB",
"8 c #BFBEBC",
"9 c #C0BFBD",
"0 c #C1C0BE",
"q c #C3C2C0",
"w c #C4C3C1",
"e c #C7C6C4",
/* pixels */
";,-;,;34:---37,,;,:1,,-,33;%-37,3:;--:,-,:;,**,;,:3<11;<1,:,,1<,<",
"434313-:,-%*%&731;,3133,-,31,;;,53,;-;131111,,3<,1&--%:,3,*-,11,1",
",;;*;,-,35851,:14-,11<3-&-<3,;-,;;,11<:&-%%-,;%%*&3,17,4,<,;-&;,1",
",1:,1:-&-%&#;3;31*-;,,:@,:--;,<,<11<--<31,1<34;,,,,:<<:;-<34<,:;,",
"-,:37797:<383,4,;775,-;5,,,,,::;*%%,443,;31%&,:,<3,*-:,13573<,153",
"3,,---%*4431;*--<1%&;,%*,-:11;&-1353,-;,31,,<3<1,O#O-7;;,;----;:-",
"--<<5713:&%#18,355,,471<,--,,::,;--,,,,,<;-33<,,39873-34:::157<*,",
",<;,<::-&,<3-&,:%-3<<:13<<:;;,13,&&:341:*<3,*:71;-,:,,O%389<%O&3,",
",,,,:;;,;,43:;;;%*;,-&-;-,,<1,,,743331<,*13:-:3,:---:584# o#10,*;",
";:,11334<;%%383494<<1<1-*::;:,:,;:,3,-:33-:87--,7753:---5894;*-,,",
"3<,&%@%*081-;-&373::,,1,33,**;,3;@O*:,:33-*33,,1%Xo*,<:*;,*::-3,<",
";,<311<<&%,<,:,,-;<53,,,;154431,41,3,&-,:,-##-1:-,78,*-3,3,1,-1,,",
"31<<<334<-<3,;**:;:3<-*&,3<:;:,,,11,&%*<551,;:<:<,:;*-14,:;;,133<",
"-;,133:-*,,,<,,83:-:;&-;-,,,,;--&-:<453:%%%,1<4435771,;&1373:;*;-",
",--*-**%;,::31%*,,133,3<1<:,,<3775,&&-:,,<<1:-:-,:--*:33-%&-17<:;",
":,:,,,,,1;,,:11,;,--%-<,<,:,,;*;4543,,:;:474;*::;:,,:,,,131,;-;,,",
",,,<13<,,;<1,;,<,;--*-:,;,;<,,4,-*-<33,,;*%%:3;:,:,,:,,,,1,:;-;;:",
"1,,*%%;<:-:;-;--;,<<33<-,,:,,185::;-**-,<:,;:,-;*,-,,-3,-@*&:4,1<",
"--:341;-;,<<<373,,:-*;:,:<1<:--#-:343;--47,,;*3,73731<-*,533:-45,",
"131,-*;371,;<3:%-,,-:<33751,:,333,&*:1,,%%,,-;;;-3:,,;571:;:<1-&-",
"133134,%%*,,*%-,;-**,1<-*-,<31;-&-,,:;::;<-,,:94<;,:37&%&%;:<1:;-",
";;-%%-<33<1555444<;-;,;-::::,<--,471-%-,,:1<,<;;15,;-&,3591,*%483",
"&-:,13,%-;,<<11<*;,,,;;,:;::1313-*&-<54<<<:;;---,-;%:<-1%O-:50,:,",
",,,:,,,<,,33<31;%-,31:;::,<;,;O%133,-&%#&-<,13;3,-%%13&%,73,@.#*-",
",,;-**:3,<,,:<33,3,::;-,;,:,:,<3-XO#,7,---::;;-;<141--<5*%#*<43:1",
";--,1<,;<:-&--,34:;;*:3:1,:;:;;-353,-%,33,;*%&-,;,,::&OX;3873:,3,",
"1,,-**:733131:&#&:;;1,-:;,,,;,14*%::,3&-;,345454;%%&;373,&##*;-%-",
":;:31,--,;--;,:-,-;;-;:-,,,,,-%@@-<31,341:-&&-:<43:&-*%-*,11,;,<:",
"---13:-;1,-%*,3<*:31;*--#&-----;<,%*;-,*:,,,,:--;-:1:,3<<:-*-;::;",
"-*-&#%-,<1,;-;-&<<&&33,:5551,;;,<-,--,-,-*-*-;-;,1:-:,;,;;,333,;-",
"<<3577,-,,<,1335:-13-:1,@O%-13:**<-::*5533<,,,,:,;,,,<1;<,;-;;::,",
";,<<<1<,::,31,15e5%O;1;&3773-#*:*-;--&&-%%%%--::-::;;,,3;;--&-:31",
":::&%*-,;::1,,7;O%7w3,7,&@O-153<1,;,:,43311343,:,;--;:::,,<<<111<",
"33333<,-;,<-,,#&<1-*,3X*;11:%O-1,:-::,<:;,;-;;--&*--;;:::,<<,:::,",
";;;;;,,;<,-,-:4,;-31&O81,-1135-%-;:;&*,,13311,-:::,<,,,<,,-*%%-,;",
",:-*&%**5,:#-:%<53;*;3*,*,---%;-&,11-O%#%-;;:;-;;,<,:;;:,,311,,;-",
"1,,,13,,%&:;1<@*&*--;,&*,-3,14:;&-,3315313,;-----;;;---::;--,145<",
"<<1<<:;-,-&,;:71,,-&,&1-*,-;;-3<,:--&-,<;,,-,113<,,:;-;,;;;,::&%*",
"%&:,-*;<347,1<%**&39,5;;,----;--&:,1:-,:-,,:,,,;1,:-;;:;,;;;,1331",
"-,333,,<14<3--3---;-&%,,:--,1:-%-,<4413,:,,*-;:,,-**-::;,:;;:::,;",
"<11<---:;;:--*,111,-;;,1:;,1<3543:----:<,,::--,1;;;,,,;;,:;--:;*-",
",-%;%%4-<:*1:,&;,,;,78:;,-;:;:3<,-%*;:,;<:,<,,;-*-:,;;;::<<,;:,<<",
"3,:;,313;:1,3,1<,,*;%%<,:::,-&&%--:133<,<,,<,:;%*-:,:--;1,----*%-",
"<*&#<7%&-,:;-1,*%*,-33#&--,,,,3331:-*-<55,:3:@%-1,,<1<,;:,,,;-,<,",
"1<,,%%131;%*-,;,73--%&31:<<;-%%*&-,,,-&#@-:--<41<,:,,;---&%*;,;-*",
"--<33,*%#,071&,4-&%%13%%-;----:1,<11<3343-;75;*:*---&%&-:<31;*-,4",
"--,*-:*,71%*-5,;<3<<,,7785:%#%@&-:-**;143,<43;-**-;:--;,,,:,1,,;O",
"-*&<;:91O@,31*-:,34<-%OO&;:<74,-<,,:,<:&*,1;*,,---;:::,<-%%*,,-*5",
"%%*-,*O;07,#*3,:%#%&-,13::-%%&;,,:,,<<-%;<1--,<;;::,,---,,<---,,O",
",;--*-4,@-45,#<&*--;<<:-*:7853;-@--,-#;31--,,*-,;-,:;-&;;,<,----7",
"*-3553<<7:O@-4%-553,--:3;;O#@%,13,41:,-<4;&;,,;:*;&---33;-&,15,*%",
",-%-o.,&*:585;<,;&%&:,,-,-,,,3--:,**-;<*;,1<143-:-1:--%-,:,,::-,1",
"<3,@:7-,,,;&OX:<<,,,31:--,*,,:<;-&:-,7,-%;1,-*;,<<%**&<<;-*%;--*&",
"3<:-,<3<;;*-30*--;;-&-<51:<*%-%,15<;#.%;*:351,--,;3111-;1,3,<:,,:",
":;,-*&O:<387,@3;:;---;-**;;,,,33,*;4ww51<,%@#-,:%-;,1:1<*%%*<34<,",
"%*%-%%5<&@X%:4;,;;,:;--*;;,,<,&#&*-%OO-,;--,,:;,-*--%%%%,551&%%&*",
"--,<,;*#143,@O&;&;:--;,,,::---,33733,-:,--144,*-;---,17<*@O%,1,*,",
"-,333113*%%-343,1,--;:,,,,:--;--&@#-483,;;;--;*;:,*%%,#,377<%O-3,",
",:::-;--1475,-;1::,,,;-----,,,<1578<%#O&%-,;;:;,:--**#5<--*:<,,;,",
";;--*---:&%&---*-,,::133,<,-#%&*%O%%-<,153:*;,---:133,%-,:,:;-*-,",
"*:131,,,--;,;&&-;-%#*;-#&,<*%,<:-,133,,,&&-:<,-;,,:11<&;:,:,:;,<:",
"71*%*;,,,,<<,;,143<33<;-:::::;--*-%%%#--3,,*%#O*,#@%*%4;@OO&,<:*;",
";**:11;%%&-&&&-<;;-*-*:13::3<;*,1,---,<3%@#-<3,31<,,,4#-4773-%&::",
"%-;,;----:,,333<,,,--;-*&:;%%*;:1:<143%o<47,-%%----,,-,-*%%&*-:<,",
"-:13,*-;:::,,,-&*;:<<<<-*,,*&,1<::,;-*4<*Oo%;1*&&**-%*,,----;:143"
};
