/* XPM */
static char *_1389ada2b904eecd69637ec0dca0592aF1BMMR6Lau1y9SC[] = {
/* columns rows colors chars-per-pixel */
"65 65 231 2 ",
"   c #010101",
".  c #0B0200",
"X  c #070801",
"o  c #0D0A02",
"O  c #020009",
"+  c #0C0809",
"@  c #110300",
"#  c #130D03",
"$  c #1B0D00",
"%  c #110E08",
"&  c #0F1005",
"*  c #141205",
"=  c #1D1604",
"-  c #1D1905",
";  c #15140B",
":  c #1A150B",
">  c #161909",
",  c #1D190B",
"<  c #171A06",
"1  c #1E1B12",
"2  c #1E1818",
"3  c #181510",
"4  c #211703",
"5  c #211A04",
"6  c #291B00",
"7  c #21170B",
"8  c #211A0B",
"9  c #281F0E",
"0  c #231D13",
"q  c #231E19",
"w  c #281E14",
"e  c #1F2113",
"r  c #2B2305",
"t  c #26240A",
"y  c #292307",
"u  c #352300",
"i  c #382600",
"p  c #3B2D00",
"a  c #352C04",
"s  c #252216",
"d  c #292315",
"f  c #26231A",
"g  c #2B241A",
"h  c #2A281D",
"j  c #2B2916",
"k  c #312D15",
"l  c #312C23",
"z  c #453705",
"x  c #4B3C11",
"c  c #5A4704",
"v  c #534613",
"b  c #534A14",
"n  c #574D1A",
"m  c #564D10",
"M  c #614D09",
"N  c #614E02",
"B  c #6B5905",
"V  c #675608",
"C  c #6C5D15",
"Z  c #6B5B1A",
"A  c #7F6F0F",
"S  c #7D6C1D",
"D  c #4F4A26",
"F  c #6A5C2D",
"G  c #7A6A26",
"H  c #7B6A29",
"J  c #766923",
"K  c #776D36",
"L  c #8A750B",
"P  c #806F1D",
"I  c #867314",
"U  c #917D1E",
"Y  c #836D0A",
"T  c #857424",
"R  c #887A2E",
"E  c #86772B",
"W  c #947C22",
"Q  c #877B37",
"!  c #917F35",
"~  c #8B7F4F",
"^  c #948122",
"/  c #96842D",
"(  c #9C8A2D",
")  c #998428",
"_  c #93833C",
"`  c #988537",
"'  c #8E823A",
"]  c #A18C2F",
"[  c #AC9623",
"{  c #AC9631",
"}  c #BEA939",
"|  c #BBA02D",
" . c #D4B41D",
".. c #DAB41E",
"X. c #D6B91D",
"o. c #DABA1E",
"O. c #CFB32D",
"+. c #D5B523",
"@. c #DAB624",
"#. c #D6B923",
"$. c #DBB924",
"%. c #D5B52C",
"&. c #DAB62B",
"*. c #D6BA2B",
"=. c #DCBA2B",
"-. c #C4AB38",
";. c #D5B531",
":. c #D7BA32",
">. c #DABC33",
",. c #D4BC3D",
"<. c #DBBB3B",
"1. c #D9B73D",
"2. c #CFB731",
"3. c #E0BA25",
"4. c #E1BD2D",
"5. c #E1B727",
"6. c #E1BE3E",
"7. c #DCC13C",
"8. c #E4C13D",
"9. c #ECCB3B",
"0. c #EAC737",
"q. c #EED23D",
"w. c #F3D23F",
"e. c #F1CC3D",
"r. c #9D8B41",
"t. c #8D8242",
"y. c #AE9C45",
"u. c #A89745",
"i. c #B29C43",
"p. c #B09E4C",
"a. c #A99B56",
"s. c #B19F55",
"d. c #A18F45",
"f. c #BCA544",
"g. c #B9A547",
"h. c #B3A252",
"j. c #BAA85E",
"k. c #AEA059",
"l. c #A79A6D",
"z. c #BDB062",
"x. c #C3AB46",
"c. c #CCB749",
"v. c #D4BB43",
"b. c #DABC43",
"n. c #D3BB4D",
"m. c #D9BC4B",
"M. c #D0B647",
"N. c #C1AF5E",
"B. c #CCB75A",
"V. c #D1B75B",
"C. c #D3BC5B",
"Z. c #D5B954",
"A. c #CEBC63",
"S. c #C7B363",
"D. c #D5BC63",
"F. c #CBB86F",
"G. c #DDC142",
"H. c #DBC34C",
"J. c #D6C141",
"K. c #DDC554",
"L. c #DAC25C",
"P. c #ECCD44",
"I. c #E3C64A",
"U. c #EDCE4B",
"Y. c #E3C644",
"T. c #F3CE44",
"R. c #F3CF4C",
"E. c #EED244",
"W. c #EED14C",
"Q. c #F2D345",
"!. c #F4D345",
"~. c #F8D346",
"^. c #F4D34A",
"/. c #F9D44A",
"(. c #FBD84B",
"). c #F6D848",
"_. c #ECCE52",
"`. c #E3C854",
"'. c #F1CF51",
"]. c #ECD253",
"[. c #EDD45B",
"{. c #EFDB5E",
"}. c #F2D452",
"|. c #F1D555",
" X c #F2D353",
".X c #FAD553",
"XX c #F5D954",
"oX c #F3D65B",
"OX c #F4D85B",
"+X c #FADA5B",
"@X c #FAD857",
"#X c #D5C263",
"$X c #DAC568",
"%X c #D6C67C",
"&X c #DBC47C",
"*X c #DAC778",
"=X c #E2CB64",
"-X c #EAD26E",
";X c #EBD46E",
":X c #EDD46F",
">X c #EED86C",
",X c #E2D06A",
"<X c #F1D563",
"1X c #F3DA64",
"2X c #FADB64",
"3X c #F1D66C",
"4X c #F5DC6D",
"5X c #FBDD69",
"6X c #ECD471",
"7X c #ECD778",
"8X c #F5DC75",
"9X c #E6CF72",
"0X c #FDE26C",
"qX c #F8E168",
"wX c #EFE174",
"eX c #F3E271",
"rX c #FAE274",
"tX c #F5E37B",
"yX c #FAE27A",
"uX c #FFEB7C",
"iX c #D9CA85",
"pX c #EDDA84",
"aX c #E0C784",
"sX c #FFEC85",
"dX c #FFEB8B",
"fX c #F5E487",
"gX c #FFF08E",
"hX c #FFEC94",
"jX c #FFEC9B",
"kX c #FFF09B",
"lX c #FEEBA0",
/* pixels */
"                    O O O .                 O   O     O                                                                           ",
"                                                                                                          X     O                 ",
"                            o o o # o # o o o o # o # o & o o o o & o o o o o o o o % o o o % o o o o X       O                   ",
"                        X   3 1 , 8 , 8 8 8 8 8 , 8 , , , - 8 5 , 8 8 , 0 , 0 , 0 , 8 , 5 , 1 , 8 , 1 ;     O O O                 ",
"                  O O     X ; > : 7 = = 4 = - - - - < - - < - < , = = = - = = , = , = = = = , = , , : o                           ",
"                O O     O   ; 1 , 5 5 , - , 5 < < - - < - - - > , = 8 - , , , 4 7 = 5 , 8 - 5 5 7 8 0 %     X                     ",
"  O                       . 0 d d s g d g s s s d s g s f f f f f f d f f d d f s f d f d s d d w w w : O O                       ",
"                        O   . . . .     . . X .   . X . .   . .   . .   . .   . . . . .   .   . . . . .                 O X   O   ",
"                o X o o +   F E G G H J G G G G G G H G P H H H H H H J J J J J J H H J H C C C C C Z x   % X o o X       . O     ",
"                ; 8 7 : q . F.7X;X6X6X;X;X:X;X;X-X-X-X6X9X:X:X6X6X-X6X6X6X-X6X;X6X6X-X6X-XL.n.n.c.B.#X! . f 3 2 3 ; X           O ",
"          O O   1 , = 8 q . F.5X].|.}.}.|.|.|.OX X X X X'.oX^. X X X].}. X^. X.X'. X X X).6.;.&.7.2.K./ . h 1 = 0 *           O   ",
"        O O O   2 = = 5 7 o C.@XQ.Q.E.Q.!.Q.E.Q.Q.!.!.~.T.T.T.!.^./.!.Q.!.!.w.!.T.~.~.T.~.4.@.@.o.+.<.^ @ g 7 : , *     X     O   ",
"          O O O 3 8 5 - 0 . C.@XQ.w.w.w.!.Q.Q.^.!.^.).^.^.).!.^.R.^.).R.Q.Q.~.!./.~./.T.~.4.@.3.X.&.G.W @ w : 7 8 * X     .   O   ",
"                , - = = 0 . C.@XQ.~.~.Q.Q.^.^.W.^.W._.W.^.].R.^.^.^.).Q.!.!.!.Q.^./.^.!./.4.X.@.$.&.6.W @ g 7 : 0 *               ",
"    X X o X   X , - y < e @ C.@X^.^.^.W. XoXoXoX[.<X<X<X<X<X<X[.oX^.U.Q.Q.~.Q.Q.!.^.!.!./.=.X.$.$.&.b.^ . d = , , *   X . . X     ",
"  o ; : , > < > - = - - s   D.@X^.^.W.}.0XuXsXsXsXsXdXdXdXdXdXsX0X.X^.^.Q.Q.).Q.^.^.^.!.!.0.X.$.@.>.7.U @ d - - 5 , ; 2 7 : : ;   ",
". . , 5 : , , < - - - = s . #XOX^.^.^.].8XhXhXhXhXhXhXjXjXjXjXdXuX_. X^.^.!./.~.R./.!.!.~.4.@.$.$.=.7.W . g 5 = - > < , - - - = . ",
"  . s - , - < - - 8 - - 0 . V.@X^.!.).].sXhXjXjXjXkXjXlXlXjXjXhXyX_. X^.!.!.T.!./.R.~.!.!.4.@.$.@.&.<.U . q 4 4 - = - - - - , =   ",
". . , - t < 5 5 - - - < 8 @ C.+X^.!.^.].8XhXjXjXjXjXjXjXlXjXlXjXuXU. X/.!.!.~.^.^.R.).Q.~.0.@.$.@.*.G./ . h , - - - 5 - - = 5 ,   ",
"  o t y y a r r 6 k t t k . Z..X^.!.Q.].8XhXjXjXkXkXhXhXjXjXjXdXuX X^.R.!.!./.T./.~.Q.w.~.=.@.&.4.*.J.^ o k y r y y r r r r r -   ",
"  O o o   o . @ @ . . o @ @ m..X!.Q.E.W.yXjXjXlXjXkXhXdXhXdXdXdXrX XR.!.!.~.~.!.R.^.!.!.~.4.@.$.@.&.7.L # . . @ @ @ . o @ @ @ . . ",
"  D iX%X%X*X&XiXaX&XiX&X*X$X[.).^.).W.W.8XjXlXlXlXhXfX;X3X3X<XoX+X'.^.^.T.~.~.~.!.^.!.Q.!.=.@.$.&.#.*.H.$X*X*X&X&XF.N.j.S.N.F.l.  ",
"  D pX>X1X1X{.OXoX5X<X2X<X+X).E.).^.W.].yXkXjXlXjXhXtX`.].W.Q.^.U.^.^.^.!.!.!.~.^.^.!.!.).0.@.$.#.=. .q.XXOXOX2X2X_.,.7.7.,.L.j.  ",
"X v >XW.W.E.q.q.~.T.^.T.T.!.~.Q.^.^.^.].tXjXkXlXhXgXuX].^.Q.!.!.^..X^.!.~.~.!.!.!.^.!.Q.!.4.@.#.#.$.@.0.).w.Q.Q.~.0.X.o.X. .7.g.. ",
"  v 3X^.^.!.!.w.~.~.!.~.!.~.Q.Q.Q.!.Q.].rXhXjXjXhXdXyX].^.^.^.T.^.^.^.!.T.!.~.!.!.).^.Q.!.7.@.$.o.$.@.0.(.T.T.!.~.e.@.$.@.&.6.x.. ",
". v 3X^.^.!.!.!.T.T.^.U.U.P.Q.Q.!.!.Q.W.rXgXhXhXhXdXyX].^.R./.!.R.Q.~.^.~.~.~.!.!.).^.Q.w.0.@.$.o.3.&.Y._._. XU.~.0.X.o.3.@.6.f.. ",
". v :X X^.^.^.^.eXwXwXwXtXrX+X~.^.R.^.].0XsXsXsXdXuX0X X^././.!.~.!.^.^.!.~.!.!.!.Q.^.^.Q.=.X.$.@.@.*.[.yXfX8XrXqXQ.#.=.&.5.6.f.. ",
"  v :X X^.^.W.[.^ ^ H Q Q P m..XR.).^.^.OX1X1X1X1X1X@XW.^.T.~.^.!.!.!.!.^.!.!.!.!.Q.Q.Q.!.0.+.@...4.<.[ S Q Q Q Y [ 7. .5.&.6.x.. ",
". v 6X}.Q.^.|.8Xa X   . . . C..XR.~.~.~.E.].W.W.W.^.^.Q.!.!.!.~.!.!.!.!.~.R.!.!.!.Q.).Q.!.4.@.$.3.&.<.L . .   . @ P `.*.&.&.>.f.  ",
"X v 6X^.^.W.oX7Xn X 1 2 2 . D.+XT.~.w.w.^.^.^.Q.^.^./.!.w.!.!.!.!.!.!.^.R./.!.!.Q.!.^.Q./.4.@.$.@.+.G.W . h q w . ' H.+.+.&.8.f.. ",
"  v 3X^.Q.W. X7Xb X * . o . B.@X~.~.~.!.^.^.Q.Q.^.^.^.T.~.!.!.!.!.~.!.^.^.^.!.!.!.Q.!.Q.~.4.@.$.=.&.b.W . ; . 8 o ' H.O.=.%.8.} . ",
". v :X XW._.[.7Xb X - = > . #XXXR.!.!.~.^.^.).Q.^.).^.~.!.!.^.!.).Q.!.!.^.^.!.!.Q.!.^.^.).4.@.$.$.@.b.W . 9 $ r . Q K.O.&.;.b.g.. ",
"  n fXrX8XrX8XfXz . . . o @ c..XQ.!.!.!.~.~.).Q.^.^.!.~.!.!.^.!.!.!.!.Q.).!.).^.Q.^.).^.^.4.@.#.o.$.7.L o . . @ @ ! ,XK.`.K.=Xj.. ",
"  k t.` ` _ _ _ s.s.a.a.s.u.`..X^.Q.!.~.T.T.!.).^.^.!.!.^.!.!.!.^./.Q.Q.Q.Q.Q.Q.).^.}.^.!.4.#.$.o.=.>.| / r.` ` r.` T T T T E H   ",
"      .   . . @ 7X8X4X5X3X1X@XR.).P.Q.~.!./.Q.E.^.Q.!.~.T.~.~.~.T.R.!.Q.Q.~.!.!.E.W.Q././.4.#.$.@.5.&.4.b.G.b.m.9Xp.@ . . . . .   ",
"  % d g g d 9 p 9XoXR.R.^.).R.'.^.^.).Q.Q./.Q.Q.Q.Q.!.!.R.~.~.T.~.~.!.!.Q.w.!.!.).Q.!.!.!.4.$.o.@.@.5.5... .@.%.m.p.. l 0 w d 2   ",
"  . 0 = - , = 6 9XoXR.^.).^.^.).).Q.!.Q.U.^.!.!.Q.Q.).W.!.~.~.~.!.!.^.^.Q.!.!.!.!.!.!.~.~.4.$.$.$.$.@.5...o.5.&.H.y.  s = - 8 >   ",
". o = = < - = 6 7X[._.^.U.^.U.R.'.R.Q.Q..X^.Q.!.^.^.W.).Q.).!.~.~.Q.W.^.!.~.~.!.!.~.!.T.~.4.+.#.$.&.+.@.#.$.&.;.G.y.o h > < , :   ",
"O X : 8 - 5 4 4 pX4X3X5X5X5X+X2X+XqX2XXX}./.T./.^.!.Q.^.Q.w.!.Q.!.!.^.^.!.~.~.T./.(.T./..XY.<.Y.7.G.G.Y.<.7.Y.b.$Xh.. h e , 8 >   ",
"    > & * * @ = a.s.y.g.i.i.i.i.i.y.g.{ ,.@X~.~./.!.W.).~.w.Q.Q.^.).^.^.!.~.T.e.0.0.0.9.I.| ^ ( ( ] ( ( ( ] ] / d.Q   1 o * * *   ",
"O                 . . . . . . . . @ . @ ] 1XR.~.~.T./.^.!.!.).^.!.~.Q.).^.Q.~.$.o.X.$.%.v.c . . .   . .   . . .   X               ",
"          O O X s d d w q f s s q q l . u.rXR.~.T././.T.!.Q.Q.^.!.Q.).q.T.).w.$.o.o.#.:.Z.M o f s w f q s s q q 0 3 X     O       ",
"    .           - - 5 = = , < : > 1 f . u.1X^.T.^.T.T.(.T./.~.Q.^.).Q.Q./.^.!.$.o.=.X.:.M.N . 0 - 5 7 7 7 4 = - 8 *       O       ",
"                , 4 , 7 5 - - , , : f . u.4XU.^.^.^.T./.T.T.~.).Q.).Q.Q.~.!.^.&.*.+.*.:.n.N . 0 = 5 7 7 5 4 5 = - <   X O         ",
"              O 1 , 8 7 0 7 8 5 8 : g . a.tX<X{.[.1XXXE.(./.).Q.^.P.!.~.w.(.R.<.7.,.7.H.V.c @ 8 , = , 8 5 5 , = , <               ",
"O           O   3 : : ; : ; ; : * = 0   t.iXS.A.A.B.H.XXT.T.^.!.E.w.w.e.e.T._.-.} p.g.h.j.b   s : : ; ; > < : : : ;           O   ",
"              O                       X . . . . . o P 5X'./.Q.!.q.X.+.&.@.1.x.$ X . . . . .                                   .   ",
"                O             O     O   3 f f 0 h . R 8X'.T.^.).w.#.@.@.&.1.D.i - s s 1 q o   O         O                         ",
"                                    O   * , , : s X R eXW.).!.^.T.@.3.&.&.1.B.u - , - - 7 o                                       ",
"                              O O       * , 7 > s   R eXW.Q.)./.T.@.@.$.=.1.A.6 - - 5 5 8 o             O                         ",
"                                        * 7 7 7 s . R 8X^.Q.~.~.w.@.#.#.@.1.D.u = - - - , .                                       ",
"                                        * 8 7 5 s @ R 8XW.w.w.w.9.$.$.$.$.1.V.u 4 - - - : o               O                       ",
"                        O           O   % 8 5 - s . P `.%.&.$.#.=.+.$.$.3.<.Z.u - 4 4 - : o                                       ",
"                                        # 5 4 - s   S K.%.=.$.$.#.$.$.$...>.V.u = - - 5 7 o                                       ",
"                              O O       * 5 , , 0   S K.%.&.@.$.=.=.$.o.@.1.V.i 4 4 7 : 7 o                                       ",
"                                        * 8 5 5 s . S K.%.&.@.3.#.=.$.$.&.1.V.u 6 9 8 8 7 o                   O                   ",
"                  O         X           @ $ * $ 4 @ S K.%.3...3.o.$.o.#.=.b.A.6 o * * # $ o                                       ",
"                O   O       X O   . X   4 z u p p $ Y I.&.$.3.@.=.o.$.$.+.1.n.z p a p p u $ o   . X .                             ",
"                          X ; : 1 ; 1 . Q N.x.x.x.-.%.*.@.3...$.$.=.#.@.4.&.1.-.| 2.-.g.z.b X , : ; : %                           ",
"                  O         ; , > 5 s . r.L.<.7.7.:.#.3.@.@.$.3.&.=.=.X.....@.4.7.7.7.J.C.M X 1 , , 0 %                           ",
"                            < : , - , . ` `.O.*.+.=.#.$.3.@.$.#.$...3.3.3.5.4...@.$.*.%.Z.M . 1 : , , &                           ",
"                    O       ; , 5 5 s . ` v.&.$.@.=.@.$.&.&.&.#.=.$...#.o.X.&.@.=.@.$.1.Z.M   f : , 1 * X                         ",
"                O O         < > * = q @ ! I.>.&.&.=.&.&.&.&.>.*.&.&.*.#.*.*.>.&.&.=.&.1.Z.N   1 - > : *                           ",
"                            ; , 0 : w . ` C.n.v.b.v.J.v.b.b.v.v.v.H.,.v.J.v.v.v.,.b.,.Z.D.M X e , , : %                           ",
"                            X o . X o . x Z V B B B B B B B B B B B B B B V B B B B B C Z 6   o o . o X                           "
};
