/* XPM */
static char *_03ad5b7e60d4535e9165189e2e29262dX9sVK7Ba191EeDn[] = {
/* columns rows colors chars-per-pixel */
"65 65 256 2 ",
"   c #010400",
".  c #060B03",
"X  c #091501",
"o  c #171908",
"O  c #1E1B18",
"+  c #130B05",
"@  c #261D18",
"#  c #2C1209",
"$  c #1A2414",
"%  c #132C09",
"&  c #282419",
"*  c #33271B",
"=  c #283319",
"-  c #2E2D12",
";  c #123532",
":  c #2C2522",
">  c #2B2927",
",  c #332C23",
"<  c #352E2A",
"1  c #382C26",
"2  c #2C3827",
"3  c #35332B",
"4  c #3C332C",
"5  c #363728",
"6  c #3B3532",
"7  c #3D3B3B",
"8  c #383834",
"9  c #2C3636",
"0  c #231E21",
"q  c #42352D",
"w  c #453B2C",
"e  c #443B33",
"r  c #4A3D35",
"t  c #443D3A",
"y  c #463A36",
"u  c #553938",
"i  c #532E2B",
"p  c #6E2A3D",
"a  c #502820",
"s  c #11461A",
"d  c #28431A",
"f  c #295417",
"g  c #36520F",
"h  c #0A4639",
"j  c #374529",
"k  c #395A2A",
"l  c #3B4738",
"z  c #3E5634",
"x  c #274B30",
"c  c #3D6626",
"v  c #3D6A2D",
"b  c #326018",
"n  c #47452A",
"m  c #444334",
"M  c #4B4137",
"N  c #44413B",
"B  c #4C433B",
"V  c #444B3C",
"C  c #474D36",
"Z  c #52453D",
"A  c #53493E",
"S  c #534533",
"D  c #465639",
"F  c #56553B",
"G  c #47673A",
"H  c #497437",
"J  c #547231",
"K  c #657636",
"L  c #4D5711",
"P  c #183D42",
"I  c #433D43",
"U  c #145A55",
"Y  c #114D49",
"T  c #384848",
"R  c #28554D",
"E  c #255656",
"W  c #2E504C",
"Q  c #116957",
"!  c #2E724F",
"~  c #066C67",
"^  c #186A67",
"/  c #077777",
"(  c #177976",
")  c #0F746A",
"_  c #297675",
"`  c #0F5D61",
"'  c #444244",
"]  c #4C4542",
"[  c #4C4B45",
"{  c #4C4B4C",
"}  c #474848",
"|  c #544542",
" . c #544A43",
".. c #5A4C45",
"X. c #554D4B",
"o. c #584948",
"O. c #4C524C",
"+. c #4A5846",
"@. c #53534D",
"#. c #5C524C",
"$. c #525B4C",
"%. c #565846",
"&. c #4E4E51",
"*. c #524F53",
"=. c #4B5552",
"-. c #545354",
";. c #5B5453",
":. c #555A54",
">. c #5B5A55",
",. c #55555A",
"<. c #5A555A",
"1. c #565B5B",
"2. c #5C5B5C",
"3. c #655B4B",
"4. c #615D5D",
"5. c #635954",
"6. c #6D4C4C",
"7. c #586647",
"8. c #597848",
"9. c #5D625D",
"0. c #596657",
"q. c #4D6C4A",
"w. c #696748",
"e. c #61615D",
"r. c #66675B",
"t. c #687A56",
"y. c #707750",
"u. c #5E5E62",
"i. c #5E5964",
"p. c #475C64",
"a. c #615E63",
"s. c #625D69",
"d. c #5E6162",
"f. c #596866",
"g. c #516D67",
"h. c #606062",
"j. c #616163",
"k. c #6B6665",
"l. c #646965",
"z. c #65646A",
"x. c #69656A",
"c. c #6B6B6C",
"v. c #676A67",
"b. c #697667",
"n. c #777969",
"m. c #6C6C72",
"M. c #716E73",
"N. c #747374",
"B. c #6F7172",
"V. c #903B59",
"C. c #884657",
"Z. c #B35175",
"A. c #926C6B",
"S. c #AA6B7E",
"D. c #896461",
"F. c #658539",
"G. c #62822D",
"H. c #58893B",
"J. c #08817B",
"K. c #1B8775",
"L. c #2B8A70",
"P. c #5A8748",
"I. c #5B8655",
"U. c #668B4C",
"Y. c #67954B",
"T. c #688856",
"R. c #699555",
"E. c #769B58",
"W. c #75914E",
"Q. c #7BA65B",
"!. c #71A85B",
"~. c #4F916A",
"^. c #6C8765",
"/. c #778867",
"(. c #789868",
"). c #7B8974",
"_. c #7A9673",
"`. c #6C9367",
"'. c #79A665",
"]. c #79AE6E",
"[. c #5BA071",
"{. c #8C9655",
"}. c #82A659",
"|. c #84B35B",
" X c #838873",
".X c #859B79",
"XX c #8B996E",
"oX c #85A86B",
"OX c #87B76A",
"+X c #86A678",
"@X c #97A679",
"#X c #8AB973",
"$X c #95B878",
"%X c #9BB36C",
"&X c #AAB272",
"*X c #A49B7C",
"=X c #8CC769",
"-X c #95C878",
";X c #9AD479",
":X c #92CB71",
">X c #ACC877",
",X c #83C45E",
"<X c #CCC87F",
"1X c #037D83",
"2X c #1F7C81",
"3X c #AA7881",
"4X c #D36792",
"5X c #D65D90",
"6X c #058787",
"7X c #059896",
"8X c #159797",
"9X c #108B8C",
"0X c #2F9A8F",
"qX c #0B9DA3",
"wX c #11A8AD",
"eX c #25A5AA",
"rX c #70B896",
"tX c #50B79B",
"yX c #6EC7A6",
"uX c #8E9287",
"iX c #AF918D",
"pX c #9ABA8B",
"aX c #94A88B",
"sX c #A5B999",
"dX c #ACB192",
"fX c #AAAEA0",
"gX c #C7A9A3",
"hX c #9BC885",
"jX c #9ED486",
"kX c #8CC891",
"lX c #A3CB88",
"zX c #A5D886",
"xX c #A8C999",
"cX c #B2D090",
"vX c #ABE495",
"bX c #ACC7A2",
"nX c #AFCFA4",
"mX c #B4E1A0",
"MX c #CCD38C",
"NX c #E0DE90",
"BX c #E7E399",
"VX c #F6F69C",
"CX c #EDEA91",
"ZX c #DAD6AA",
"AX c #C9CBA4",
"SX c #E8E7A5",
"DX c #FEFDAC",
"FX c #F7F7A9",
"GX c #EEECB6",
"HX c #FDFCB4",
"JX c #FEFEBC",
"KX c #F6F6B6",
"LX c #EEF0AD",
"PX c #C6E99A",
"IX c #FDFCC8",
"UX c #FFFFD6",
/* pixels */
"x.k.j.2.<.d.z.z.z.d.z.z.u.<.2.j.z.z.i.i.i.f.z.i.z.z.j.u.9.j.r.2.4.4.j.j.j.e.4.2.:.9.m.1.z.f.m.p.a.j.u.j.j.j.j.j.u.j.a.d.j.a.j.u.9.",
">.a.x.x.z.d.i.i.u.u.u.j.j.z.j.j.u.s.d.z.z.d.,.} 7 ' { { [ { ;.4.4.j.k.j.>.2.e.B.c.j.z.,.u.<.f.u.u.j.j.d.j.j.u.j.j.d.d.j.a.9.j.j.j.",
"4.a.j.j.d.z.z.z.i.u.1.<.4.k.a.4.a.a.i.i.i.{ > + + O 6 X.#.[ N N #.] 7 { k.v.4.[ j.>.l.1.m.u.d.u.u.j.u.u.d.2.u.a.a.4.d.a.a.d.d.a.u.",
"k.k.a.2.i.i.i.*.z.m.x.a.2.a.a.5.<.2.a.x.M.M.c.4.} 3 < N #.;.4.k.;.;.;.X.B  .e.B.4.2.j.&.z.d.u.i.u.u.u.j.u.a.9.d.d.j.j.d.j.e.a.d.j.",
"4.a.a.a.j.<.7 0 9 I *.,.;.5.a.4.k.c.k.4.;.,.;.;.{ < @ : 3 4 e  .o.5.r.4.@.| X.@.k.e.e.> ] 2.j.a.j.u.j.u.j.u.j.u.a.j.u.j.d.u.j.d.a.",
"a.4.2.4.z.z.{ 9 9 8 I { { t 7 e t  .o.[ t B B ] X.X.#.#.#.B B A ] t r X.r.4.| < [ [ @.O I j.j.j.d.j.j.j.d.j.j.j.d.d.j.a.a.j.4.j.d.",
"k.a.2.2.j.c.c.j.6 0 > I ;.;.;.4.@.;.4.5.5.5.5.#.5.#.o.A r e Z ..o.o. .B t Z 4.n.7 e X.: X.c.4.a.j.j.j.j.j.j.j.j.j.a.a.9.j.d.d.j.j.",
"2.a.j.a.u.j.u.u.i.8 @ : 6 y t o.o.#.X. ...o. .r r | ...... .Z r B B | |  .| ] r ;. .#.: #.j.;.k.j.j.j.j.j.j.j.j.a.9.j.d.a.j.u.j.j.",
"4.2.u.z.v.j.j.j.s.<.;.6 @ < X.B  . .A e e m Z Z S r y u | | S Z ..u 4 q r Z A ..r A 4 : ] ;.X.c.a.l.j.a.l.m.z.2.j.u.d.a.j.j.9.a.u.",
"a.4.d.j.j.j.u.j.<.N.<.e B #.#.3.A A A M r M w q q , * * q r Z ..Z Z e * @ 1 r w  .5.#.A o.;.' 6 { 1.z.k.x.z.v.z.d.j.j.u.d.a.d.a.j.",
"9.j.j.j.u.2.2.4.4.e. .t X...r | B A  .A B M q , 1 * * q r S Z ..| ..Z 1 @ * 4 w , B  .] o.X.I < @ > ' ,.2.2.j.v.a.a.j.j.j.a.j.u.d.",
"2.j.j.d.2.u.4.j.c.] ] #. .B  .| B A  .A Z B M w q q y Z ..| Z Z ..S Z ..M , 1 Z B Z  .m : @ , 0 > > 9 { u.j.2.d.j.d.9.a.2.d.j.j.a.",
"2.j.j.e.2.j.j.j.X.6 B ;. .Z ....B A  .A B  . . .o.| t r r t | o...r Z ..A w w A e q N r , : t 4.i.,.,.d.v.z.u.j.a.9.d.a.j.d.j.j.j.",
"2.j.j.e.a.l.k.;.> @.@.e Z  .y q e B B m B A  .A q 6 4 q 6 4 q y Z | Z r u A A M B M B X.6 : 7 k.z.z.x.l.u.2.2.z.j.a.j.j.j.j.j.u.d.",
"2.j.j.2.j.l.<.] B 4.#.e r n q 1 3 4 m m B m 5 * & : 4 6 e 4 4 4 r u | M Z ....M B Z B | ] < , X.<.d.j.2.,.<.u.j.u.j.j.d.d.4.j.u.j.",
"j.l.e.2.j.l.-.7 >.6 < 4 @ @ * * & 3 N B N 5 & + 5 , , 3 3 < 4 t : q r Z A Z B B ..#.| B o.6 : 6 l.z.j.2.a.c.z.2.j.d.u.j.j.j.d.j.j.",
"e.2.u.z.x.s.{ 6 & > > l & l ).m & 7 3 8 $ X 5 w. XF % 5 . $ j o 6 6 w , N  .y 5.6.I u | S M 5 O ;.j.a.u.s.z.i.z.u.u.u.j.j.j.v.l.j.",
"v.e.u.2.,.' < 0 7 X.@.9.O.D 7.% +.< 2 n $.D j }.@XpX% % z ^.XXF , , e 5 4 X.B e 1 u | ..3.S 1 * { 9.j.i.a.s.u.d.u.u.j.j.j.j.j.l.j.",
"e.j.l.z.z.u.<.&.2.j.B.@.o C @XF     - D /.pXW.c -XxXf G pX@Xy.F * o # * S  .Z  .1 q 1 q u  .m , 7 <.x.u.i.s.s.s.u.u.j.j.j.j.z.j.2.",
"2.9.j.z.z.z.a.d.l.2.2.$.+.n.y.o cXAX*XXXK E.PXY.].jXoXoXoX/.%XZXKXgXw.- & - , A y 1 4 3 < m A 5 : ,.c.u.a.s.s.5.a.j.d.j.j.k.j.j.m.",
"u.d.z.u.i.1.2.2.{ c.l.e C F XXIXSXIXKXIXcXF.OX=X!.-XjXU.{.MXKXIXHXIXZXw.# , 3.Z , q t 7 5 6 m 7 @ *.k.s.4.x.s.s.a.a.d.e.j.j.d.j.c.",
"j.s.a.j.u.j.v.c.N.i.2.7 F dXGXKXKXKXJXKXHX&XF.zXOXjX#XF.MXJXFXNXNXJXUXZXn @ n * 1 6 & @ N e : e @ [ a.a.s.s.a.a.a.j.4.a.j.e.d.d.2.",
"z.a.u.1.2.2.1.2.u.{ N.m o XXGXLXFXVXDXBXJXJXW.}.-XzX|.%XKXBXDXHXJXLXGXIX*X# @ A N , $ - 5 4 < 6 0 ] 4.s.k.s.5.a.j.j.j.9.d.d.d.d.j.",
"a.i.i.9.d.j.d.d.j.z.l.B K D.{.HXFXVXDXDXDXBX>X}.zX-XG.cXJXNXHXCXFXMX{.GXUXw.. 8 8 o $.t.& o { 6 : ] ;.a.x.s.s.a.a.j.4.d.u.u.d.u.u.",
"a.a.d.d.j.9.d.d.d.1.c.3  X*XMXIXDXVXCXDXDXSX:XE.;XzXF.PXHXVXVXVXHX{.L LXIXgX  r l . t.aXy.C o 6 6 6 k.k.s.,.x.u.a.j.e.j.u.j.u.d.j.",
"a.s.a.a.d.d.9.u.d.i.a.4.A IXIXBXFXDXVXCXDXHX}.F.;X;XG.>XFXDXVXDXSX<X<XIXGXZXO 6 j = /.}.T.T.2 o $ 4 k.>.j.i.a.z.a.a.u.e.d.d.d.j.d.",
"a.a.d.j.d.a.j.d.f.i.M.r.& AXUXGXLXFXDXFXHXMXJ OXzX;XY.>XFXFXMXJXKXIXFXBXKX&X  j X z (.E.W.oX^.+.o 3 v.-.x.j.u.d.j.j.d.j.d.j.a.a.j.",
"a.j.d.a.j.u.d.u.z.W 3X-.%.%.AXUXGXKXJXDXNXW.H hXhXvX%XF.>XJXJXVXKXBXVXJXMXK y.= d I.E.E.Y.E.+X+Xl 3 e.;.l.j.d.d.d.a.4.d.j.d.s.u.a.",
"9.4.4.d.a.d.j.j.z.*.z.&.).l F @XZXGXBX&XW.W.OXH Y.].-XE.F.MXFXIXHXHXFXMXK J cXG U.'.R.Y.Y.P.'.pX/.2 1.d.1.2.z.d.u.9.j.e.a.j.a.a.u.",
"9.9.e.d.a.a.a.a.z.m.} z.:.e.$ = K w.K K J oX-XX !.H Y.vX}.U.W.cX>X>X%XL K $XOXoXU.'.`.P.q.H R.+XsX2 :.f.0.2.l.d.j.j.9.j.a.a.s.a.j.",
"e.e.4.a.a.a.a.a.i.M.2.m.O.).=.j .XE.}.#X>X-X#X% hXP.H.=X-X-XW.g G.g J Q.OXvXOX'.R.'.].I.v v P.'.pX2 0.0.9.f.d.d.9.d.2.j.a.a.a.a.a.",
"e.9.9.j.z.u.a.s.z.,.m.&.c.{ =.% G J '.'.zX;X-X#X-X-X!.zX;X=X;X:X|.>X'.jX-X!.c !.!.I.^.q.v I.U.`.uXl f.9.f.l.1.u.d.e.j.j.a.a.a.j.a.",
"e.e.j.u.a.u.i.z.u.i.c.d.j.9.8 $.8.Y.OX-XjX:X-X-X:XzX;X=X;X=X,X;X:X;X:XmXP.v R.R.R.P.].T.q.`.(..X+.:.d.d.u.2.2.d.d.j.4.d.j.j.a.d.d.",
"u.j.u.d.u.z.d.d.z.u.c.<.r.r.8 D oXE.$XjX-X-X-XzXzX-X$X:X;XzX;X=X;X,XjX,Xv R.R.I.].!.R.`.`.`./.rX] -.2.j.j.j.z.c.a.d.j.d.j.u.j.j.a.",
"d.d.d.d.d.z.i.d.z.d.k.-.e.v.V [ [ l 0.q.+.`.8.H G 8.T.`.Q.P.`.jX>X=XzX].c E.'.!.P.R.z 7./.0.z X -.<.9.j.u.u.j.j.d.d.a.a.a.d.u.j.d.",
"d.d.d.f.i.u.z.d.2.2.j.@.r.c.;.<.=.l f.uX+.  X w.uXN     o z V 2 }.%X;X-XY.Q.lXE.(.T.2 = 2 9 =.0.j.z.z.l.u.2.2.2.j.a.j.d.j.e.a.d.j.",
"d.d.f.u.d.s.d.d.:.e.k.>.4.c.a.j.i.p.l.fXn.+ - D.gXp # # p iXgX: n w.$X;X|.#XzXU._.j V v.B.d.*.c.d.j.j.j.j.j.a.j.4.j.d.j.d.a.j.9.j.",
"d.d.f.i.d.i.d.d.9.r.v.e.2.u.s.a.i.N.-.%.3.F u # # a V.Z.3X3X3XA.D.n $XhX-X>X}.(.t.2 { ,.1.N.s.<.u.9.u.j.j.j.j.l.d.d.a.a.a.d.j.a.u.",
"e.e.u.a.s.a.j.a.r.r.>.r.u.i.s.s.s.<.2.+.r.%.a p p Z.5X5X5Xp p S.*Xa @X-X:X].I.`.. x B.B.1.f.s.a.z.j.j.j.d.u.d.2.j.j.a.d.j.d.u.j.j.",
"4.4.a.a.a.j.4.e.r.$. .0.f.i.s.f.x.*.b.8 7.n.+ p V.Z.5X5XZ.4XgXD.a S +X].'.`.~.s R R Y g.g.=.a.c.j.j.a.2.j.j.j.j.j.u.e.d.a.j.u.j.a.",
"#.4.k.a.,.e.v.[ C 7.7.7.D +.0.m.s.s.f.f.q.l uXC.C.V.Z.Z.C.S.iX5.w. X_.[.[.! Y Q _ _ E h R g.l.4.a.u.9.a.4.j.u.j.d.j.d.a.d.d.j.j.9.",
"k.k.;.4.c.2.@./.aXdXnXnXpX_.q.x :.l.=.l x 2 aXiXu C.C.p i S 7.^.aX`.! ! L.L.K./ / ( ( U U R :.k.a.j.a.j.d.d.j.a.d.a.a.j.j.4.j.u.a.",
"4.a.<.2.l.:.r.bXlXoXU.R.lXmX#X8.k z q./.q.- #.F S i 3.r.^./.+X].P.! Q Q K.8XeXwX6X1X( ( ^ Y T z.j.j.a.d.j.j.j.d.j.a.j.d.9.a.d.j.j.",
"k.2.x.j.O.+.0.^.= 8.#X#XOX-X-X#XR.oXxXlX8.8..Xw./.w./._.(.I.! s Q L.L.K./ 9XwXwXwX7X/ 2X( U W =.d.u.j.d.j.u.a.d.a.9.u.j.a.j.d.a.d.",
"z.2.j.9.0.0.z j pXxXjXOXOX;XzX=XzXjX-X#X8.J y./.T.).q.x x R ~.yXyXtXL.J./ 6XqX7XwXwX1X1X1X^ E W d.d.d.d.j.d.a.e.d.j.j.a.j.d.j.a.a.",
"i.j.d.@.b.9.C rXbX+Xq.f b Y.:XzXzX#XP.P.oXU.d z X s q.I.! ~.tXyXtX0XJ.~ / 7XwX7XwXwXqX1X/ ( ^ E f.u.j.a.j.u.d.a.a.j.u.9.u.j.a.d.d.",
"z.c.B.:.d.$.X.bX^.l d T.hXxX#XQ.H.|.H.f H kXP.f hX].jXrXL.L.tXL.K.J.Q J./ 9X7X7XqXwXqX1X1X( ^ Y f.d.d.a.d.j.d.j.d.j.j.a.j.j.j.9.j.",
"j.{ e.e.e.r.-.).z +.^.xXoXk c oX-X-XzXjXY.#X-XcX-XkXvXkX~.! L.K.J.Q ) J.8X8X7X7X7XwX8X1X1X1X~ Y g.a.a.d.a.e.a.4.9.a.d.j.u.u.e.a.j.",
"9.j.j.e.4.5.:.@.7.+.aX+XX T.lXjXOX!.;X;X;X;X:X;XzXhXkXrX~.R Y Q ) 0XeX8X7X7X7X7X6X8X6XJ.1X/ / Y =.i.z.z.j.4.e.k.e.4.a.9.a.e.e.4.j.",
"4.e.r.j.a.4.>.>.9.+.aX^.% kX+Xf v jXvXOX=X;X=X-XoXE.`.8.! R x Y 0X0X9X6X7XqX7X6X7XqX6XJ./ ( 2XY p.i.z.f.a.4.e.j.9.e.9.j.9.4.e.e.e.",
"4.2.a.a.a.a.2.2.9.$.r.z q.xXq.8.xXjXH.R.;XOXE.U.H 8.+.T W =.W E ^ / 6X7X7XqX7X7XJ./ / J.) 2X_ Y f.a.u.i.a.u.a.j.a.a.9.d.9.e.9.4.2.",
"u.a.a.k.k.j.j.j.j.l.+.D t.b.s nXpXk k pXoXG G G 7.+.7.0.l.b.l.p.P ( 9X9X7X7X1X1XJ.J.( ( _ U U W f.f.u.d.u.j.a.i.j.9.j.9.d.j.9.d.j.",
"u.d.a.z.a.z.j.j.<.l.9.b.+.l 0.sX+.% _.bXD D +.0.0.>.4.x.x.j.>.g.` 2X9X1X9X8X2X/ ( _ U h R ; $ } f.z.d.d.j.z.s.f.a.j.j.9.9.9.d.d.j.",
"d.d.d.s.s.u.s.z.1.j.O.v.9.+.).sX7.+.sXaXj b.0.l.k.2.a.a.a.>.e.f.; ` 2X( ~ ( ` U h Y ; x =.j o [ 9.d.d.j.z.i.s.d.u.u.j.d.a.d.d.d.d.",
"d.d.d.d.u.u.s.s.m.M.-.-.B.1.p.uX3 +.uXaXl f.O.z.j.a.s.4.4.4.r.f.9 E p.E Y ; ; ; W T +.g.aX X5 5 :.0.j.j.d.u.i.d.a.j.a.e.u.u.d.d.u.",
"j.d.d.u.u.u.u.a.z.-.B.j.=.d.1.l r.>.2.uXl l.j.i.i.x.z.i.4.l.2.} =.9 ; 9 T 9 9 ' $.$.0./.sXdXj .  .:.e.j.u.i.u.i.a.a.a.u.d.u.f.d.d.",
"d.2.d.j.x.l.j.2.a.a.j.a.d.9.4.e.j.9.0.:.0.2.9.d.a.a.i.x.2.=.9.O.O.[ [ @.' < 7 a.r.#.%./. X7.D C 2 , >.r.1.z.d.<.a.k.;.s.x.<.z.z.d.",
":.1.0.2.2.j.j.j.a.a.a.j.a.a.a.d.d.d.2.1.:.2.d.d.a.s.s.s.z.d.l.{ $.X.l & @ 3 X.k.>.%.[ r.t.D C n A , N :.e.9.:.9.2.a.<.a.k.;.a.a.u.",
"d.j.l.j.4.2.j.j.u.a.4.4.j.4.4.j.d.d.p.0.9.0.u.u.a.s.i.<.,.<.;.3 n #.w.e 3 [ 4.;.@.>.@. ...| ..u  .4 , 5 +.0.$.9.-.>.2.a.s.<.i.;.i.",
"2.j.x.l.j.<.2.9.j.9.j.a.4.j.4.j.f.d.d.u.1.1.1.i.<.<.<.<.2.4.e.$.%./. XX., t -.@.@.<.-.} ] o.o.| Z ..A = C r.z 2 O.@.>.2.<.<.2.-.<.",
"' &.1.u.d.2.9.e.9.j.4.e.j.4.a.j.d.d.u.1.1.1.,.<.<.*.<.*.#.@.[ %.q F w.A , y ;.*.&.&.-.&.I *.o.o.| #.e o D @X+X).+.} X.,.*.<.<.*.,.",
"{ ,.u.j.j.9.9.2.e.9.9.e.4.j.a.a.a.u.u.2.1.,.,.-.*.*.*.{ [ C j l n n A A y I *.} &.} &.{ *.I I *.5.o.n 5 ^.xXbXxXq.l } X.{ *.-.X.&.",
"z.z.z.z.j.j.9.2.9.9.e.d.e.j.a.a.4.4.2.2.,.&.&.&.O.&.*.m 0..X_._.j % X X + : | { } 7 { I I o.I ] : @ m y.+XxXxXpX`.l T } ' X.[ X.{ ",
"x.s.u.u.d.j.j.d.d.d.j.e.a.j.a.a.4.5.4.<.-.-.&.&.{ &.{ 2 r.xXnXxXhXoX^.r.V t I 7 ' I ] 7 7 &.I I o.4 e j j 8.].xX_.T T } I ' T ] { ",
"u.s.u.j.j.d.j.u.j.d.j.a.d.a.d.j.2.4.2.,.,.*.{ O.{ { { V % .XhX-X$XhXpXaX0.l ' ' ' ' N ' ' ' I ' ' ' ] l V 2 = 0.b.O.7 ' } } } } } "
};
