/* XPM */
static char *_d97b675c85948a7cfcb808a793bef9aybTngYp6zNZK0dwz[] = {
/* columns rows colors chars-per-pixel */
"65 65 19 1 ",
"  c #6A3935",
". c #6B3A36",
"X c #6C3B37",
"o c #6D3C37",
"O c #6F3E37",
"+ c #6D3C38",
"@ c #6E3D38",
"# c #6E3D39",
"$ c #6F3E39",
"% c #6F3E3A",
"& c #703F38",
"* c #703F3A",
"= c #703F3B",
"- c #714039",
"; c #724238",
": c #734339",
"> c #71403B",
", c #72413A",
"< c #74443A",
/* pixels */
"$$$$$$$$$o$o$o$o+%+%++++++++++++................                 ",
"$$$$$$$$o$o$o$o$%+%+%++++++++++++.+..++.........                 ",
"$$$$$$$$$o$o$o$o+%+%++++++++++++.+.+.+.+........                 ",
"$$$$$$$$o$o$o$o$%+%+%++++++++++++.+.+.+.................         ",
"$$$$$$$$$$$$$$$$+%+%+++++++++++++.+..+.+.+.+.+.+........         ",
"$$$$$$$$$$$$$$$$%+%+%++++++++++++++++++++.+.+.+.........         ",
"$$$$$$$$$$$$$$$$+%+%++++++++++++++++++++.+.+.+.+.+.+.+.+         ",
"$$$$$$$$$$$$$$$$%+%+%++++++++++++++++++++.+.+.+.+.+.+.+.         ",
"********$$$$$$$$+%+%+%+%+%+%++++++++++++.+.+.+.+.............    ",
"********$$$$$$$$%+%+%+%+%+%+$++++++++++++.+.+.+..............    ",
"********$$$$$$$$+%+%+%+%+%+%++++++++++++.+.+.+.+.............    ",
"********$$$$$$$$%+%+%+%+%+$+$++++++++++++.+.+.+..............    ",
"********$$$$$$$$%%%%%%%%+%+%$+++++++++++.+.+.+.+.+.+.+.+.....    ",
"********$$$$$$$$%%%%%%%%%+%++++++++++++++.+.+.+.+.+.+.+......    ",
"********$$$$$$$$%%%%%%%%+%+%$++X++++++++.+.+.+.+.+.+.+.+.....    ",
"********$$$$$$$$%%%%%%%%%+%+$++$+++++++++.+.+.+.+.+.+.+......    ",
"*&&&&&&&OOOOOOOO&o$$$$$$$$$$oo$o+%+%+%+%++++++++.+.+.+.+.....    ",
"&&&&&&&&OOOOOOOO&&$$$$$$$$$$o$o$%+%+%+%++++++++++.+.+.+......    ",
"&&&&&&&&OOOOOOOO$$$$$$$$$$$$$o$o+%+%+%+%++++++++.+.+.+.+.+....   ",
"&&&&&&&&OOOOOOOO$$$$$$$$$$$$o$o$%+%+%+%++++++++++.+.+.+.+....... ",
"&&&&&&&&OOOOOOOO$$$$$$$$$$$$$o$o+%+%+%+%++++++++.+.+.+.++..+....X",
"&&&&&&&&OOOOOOOO$$$$$$$$$$$$o$o$%+%+%+%++++++++++.+.+.+.+++.+... ",
"&&&&&&&&OOOOOOOO$$$$$$$$$$$*$o$o+%+%+%+%++++++++.+.+.+.++++++.+.X",
"&&&&&&&&OOOOOOOO$$$$$$$$$$$*o$oo%+%+%+%++++++++++.+.+.+.++++.+.+X",
"----------&&&&oO$$$$$$$$$$$$$$$$+%+%+%+%.+.+.+.+.+.+.+.+.+.+.+.+X",
"----------&&&&&O$$$$$$$$$$$$$$$$%+%+%+%++.+.+.+.+.+.+.+.+.+.+.+. ",
"----------&&;&OO$$$$$$$$$$$$$$$$+%+%+%+%++++++++.+.+.+.+.+.+.+.+X",
"----------&&o;OO$$$$$$$$$$$$$$$$%+%+%+%++++++++++.+.+.+.+.+.+.+. ",
"----------&&&&o&$$$$$$$$$$$$$$$$+%+%+%+%++++++++.+.+.+.+.+.+.+.+X",
"----------&&&&&&$$$$$$$$$$$$$$$$%+%+%+%+%++%%+%++.+.+.+.+.+.+.+.X",
"----------&&&&oo$$$$$$$$$$$$$$$$+%+%+%+%+%+%+%+%.+.+.+.+.+.+.+.+X",
"----------&&&&&&$$$$$$$$$$$$$$$$%+%+%+%+%+%+%+%++.+.+.+.+.+.+.+.X",
"----------------********o******o+%+%+%+%+%+%+++++.+.+.+.+.+.+.+.X",
"----------------**********oooo**%+%+%+%+%+%+++++.+.+.+.+.+.+.+.+X",
"----------------*********o****o*+%+%+%+%%%%+%++++++++++++.+.+.+.X",
"----------------**********o**o**%+%+%+%+%%%%+%%+++++++++.+.+.+.+X",
"----------------********oo****oo%%%%%%%%%%%%%++%+++++++++.+.+.+.X",
"----------------***********oo***%%%%%%%%==%%%%%++%+%+%+%.+.+.+.+X",
"----------------***********oo***%%%%%%%%===%%%%%%+%+%+%++.+.+.+.X",
"----------------********oo****o*%%%%%%%%====%%%%+%+%+%+%.+.+.+.+X",
"----------------****oo**Xo&Xo*oo%%%%%%%%%%%%+%+%%+%+%+%+++++++++X",
"----------------*oo****o***$o**o%%%%%%%%%%%%%+%++%+%+%+%++++++++X",
"----------------*********o*o****%%%%%%%%%%%%+%+%%+%+%+%+++++++++X",
"----------------*********o***oo*%%%%%%%%%%%%%+%++%+%+%+%++++++++X",
",,,,,,,,--------**********o*o*&*%%%%%%%%%%%%+%+%%+%+%+%+++++++++X",
",,,,,,,,-------->>>>**>-********%%%%%%%%%%%%%+%++%+%+%+%++++++++X",
",,,,,,,,-------->>>>>>>>********%%%%%%%%%%%%+%+%%+%+%+%+++++++++X",
",,,,,,,,-------->>>>>>>>********%%%%%%%%%%%%%+%++%+%+%+%++++++++X",
",,,,,,,,,,,,------------&&&&&&&&$$$$$$$$$o$o$X$+%+%+++++++++++++X",
",,,,,,,,,,,,------------&&&&&&&&$$$$$$$$o$o$o$+$+%+%%+++++++++++X",
",,,,,,,,,,,,------------&&&&&&&&$$$$$$$$$o$o$o$+%+%+++++++++++++X",
",,,,,,,,,,,,------------&&&&&&&&$$$$$$$$o$o$o$+$+%+%%+++++++++++X",
",,,,,,,,,,,,------------&&&&&&&&$$$$$$$$*$$$$$$$%+%+%+++++++++++X",
",,,,,,,,,,,,------------&&&&&&&&$$$$$$$$$$$$$$$$+%+%+++++++++++++",
",,,,,,,,,,,,------------&&&&&&&&$$$$$$$$$$$$$$$$%+%+%++++++++++++",
",,,,,,,,,,,,------------&&&&&&&&$$$$$$$$$$$$$$$$+%+%+++++++++++++",
",,,,,,,,,,,,,,,,------------&&&&********$$$$$$$$%%%%%+%+%+%+%++++",
",,,,,,,,,,,,,,,,-------------&&&********$$$$$$$$%%%%+%+%+%+%+++++",
",,,,,,,,,,,,,,,,-------------&&&********$$$$$$$$%%%%%+%+%+%+%++++",
",,,,,,,,,,,,,,,,-------------&&&********$$$$$$$$%%%%+%+%+%+%+++++",
",,,,,,,,,,,,,,,,------------*&&&********$$$$$$$$%%%%%+%+%+%+%+++X",
",,,,,,,,,,,,,,,,------------;&&&********$$$$$$$$%%%%+%+%+%+%++++$",
",,,,,,,,,,,,,,,,------------*&&&********$$$$$$$$%%%%%+%+%+%+%+++o",
",,,,,,,,,,,,,,,,------------*&&&********$$$$$$$%%%%%+%+%+%+%++++o",
"<<,<<,:;;;;;;;;;-,,,,,,,-----;&&*********o**o**o**o*oo*oo*oo*Xooo"
};
