/* XPM */
static char *_ec87a6be2b1430687a1bcd2d8db7d0fATlfjDneVIcRl8g8[] = {
/* columns rows colors chars-per-pixel */
"65 65 113 2 ",
"   c #25150F",
".  c #211511",
"X  c #2D1C13",
"o  c #321E13",
"O  c #352113",
"+  c #3C2514",
"@  c #3E2815",
"#  c #402715",
"$  c #432B16",
"%  c #492D17",
"&  c #462D18",
"*  c #4A2E19",
"=  c #4D311A",
"-  c #53351C",
";  c #59371D",
":  c #57381E",
">  c #5B3A1E",
",  c #613D1F",
"<  c #573820",
"1  c #5D3C20",
"2  c #633E21",
"3  c #643E20",
"4  c #643F20",
"5  c #653F23",
"6  c #683F21",
"7  c #634021",
"8  c #674121",
"9  c #674122",
"0  c #674222",
"q  c #674224",
"w  c #684021",
"e  c #6B4223",
"r  c #6C4523",
"t  c #6D4523",
"y  c #6A4124",
"u  c #6A4325",
"i  c #6D4325",
"p  c #6B4424",
"a  c #6B4524",
"s  c #6D4524",
"d  c #6D4426",
"f  c #6E4627",
"g  c #6E4826",
"h  c #704525",
"j  c #704724",
"k  c #724725",
"l  c #714926",
"z  c #744925",
"x  c #744826",
"c  c #744A26",
"v  c #754A27",
"b  c #794B26",
"n  c #704728",
"m  c #724828",
"M  c #754B28",
"N  c #774C2B",
"B  c #7A4C28",
"V  c #7D4D29",
"C  c #7E4F28",
"Z  c #7E4F29",
"A  c #795027",
"S  c #7C5029",
"D  c #7E5029",
"F  c #7D512A",
"G  c #7F512A",
"H  c #814E28",
"J  c #805127",
"K  c #815029",
"L  c #825329",
"P  c #82532A",
"I  c #83542B",
"U  c #87552B",
"Y  c #87572B",
"T  c #89562B",
"R  c #87592C",
"E  c #87582D",
"W  c #8B5B2C",
"Q  c #8B5A2E",
"!  c #8F5A2D",
"~  c #8E5A2E",
"^  c #8D5D2D",
"/  c #8E5D2D",
"(  c #915B2E",
")  c #925C2F",
"_  c #955F2F",
"`  c #985F2E",
"'  c #8D5D30",
"]  c #905C30",
"[  c #925E30",
"{  c #95602F",
"}  c #99612E",
"|  c #99632F",
" . c #8F6031",
".. c #956131",
"X. c #996330",
"o. c #9B6532",
"O. c #9E6934",
"+. c #A26732",
"@. c #A36A34",
"#. c #AA6E34",
"$. c #AD7137",
"%. c #A77138",
"&. c #B47336",
"*. c #BA7536",
"=. c #BF7A37",
"-. c #B87A3A",
";. c #C07B37",
":. c #C17E3B",
">. c #CD8439",
",. c #D3863B",
"<. c #D1883E",
"1. c #C58340",
"2. c #EC9E4B",
/* pixels */
"3 > > , , e , > +   o o O + % % = % $ $ + % * * @ @ @ @ $ $ $ $ $ $ + + + # % ; u M n i d i n 6 n H [ [ [ ] ' H V < + + # + * % 1 ",
") U b e , ; > , - o O % % % % % * = = % & % * = @ + @ $ $ $ $ # # # + + + + @ $ - u d s n s 6 6 6 x N C H C x n 5 % + + # & % 1 L ",
"| { ) J 6 , ; ; ; + + - > % - > = = = = & & & @ + + $ $ $ $ # # @ + + + # # # # + $ = ; < < < 3 6 5 n M 6 5 1 1 * + & + # * u U ' ",
"_ ( ( C , , ; ; ; + + - - > 7 - - = = = * & % & @ + $ $ $ # # # # + + % - - = = * & # & * * % * < < 3 5 5 < * & + + + + & t Q / R ",
"_ ! T z , ; - = = $ % : , t t 7 ; ; - - - * * * $ @ + $ $ @ # # # O # ; ; e t e 1 - - & $ % & = * * * * - - * & + + O $ i ) / U z ",
"! U b j , - - = % % : e t z z z M m t 7 1 - * = % $ @ @ @ @ + + O # = = - 6 J D F g 7 - = & $ & * * & % & * & $ O + & p | [ L z C ",
"U L A z > = = = % = > 7 s z z A G G N j 6 1 - = % = $ @ # + + + O % - - - ; , b L R L N 1 - = & * $ $ # o o o o O $ 2 o.X.L z B C ",
"L J J t - = = % % - 7 t z z A F Z L L N i 5 < < - = $ @ $ $ + O # # # - - ; ; w B F H L m 2 : = * $ # + o # # o * - P @.L N B g H ",
"b z 7 = % % $ % = - t b N A L R U I E I N u 5 < - - = % $ # o * ; ; = # $ = 7 s B B N z g p 1 < - # + & + + + # * > ' U N j u B [ ",
"- = % & % = % % - , b B F U R R U U E E P m u q 1 - - < * # ; < ; ; , ; $ @ $ - 7 e 7 e q q q 1 = + + & + + + & % - C H d 3 H ..' ",
"$ $ $ * = * @ % , t z B L Q R Q ~ Q U Q E G m n 3 - - - % % 2 ; ; ; % % : : % O @ = = - > : = @ $ * $ $ & # $ & & * H z 2 Q ..[ ' ",
"$ = = = & + + = > , e z ' ) Q R ' ] ' ' E E G d ; # * - = * - < ; ; ; ; = : , = O + & = $ O + % = & $ $ $ $ $ $ * 1 1 - I X.] [ @.",
"+ + $ + X O % ; - : > , z R o.#.#.+.O.o.] ] U C 6 ; & < < < = * = , ; ; ; > , > & O + O X + : - $ @ $ $ + $ $ & ; 1 $ u ] _ o.@.! ",
"X O X X X $ ; - - : : : : 2 B O.:.:.@.o.@.O.E P H N 3 - < < 1 = $ % - : , ; = = = + O O O = = @ # $ $ $ + $ * < - * e ( ] @.@.! b ",
"X X X o + % = = - : > 3 > 1 > 1 n ] $.@...o.' N N N 6 5 < < < < ; % $ % $ % = = = = % @ $ + @ $ $ $ $ O + * = - * i X.! ..o.' C ! ",
"@ O O X X O % $ % % = : e 7 3 7 5 5 ] +.' ' [ ' H L n n 5 < - - ; ; - = $ @ $ = - = = & @ $ $ % $ + X + * = = - , _ R Q ..U z U X.",
"7 7 > - # + + $ $ $ $ & = 1 u i j B Q &.<.:._ R U I Z N d u < < = = - : : - % & @ @ @ O + @ @ O O O @ * = * 1 1 P P F ..R z L [ ' ",
"m N B z j 3 - * # + + $ $ $ = 1 7 i i C [ &.&.[ L L ' N N N n < = - - - - : - = $ $ = & @ O O + @ $ = = & 1 3 s z N W U B L Q ! b ",
"- 2 s j z z b s 1 * + O + O O @ & * = = & - 5 U [ ~ V N N N N m 7 : - : : : : = = % - : - O O & = = = & - s B z B F N B L U F N s ",
"7 3 2 p j z N B C b > * $ + + O O + $ + & & & * M [ ' P U G I P N 7 - : : = = = % $ = = & + & & = = = 1 u z b N F M b L L F N t j ",
"h 6 6 h j j j j s s i , * + & & + O $ = * * * * = j ' ` o.I q < < : * * % = % = = & @ + + = = & = < < q s u z F M F P F F M M z n ",
"6 h h h s x j i 6 3 1 - O O & $ $ + + = * * * * * = 1 1 < < = * & & & @ @ & = : - @ O + = - = : < < q d i d N M F F B F B z N n 3 ",
"$ & $ # o $ * $ & + $ + X X O + + + $ * = * & & $ $ $ + o @ < < - * @ @ @ @ @ & * @ o @ = = - < = < u n u u N H L F B F M N B 3 2 ",
"X o o o # o # # $ $ * & O X O o X X + $ $ $ # # + # $ = < q d d p g g A A g : + O O X + = - = < < s m q q C Q R F F F z z G s 3 z ",
"+ + + * < 7 q q q q u s : $ * * O . X O O + O + = < 5 N L I F C F  .' ' E P I d & X + O + = & 1 N A 7 7 F  . .G L R G N R G 2 d 2 ",
"$ * 1 6 m A B N N A m z M 1 & = < * O X o X + < 5 q d m N B F Q R R E G G N F U F = O + O @ = 2 q 1 1 A ..F F A H C m I E 5 < - o ",
"- n N N g g g g g m z m g M - % = < & + o o < u 1 5 d m N m U [  .R I P F F F N A B - O O & - = & : 7 g F A g g u 1 2 m < + O o X ",
"u n n d g a f q d s g g M M > $ = = & + o o 1 5 < 1 u z d N N R ' ' R R I G N m c b t % O $ $ $ = = - : < < < < * * = @ O O + + $ ",
"2 g a q a a f g s g g g q < : = $ = = @ + o * 1 = = 1 d m m N N G R ' R I F N M c a a a @ X + & = & @ + O @ = & = = = - * * * * * ",
"q M a q g a g g d g M g $ = > - & $ & & + + o & = = * < d N N N F G G R ' F B m g p 7 q 1 O O @ @ + O O O O & = = < 7 1 < - - = - ",
"p z p p p g g g d p M p $ - - - = = = & & $ + o & = * & 1 N N G G N M G Q L N z p q q 7 - & @ + O O O @ @ < < < & & < - - < - = * ",
"q q p q q q q q q d g g = * : > 1 < = = * & & + + & < * = 5 m C G G F R R Q A b A g 1 : = = = @ @ @ @ & < - - < < & = * = = * & - ",
"q q a 7 q q q q g q t g a , 7 7 7 : = : = = @ @ + + = < = * p F E E ( ~ P I V [ U , = = - = * $ $ * = = & * = : = & * & = = = : > ",
"a a a a q q a a g g p 7 g g r 7 7 1 : : : : : = @ + + = < = < A P E U P I N ` ` , * = : = $ $ @ * = = * * : : 1 : & & & = = : : ; ",
"a a a g g A A A g g g g g g a > 1 1 : : : : - = * & + & : - = g I N C P V ` @.3 & * = & + @ & & = = = : 1 a , 2 1 = @ & @ = = : ; ",
"g r g g A A A A N A A A g A g g a 7 1 : : : : - * & & & = : : : N Q [ ` ! ` 5 # & * & + + @ * = = = : 1 7 7 7 3 1 = @ & = = = @ = ",
"g g A A A A F F A A A g g A g A A a 1 1 1 7 < : * & & & * = : = - u 1 * * & # & * & + + & * = * : : : > 7 7 7 7 7 1 = @ @ = = = % ",
"r g A A F F F A A A A A N A A g g g a 7 7 7 1 : - = & & * = : = & + $ * & & * & $ @ + @ $ * = - 1 t z g 7 7 7 7 1 7 1 & @ = = : - ",
"g b A F F F F F A A A g A g m g g g 7 7 p p 7 : = : : & @ % = % * * * * * * * & @ + $ & * - - 1 t A R F A g p 7 7 7 a 7 @ + = : > ",
"M A A A F R F F A A A A A A F A A g g A g z p 1 - = - - @ @ @ & * * * * * * # + O + + $ - ; 2 s g A A A F Q R A F g 7 g : X @ = > ",
"F F F L U R A F A A B g g A A N A g A A g g g a , : : = $ + + + & = * & $ + O O + @ + * 2 q 2 q s g m B P R R W  .R N s z & o * % ",
"L R R Q R U L A F A b g a g s g g g g 7 a 7 a a p q 1 - @ + + + + + + + + + O + + + @ = 2 2 2 2 s s m P E R R Q R R R B N u O O % ",
"F R U J L L F F F A c a p p g g g g g a a g q 7 2 7 2 1 : = @ @ $ + + O + o O $ $ $ = < 2 2 1 3 e p I W E ' / '  ./ W I C H >   o ",
"c ^ / U L F L L L F c a a s g g g g a a q 7 7 1 2 2 q s p 7 1 : < = = @ O o + $ $ & * 1 2 1 3 5 7 F ' W ' [ .... . ./ W P b b > o ",
"2 C ! U L F F L F L b p a g M M g g g a 7 7 7 7 u j i m m s 5 5 1 < = + X $ & & = - < - * 1 6 5 7 B  .{ .... ./ / ! ! R Q C j b , ",
"2 u F L z z F F A A M q 7 M A A A N g g q q g g z M n m s N F n 1 - & O O & * = 1 5 s n 2 ; 3 3 e u F F U R F F F Q [ [ ~ L j i b ",
"i z Q Q b t s z N M g q 7 g A F F F A N N N A A M j j i B [ ' 3 - = & O + & * - - < 3 b C 2 1 6 e e 7 g F L L F F [ O...[ Q H z 6 ",
"u N L R b N b s g g q 7 q N A F  . .F  .F F A N H b i H Q C 7 = - * $ o + & = - < 2 j b V n i j , > t F L L L R I ..#...[ ( H b 6 ",
"j b B ` C z A b B M s < b F B F U Q / P P P L L T b b ( u < - = * * # X $ & - 1 s j b b F J H b b L U U L L U W W { +.( { U F b b ",
"x b B *.*.i B F A L L 7 p L L L Q ! L L U I P H P T U e > - = = * * # X + * = 3 H U C C F U U T o.o...{ { / { { ....@.[ U L H F b ",
"j j d ] >.+.H Q R F F z > A W ' ..[ ....' L Q [ { V > = - = = = * * + o + * - 3 j Q | ( ( W P ( o.o...) _ ) _ _ / ! :.-.b D L H z ",
"3 6 i j _ #.[ [ o...W F t N L ..O.X.O.X.R [ +.! t - = - = = & & & o X + O + = 2 , h T ) #.#.` ` { ..) U U U ( ( R H 2.1.j L L F 6 ",
"2 2 6 6 s i i b R [ / Q B z F ..@.O.[ ..X...B - % - = = & & & & O o # * + O $ = , 2 , 6 h H ! #.$.@.] Q P H H V ` =.,.[ b J J H , ",
"2 2 3 6 3 3 3 3 2 2 u z b z z t s q 3 i i < - - - = & $ @ & = + + ; 1 - * + O $ % ; 6 6 , ; , h W o.+.` ! T Q ( ;.=.Q C b z b B t ",
"; 2 3 2 3 3 2 ; - > > > ; ; - & $ $ $ + + & * = * & & & * * & O & 3 s 3 & $ + O + * * ; , h e t , 6 C U P ( ` X.U C H B j j z j t ",
"* ; > 2 1 - - - 2 2 > 2 - * $ + $ & - - * $ $ * * * & & + + O O O + $ $ + $ + + O + + # ; , j t s s 2 3 j b H x n j B j j 6 3 3 , ",
"* * % = $ $ - > 1 1 3 1 = $ + * > , j s 1 1 - * & = $ $ @ + & = = & + + $ $ + @ # $ + # * 3 e e j 6 6 6 x 6 6 x j i b b 6 , , , , ",
"# $ # + O $ ; > > 2 - & $ $ * 3 t b b s 1 1 ; = & $ O * = = > 7 u 5 7 ; > - - = % % $ + * > 3 , 6 6 x h j 6 6 6 h 6 6 h h h 6 6 , ",
"o o O O O + # $ * $ o + $ $ = 6 j z z e 3 ; ; - & O $ = = 7 z z n F H F F N s > % % = % * ; , t 6 6 h h 6 6 6 6 2 i 6 j x 6 x , ; ",
"+ # + + $ # O o O X o $ $ $ * - e J J D b ; - = + @ * * 1 s z z P ......Q Q L 2 - > = = % - ; , 6 h , t , 6 t , , , 6 6 6 , - % # ",
"% * % * % % * % $ % $ $ + % * @ - U U ! F % = $ @ = * - 7 7 q B  . .O.O. .R  .Q , , , % % % * ; , , > , , 6 6 6 6 6 , , ; % # + % ",
"* - - ; > ; ; ; = = = % * $ $ $ @ - e B : @ & @ = = > , 7 2 g / ..O.o.O...W W O.U ; > * - % - - > , 3 , , 6 j 6 6 , % # # # # ; t ",
"* = - ; , , i j , ; = > - : % $ + + + $ + * $ & % > 3 > 2 < A O. ...o.o.O. ./ ..( , % - % % - - - ; h x z 6 6 , ; # # # % ; 6 H H ",
"% * - 3 , j j s j t , ; - - ; - - = $ @ * = % % > 7 3 > 1 m R  .O.O.O.o.o.o. . .` H > , , - % - - - , 6 , , % % O o % , 6 ~ ` ` +.",
"* * - 6 x j j j j j x 6 , > > > > > - * % % % - 3 2 ; ; j C Q ' [ .... ./ o.O.O.%. .q u s 2 * $ - - - ; = * # o O - , H | #.#.+.+."
};
