/* XPM */
static char *_30bcddf98fd4cb48e9bc9c21334f443DZLgk5wtAP0qihcd[] = {
/* columns rows colors chars-per-pixel */
"65 65 247 2 ",
"   c #030202",
".  c #0B0302",
"X  c #0C0C0C",
"o  c #070707",
"O  c #130202",
"+  c #120B02",
"@  c #1B0A01",
"#  c #130C0C",
"$  c #190708",
"%  c #0A120C",
"&  c #181405",
"*  c #180B12",
"=  c #131313",
"-  c #1B1314",
";  c #1C1B1B",
":  c #171819",
">  c #0E0F15",
",  c #240203",
"<  c #280902",
"1  c #360503",
"2  c #281804",
"3  c #221D1C",
"4  c #251818",
"5  c #36170F",
"6  c #19211B",
"7  c #1E2100",
"8  c #2C2303",
"9  c #372906",
"0  c #23221D",
"q  c #2B2617",
"w  c #362716",
"e  c #3B3411",
"r  c #1D1B23",
"t  c #251C23",
"y  c #1C2423",
"u  c #1E2D30",
"i  c #242424",
"p  c #2B2524",
"a  c #2B2C2B",
"s  c #282828",
"d  c #342C2D",
"f  c #372827",
"g  c #383529",
"h  c #2D2E32",
"j  c #372E33",
"k  c #2D3636",
"l  c #333333",
"z  c #3B3434",
"x  c #3C3B3B",
"c  c #393638",
"v  c #2C342E",
"b  c #470605",
"n  c #52130F",
"m  c #6A1409",
"M  c #473B0A",
"N  c #482817",
"B  c #57371A",
"V  c #4B300E",
"C  c #6D2D0C",
"Z  c #442826",
"A  c #493929",
"S  c #583A23",
"D  c #443B3D",
"F  c #443739",
"G  c #4F2C2F",
"H  c #6E302C",
"J  c #651823",
"K  c #3D443B",
"L  c #564A1B",
"P  c #51450C",
"I  c #6B4E0E",
"U  c #766216",
"Y  c #584829",
"T  c #47433D",
"R  c #554739",
"E  c #54502F",
"W  c #654529",
"Q  c #694833",
"!  c #6E5333",
"~  c #746732",
"^  c #3D3B42",
"/  c #3B2E40",
"(  c #473A44",
")  c #523B4F",
"_  c #6B3140",
"`  c #3B4644",
"'  c #434343",
"]  c #4C4443",
"[  c #4C4B4C",
"{  c #494848",
"}  c #544B4C",
"|  c #574945",
" . c #59544B",
".. c #4E4B53",
"X. c #564D52",
"o. c #4E5454",
"O. c #545354",
"+. c #5B5354",
"@. c #5C5B5C",
"#. c #585858",
"$. c #665849",
"%. c #645959",
"&. c #6F524A",
"*. c #5A635A",
"=. c #68635B",
"-. c #786759",
";. c #75694E",
":. c #5C5A60",
">. c #635C64",
",. c #705F67",
"<. c #646363",
"1. c #6C6B6B",
"2. c #6A6766",
"3. c #736B6B",
"4. c #7A726C",
"5. c #766C72",
"6. c #757474",
"7. c #7C7B7B",
"8. c #7A7775",
"9. c #6B6F72",
"0. c #5D6969",
"q. c #891914",
"w. c #8E3014",
"e. c #911623",
"r. c #8E2B2C",
"t. c #AB2D2A",
"y. c #A0141D",
"u. c #8F4917",
"i. c #914F2D",
"p. c #AD4A35",
"a. c #8B7237",
"s. c #A76E35",
"d. c #897A1F",
"f. c #88554A",
"g. c #AB554D",
"h. c #8A7152",
"j. c #AC7249",
"k. c #837D7D",
"l. c #857976",
"z. c #88726C",
"x. c #B47067",
"c. c #CA6F5A",
"v. c #A92E40",
"b. c #7E827D",
"n. c #96862A",
"m. c #A08D37",
"M. c #8A844B",
"N. c #988B54",
"B. c #AB9154",
"V. c #BBA84D",
"C. c #86847C",
"Z. c #948976",
"A. c #8C8C73",
"S. c #A8926F",
"D. c #B3AD73",
"F. c #CFB16F",
"G. c #C99262",
"H. c #D8C86C",
"J. c #EBDE7D",
"K. c #E7D879",
"L. c #F8DC7A",
"P. c #E3D06E",
"I. c #EDE47C",
"U. c #EBE578",
"Y. c #F6E67E",
"T. c #F9E67E",
"R. c #F5E97C",
"E. c #F9EC7E",
"W. c #F2E575",
"Q. c #FDF27E",
"!. c #7C7A81",
"~. c #857D84",
"^. c #907389",
"/. c #A57E81",
"(. c #7B8788",
"). c #858484",
"_. c #8B8384",
"`. c #8B868A",
"'. c #8C8B8B",
"]. c #888A86",
"[. c #938C8D",
"{. c #948A85",
"}. c #96928B",
"|. c #988B94",
" X c #949393",
".X c #999798",
"XX c #8B8D91",
"oX c #A49997",
"OX c #A59084",
"+X c #B1A890",
"@X c #A79BA8",
"#X c #A7A6A6",
"$X c #B4ABAA",
"%X c #B9B7B6",
"&X c #B2AFAC",
"*X c #9B9EA5",
"=X c #CFB88C",
"-X c #C5BABA",
";X c #EABCA1",
":X c #BEC3BD",
">X c #D6C988",
",X c #D6CB96",
"<X c #D3CC8D",
"1X c #F7CA8A",
"2X c #E7D988",
"3X c #F8D688",
"4X c #E7DB97",
"5X c #F9DB94",
"6X c #E8C88C",
"7X c #ECE283",
"8X c #EDE887",
"9X c #F6E683",
"0X c #F9E683",
"qX c #F6EA84",
"wX c #FAEB84",
"eX c #F4E58B",
"rX c #FAE48B",
"tX c #F5EB8A",
"yX c #FAEB8B",
"uX c #FDF38B",
"iX c #FBF385",
"pX c #EDE494",
"aX c #F5EA93",
"sX c #FCEC93",
"dX c #F4EB9C",
"fX c #FAE697",
"gX c #FEF293",
"hX c #FDF799",
"jX c #D2CDB0",
"kX c #EFD9A9",
"lX c #ECE4A7",
"zX c #F7EBA6",
"xX c #FEF6A5",
"cX c #FDF5B4",
"vX c #F6E7B4",
"bX c #BEBAC8",
"nX c #BDC5C1",
"mX c #CAC8C8",
"MX c #D5C9CA",
"NX c #D8D7D6",
"BX c #D0D1CE",
"VX c #E3D9DA",
"CX c #DDE5D9",
"ZX c #F4ECD0",
"AX c #E6DBE1",
"SX c #EAE7E3",
"DX c #F7F6F3",
/* pixels */
"T.T.T.Y.T.T.Y.T.T.T.T.T.T.T.Y.T.0XT.T.W.E.W.U.R.Y.0XsX3XsXsX2XrXeXsXrXrX3XyXtXqX7X0XY.L.T.E.U.U.E.T.R.T.Y.T.Y.Y.Y.Y.T.Y.T.T.T.T.Y.",
"T.T.Y.T.T.T.Y.Y.0XT.T.T.T.T.T.T.0XL.L.Q.U.W.E.R.0X3X3X5X3XL.3XfXfX1XL.L.3X3XtX8XU.I.L.T.L.L.E.Y.R.9XY.T.Y.T.T.Y.T.W.Y.Y.Y.Y.T.T.Y.",
"T.T.Y.T.Y.R.T.T.T.T.9XT.T.T.T.T.L.L.T.W.U.iX8X2XrX5X1X5XG.u.C C C u.p.c.1X3XrXhXgXK.sX3XL.0XT.wXY.T.T.Y.T.Y.Y.T.T.T.Y.T.Y.T.T.Y.Y.",
"Y.T.T.T.T.Y.T.T.T.T.T.R.T.T.0XL.L.0XwXK.uXI.8XhX5X1Xi.n n w.w.w.w.m w.m m u.G.5XpXrXrXK.L.L.L.L.T.Y.Y.T.Y.Y.T.Y.T.T.T.Y.Y.Y.T.Y.Y.",
"Y.T.T.T.T.T.R.0XT.R.T.T.T.Y.Y.T.wXwX0XtXsXeXaXfXG.b m p.i.q.r.t.r.t.t.t.t.q.n C F.sX3XhXyXK.gX0X9XT.Y.R.T.T.T.Y.9XY.9XY.T.Y.R.T.T.",
"T.T.0XR.T.R.T.T.T.9XT.T.T.T.Y.Y.R.8X7XsX2XcX6Xs.b C i.q.r.r.e.J e.e.y.t.y.t.w.C C G.5XL.3XgX3XU.Y.T.T.T.T.9XY.T.T.Y.Y.Y.Y.T.Y.T.Y.",
"9X9XT.T.9XT.0XT.9XT.T.T.T.T.T.R.U.8X7XeX5X6Xj.n i.r.r.H H n b J J H r.e.y.y.t.p.w.b j.fX3XrX8XiXY.Y.T.9XY.9X9X9X9XT.T.T.T.Y.Y.T.T.",
"T.T.9XT.T.9XR.0XT.9X9XT.T.9XR.7XiXhXeX2XxXi.b C m H n b 1 J _ _ n 1 n r.t.y.y.t.w.w.m s.sXqXU.8XR.Y.Y.Y.Y.Y.Y.9X0X9X9X9XR.Y.T.Y.T.",
"Y.9XY.qX9XR.qXY.0XY.Y.0XR.I.T.qXU.7XsXfXG.1 C H n b 1 1 n G X.3..XoX&.b J e.v.t.v.y.u.m sXJ.8XR.wXwXqXR.T.T.3X9X3XT.Y.Y.T.Y.Y.Y.T.",
"qXR.9XY.T.9XY.Y.0XR.9XR.qXY.0XwXW.2XxXF.5 ! Q n , < 5 w f p 4 : k b.oXOXb m e.y.p.c.s.I rX2XU.U.R.T.T.T.9X9XT.9X9X9X0X9X9XT.Y.Y.R.",
"9X9XqXY.qX9XY.qX0XqXqXqXqXY.qX0XgXeX1XU B V N < 5 q - 0 r j h h % K 5.@X/.1 H r.c.g.u.s.3XrX7XiXW.Y.T.T.9X9X0XrX9X0X9X0XT.Y.T.T.T.",
"0X0X0XqXqX0XqXqXqX0XqX0X9X9X9X9X3X1XF.< W 5 2 . + s K ` s r r r K y 0 2.-X&.b H c.G.w.F.xXrXuXqXT.T.9XT.0X9X9X9X0X9X0X9XT.Y.W.T.T.",
"qXqX0XqX0XqX0X0XqX0X0X0X0X0XqX9XhXzX=X1 N 1 O +.*X&XBXBX:X).[ t : u k k 2.#X5 n /.c.C kXfX2XI.7XT.T.T.T.rX9X0XrXrX9X9X0X0XT.Y.Y.T.",
"qX0X0XqXqX0XqXqXqXqXqXqXqX0XqX9XpXvXkXS < ) $XAXDXCXCXnXBX#X~.@.a r u : ` XX{.< x.x.C kX5XrXxXP.T.Y.0XR.9X0XrX9X9XrX0X9X0XT.T.T.R.",
"qXqXqXqXqXqX0XtX0XqX0XqXwXyXtX8X2XM.2 < G l.^.|.*X#X#X X).7.`.|.l.X.> u k ` %XZ &.h.H C a.7XaXgX0XT.0XT.0X0XrXrXrX9X0X0XT.T.T.T.0X",
"qX9XqXqXqXqXR.R.R.qX0XR.tXyXtXpXM.+ e 5 t G ( ) O.6.b.b.7.`.~.~.^.^...r u u .Xz.-.n S.=X~ h.pXdXyXwXwXqX0X9X9X9X9XrX0X0X9XY.E.T.R.",
"eXeXtXtXqXT.R.E.W.E.E.uX7XeXpXlXE 7 q  .[ T p d ( X.~.l.^.`.~.XX~.~.!.h y t 2.}.F w z.Z.S.L D.vX2XtX8XU.E.Q.U.wXT.9X9X9X9XT.Y.Y.0X",
"aXeX3X9XqXE.W.W.iXW.qX7X7XdXzX<X8 =.jXC.b.b.{ z f F %.5.`.'.7.).~. X~.2.h 3 ' .X=.  A.Z.4.-.R lXzX2XhXqXQ.W.W.W.T.0XtX9X9X9XY.R.R.",
"9XyXsXwXJ.W.E.E.E.W.qXsXpXzX>Xe +XDX}.b.].]._.2.j d F %.7.'.7.b.`.'.7.`...i t 8..XR Z.Z.b.S.R h.lXdX8X8XqXU.Q.W.T.0X9X9X9XR.U.R.0X",
"yXeX9XJ.wXuXwXW.I.yX8XdXzX,X9 S.jXb.].C.C.[.k.%.} ( f ( 2.).!.).'.~.~.'.!.c r } &XoX4.l.Z.A.h.2 L <X4XdXtX0XJ.wXT.qX9X0X9X0X0XR.qX",
"2XtXuXwXW.Y.T.wXgX2XaXzX,XM +XjXZ.l.7.7.7.8.].3.+.X.d F { b.b.b.].).'.).`.{ h c $X#Xl.l.{.z.Z.A 9 8 D.4XfXJ.gXR.Y.I.9XqX9X9XtX0X0X",
"uX9XY.T.wXwX9XI.tXxX4XlXP D.+Xz.C.].].'.9..X).#.} +.F j T 2.C.b.).).C.).).1.^ ; '.|.k._.{.k.l.&.A ;.L N.4XpX9XuXR.Y.Y.qXtX9XtXtX0X",
"qXqXwXwXR.Y.9XsXdX<XcX! ;.oXl.l.4._.`.6..X7.%.#.} X.F d T *.b.b.C.C.k.].).`.:.s 3.'.~._._.k.l.+.w -.+XY N.zX7X7XqXR.R.0X0XeX9X0X9X",
"wXY.Y.iXuXwXyXhX4XvXM.L OX=.{._.}. X2.'.XX<.:.[ #.} z p T R b.A.}.C.[.].~.XX`.<.5.~.[.~.`._.^.l.4 | Z.D.P >XxX9XqX0XE.0X0X9X9X9X0X",
"wXwXwXY.U.Y.7XeXcXS.& ! } +.3.5.7.'.[.6.:.#.#.O.O.F d p T T *.1.1.4.6.1.b.6.).b.!.!.'.`.~.|.^.5./ ( =.+X~ N.dXaXI.qXR.R.R.9XeX9X0X",
"Y.0XwXqXiXwXyXdX,XM E  .} @...+.>.@.:.O.o.[ ....c p 4 4 v  .T K { {  .O.#.T o.#.O.#.>.:.>.5.,.:.c t { -.;.L 4XdX8XqXqXE.R.tXrXeXtX",
"9XwXE.T.qXwXeXpXlX2 E p c r :.:.' O.O.....:...h t p z p % 6 % % 6 & # X : : a a y l c c ( [ X.:...j z $.g E lX2XtXqXE.E.T.wXtX0X9X",
"sXwXR.Y.R.qX8XpX4X@ q d h k h / @.[ ..O.o./ s s : . ; p  .2.6.b.8.8.4.1.2.*.@.[ { [ x l j ; * r r > : s e E cX4XeXqXR.U.Y.9X0XeX0X",
"rXyX0XT.R.uXgXzXD.8 g   #   r ` ( O.#.K s i r X - ( ~.[..X).b.6.4.'.).).`.].'..X X].b.]. Xk.7.7.>.^ / h o e lXxXaXwXE.R.R.9X9XtXtX",
"rXrXwXwXwXwX8XpX,X. & + O.h : : c a a l y o > h #.7.~.2.2.].o.s @.[.<.c O.(.8.#.1.].).8.6.8.'._.XX~.*X`. .q h.4XaX8XR.R.R.T.9X9X0X",
"rXyXyXqXY.9X7XpX,X+ & [ '  Xo 6 g a ; % > h { :...5.5.d { .XK o <. X[ : #..X*.o c b.7.T d *.'.<.c (.!.~.}.~ & <XpX8XR.W.T.T.9X9X9X",
"eXfXtX0XI.qXtXzX+X& 8 #.l  Xo.> i = = a { ..#.<.j X.^.r '  Xl = 8.XXh X *.'.'   K '.8.6 # =. Xx X #. Xx =.C.L P dXtX0XwXiXwXwXtX0X",
"aXaXqXiXhX8XhXH.M 8 =.O.^ !.0.r X : k @.2.l l 6.i O.8.: #.C.a 6 <. X' o 9.`.' % [  X9.0 = =.XXv   #XmXu #.].! + D.dXtXK.uX8XqXtXtX",
"tXaXtX7XU.7XdXD.7 E ].0.u !.XX> h [ o.:.` l '  Xc XX#X  b.*Xv 0 7.XXc o 7.).c   ^ ).6.= X ].%X{ % jX:X6 XX'.4.E P pXpXxXU.8XsX9XwX",
"7X8XtXtXtXxXpXa.L K !.0.^ !.!.> :.o.:.o.O.s [ '.% XX#X= %XmXh i #X*Xl > ].).a = *.`.1.X s mXNXv 7 BX:X: @XbX[ &.+ ,XpX2XgXI.yXtXtX",
"8XiXtX7XsXdX5Xh.E g !...) XX,.o ..c ^ l [ : s ' = <.^ o #XBXa h SXBXx s %X#Xs o 1.&X(.X a BXNXs % CX#X  bXMXX >.e E cX7XyXwXL.qXqX",
"R.uXiX7X2XzXkX+X+ %.|.:.( |.>.> > a y s ; k i a X ' ; ; [ @.= T mX%Xs c AXBXk o .XDX.XX l BXBX0 K CX#X; BX*X* f &.8 =XzXtXwXR.R.qX",
"iXU.qXhXzX5XkXW @ 2 ) +.F |.4 * ; l a a 6 a 6 ; i a = i l s = - O.<.X s &X#Xa > #XDX6.o O.NXmXX K SXb.o NX@Xr 3.$.8 ~ 4XsX9XQ.E.0X",
"U.tX7XtX1X2XV ! ~ @ N R | k.O - .   = = l i k c y s i y i : 0 i i c # i o.' = : O.].'   ' *X'.= K :X=.l @X!.o j 5 2 >XfX2XtXR.W.0X",
"I.uXuXsXP.9 F.=Xa., e B ! A 2 @ 0 0 6 %   % i h y v a s a a = 0 i i : s s s 3 y ' [ l % i [ ^ o v *.6 6 :.r ( 4 @ N.lXeXsXY.uXR.wX",
"8XxXuXK.P V.9Xd.U U @ 2 8 < W @ & F 0 0 0 %     h h r y s l 3 3 a y : = s a ;   l a ; = a { x = i { l # g q e & ~ lXhXpXyX0XiXI.9X",
"dXdXH.m.m.iXV.V.P.n.U U 9 a.=XB O & f f 3 l s X   o X r i s i i a a s s s s s ; i s s ; r a s ; s y s 0 q 8 & L 4XxX2XtXhX3X9XuXwX",
"dX4XD.P F.I P.L.n.n.H.n.I F.N.B + R D * D ; i s o o X X X = 0 p d s s a a s i i a a a s i s s i r / a q e + ~ pXhXhXI.wXuX7XeXtXtX",
"<XU o M 9 m.rXV.P.H.V.I H.aX~ L 2 @ D -.3 h p i r X > > #   # o ; : ; i a a h c s s s s s a h s h s 6 e & M.2XaXJ.uXuXwX9X9XgX7XtX",
",XD.B.M s.cXF.H.K.V.I V.xX>XF.h.O f , ) | f t p h X o X = X # X         o X # X : ; i ; r s s i h r X g D.<XcXaXtXR.R.wXqX7XuXtXwX",
"lXM.P N.vX6XzXkXF.M 2 2XfX,X>XV < Z N @ | f t ( c : o   o . = # = ; ; = X o o o           o     o o   A.ZX4XxX8XgX0XR.wXqXqXtXqXtX",
"E 8 kXZXZXvX;X! M , N.cXlX,X~ 2 , N Z f Z D j c ^ ^ a ; = #     o o X = = = = : : # X = = % X X   + & . ,XlXpXgX9XtXuXwX8XwXqXiXwX",
"<XM.@ B n S 1 1 1 P ZXjXS.M + $.w , G p 4 ) f p <.!.2.T 0 a 3 ; =     o : = X o X = ; y X     ; 6 & q 8 <XzXxX7XyX0XtXqXiXwXI.wXqX",
"kX=X1 b H N Z Z @ | &.    q K E | $ 4 Z * X.d 4 } l.[.`.>.` a i s a ; X o . o % %         X 3 : ;  .+XL 4X2XhXU.wXyXyXyXyXtXwX0XwX",
";X1 n f.S H , 5 Z G >.oX X].K u F ) * t * F F 4 D 3.8.[.[.].1.O.d p 0 0 0 % o o + = % a : t d 2.#XCX+XL zXhX8XiXwXwXrXyXyXwXqXqXyX",
"b H f.i.n < 5 R l.oXMXNXSXSXCX:XF t ,.* * O +.f D } ] @.5.'.|.[.7.<.D a i i s g 6 0 a 0 x 8.jXNXNXSXA.~ 2X8XR.U.wXwXyXrXyXqXtXqXyX",
"m g.f.H 5 < ] C.~.%XNXVXNXSXBXNXAXf j l.* O * %. .=.} | ] +.2.8.`.[.C.2. .x i ; x l  .}.MXSXVX$XmXBX8 D.xXuXiXiXwXwXyXyXyXtXtXwXwX",
"g.c.H 1 , &.b.6.(.nXNXBXMXMXMXAXmX3.t %.2.p . . f ] } %.$.} T ] %.5._.|.}._.8.8.#XmXDXSXSXk.}.-XCX$X8 lXdX8X8XU.wXwXtXyXyXyXqXqXtX",
"x.g.b , Z F 0.(.(.*XDXAXVXVXDXMXoX'.q z 3.T 0 -   # * z ] X.+.%.F j D %.7.~.[.$XVXCXjXl.F +XSXMX=.& +XcXpXaXuXQ.E.wXyXyXyXtXtXwXqX",
"g.J 1 n f T *. X(.(.*XmX%XMX-XoXC. .i = =.=.: o # #   # 4 d ( +.2.X.z p p j { 1.~.} i 5.NX-X| 4 T g ZXvXxXhXP.Q.E.wXyXyXuXqXtXqXyX",
"J n 1 5 4 D o.0.(.(.`.'.|.|.l.l.<.K v   1.7.l y : ; o # .   O - t } ,.%.] j - . . +.-X%XX.q R 2.$XZ.h.cXpX8XQ.Q.E.wXyXtXtXtXtXqXyX",
"H 1 O N u % ` *.0.0.9.' #.=.#. .g 6 6 6 { (.0.o.k s r > X # - $ O $ 4 F X.,.{ 8.%X%X3.O 4 4.Z.`.jXBX& lXdXtXR.Q.E.wXyXyXuXyXtXtXwX",
"b , , @ 6 u k ` o.u 3 d d a 6 o   g o   K (.XX!.9.:.O.( h ; - . . # & # - p X..X2.t . } %.l.z.-X$X$XE N.dXtXuXU.iXwXyXyXtXyXtXiXyX",
"G 5 4 o 6 6 % : r : %.l. . .*. . .K T a 6 l % h h k h a { ( z g d 4   . * X . o = d ..%.4.{.oX-X$X4.;.~ xX8XiXR.E.wXyXyXuXtXwXwXyX",
"Z O @ + =   % : > ^ l.,.=.E  .E  .R  .=. .<.*.O.' h ' d - 4 F 4 $ # $ # . - p c ( >.5.~.{.`.}.MX-X) e 9 zXaX8XuXwXwXyXtXtXtX8XiXqX",
"Z , 5 4 6 % K K 4 X.f.z.A.;.w 2 e A A Z  .l.5.4.!.5.2.%.%. .| R | | A 0 . z } O.5.`..X|.k.l.}.oXl.G w 8 4XhX8XqXqXuXyXtXtXtXwXwXwX",
"n , , f *.b..X[ O | ,.h.W h.Q Y W 9 &.A Z R R {.[.l.$. .$.R A $. .=.4.4.D x +.~.`.XXbX%X_.5.$X^.F p w 9 4X8XtXiXqXqXyXtXuXqXqXqXwX",
"J 1 , d 2.b.*.  O $.z.f.S f.Q V B H h.&.5 5 | -.%.| z.}.A w A Y q g R =.+.0 <.'.~..X#XmX`.$X@X5.) 4 O 2 lXaXhXuXwXtXtXaXtXiXiXqXyX",
"J b , O % %   p z | f.H Q Q S S B V h.B N N 2 A z.OXh.;.S Y A ;.R ! g g %.l  X!.!..X|.-X#X|.:.F r 4 < M zXgX8XtXtXuXuXtXuXtXqXiXqX",
"J n J $ o > #.9.p D x.S S S &.! B S h.W B H $.f h.L Q ;.V B W Q S h.A w ] F )..X#X#X1.X.>.] ] t $ $ @ h.hXaXsXtXaXaXyXyXtXwXwXuXwX"
};
