/* XPM */
static char *f6d73479e1a14666fa5479ae7388652faeM7vZoEpVei0uiC[] = {
/* columns rows colors chars-per-pixel */
"65 65 256 2 ",
"   c #020302",
".  c #0C0201",
"X  c #020B02",
"o  c #02040B",
"O  c #020A0B",
"+  c #0C0909",
"@  c #120401",
"#  c #1B0401",
"$  c #160A07",
"%  c #011A0C",
"&  c #071508",
"*  c #171609",
"=  c #020C13",
"-  c #0A0C13",
";  c #040819",
":  c #160D14",
">  c #03141B",
",  c #0B161D",
"<  c #041A1D",
"1  c #091516",
"2  c #161818",
"3  c #250905",
"4  c #26160B",
"5  c #37160C",
"6  c #281817",
"7  c #3B1C1B",
"8  c #361816",
"9  c #300B0B",
"0  c #02270C",
"q  c #15220C",
"w  c #062914",
"e  c #172718",
"r  c #073519",
"t  c #15361C",
"y  c #08320C",
"u  c #272618",
"i  c #37251A",
"p  c #26361C",
"a  c #322E17",
"s  c #060E24",
"d  c #0B1B23",
"f  c #071725",
"g  c #141C23",
"h  c #1B1B22",
"j  c #141829",
"k  c #0D1B34",
"l  c #251C23",
"z  c #371D22",
"x  c #0B2425",
"c  c #182726",
"v  c #0B3823",
"b  c #193A25",
"n  c #182735",
"m  c #102F36",
"M  c #272727",
"N  c #392725",
"B  c #283628",
"V  c #373527",
"C  c #272B35",
"Z  c #283737",
"A  c #383A37",
"S  c #382C30",
"D  c #471A18",
"F  c #561A1A",
"G  c #42130D",
"H  c #44241D",
"J  c #55251E",
"K  c #431D23",
"L  c #432423",
"P  c #482A28",
"I  c #572927",
"U  c #47362A",
"Y  c #57342D",
"T  c #5A2E32",
"R  c #4A3736",
"E  c #5C3433",
"W  c #573A36",
"Q  c #4B2D32",
"!  c #662A26",
"~  c #68332D",
"^  c #673835",
"/  c #753937",
"(  c #732C2D",
")  c #651D1B",
"_  c #07411E",
"`  c #0A4726",
"'  c #15472A",
"]  c #08542A",
"[  c #194833",
"{  c #0A5A34",
"}  c #175736",
"|  c #114A36",
" . c #26472B",
".. c #284836",
"X. c #374636",
"o. c #29583A",
"O. c #385539",
"+. c #314B2A",
"@. c #0A6636",
"#. c #166639",
"$. c #0E7639",
"%. c #27643B",
"&. c #2B401F",
"*. c #474638",
"=. c #584639",
"-. c #4E5137",
";. c #65453B",
":. c #77433D",
">. c #60563B",
",. c #52673E",
"<. c #182D48",
"1. c #363D44",
"2. c #2A394C",
"3. c #1F3258",
"4. c #673F41",
"5. c #095C46",
"6. c #165344",
"7. c #284749",
"8. c #394748",
"9. c #295946",
"0. c #395647",
"q. c #394B58",
"w. c #3A5759",
"e. c #2C5257",
"r. c #176946",
"t. c #187647",
"y. c #186B54",
"u. c #1A7556",
"i. c #0C6A46",
"p. c #256745",
"a. c #396649",
"s. c #247648",
"d. c #34764B",
"f. c #2A6B59",
"g. c #396656",
"h. c #287757",
"j. c #387857",
"k. c #324F65",
"l. c #287A64",
"z. c #377967",
"x. c #346A65",
"c. c #135E62",
"v. c #474949",
"b. c #584946",
"n. c #465647",
"m. c #575747",
"M. c #474C54",
"N. c #495656",
"B. c #565859",
"V. c #544F52",
"C. c #684844",
"Z. c #7A4946",
"A. c #66584A",
"S. c #675C59",
"D. c #7A5B4F",
"F. c #476746",
"G. c #466957",
"H. c #596757",
"J. c #487657",
"K. c #556E4F",
"L. c #696857",
"P. c #707054",
"I. c #475763",
"U. c #565D64",
"Y. c #4D5971",
"T. c #466867",
"R. c #586769",
"E. c #4B7765",
"W. c #567A6A",
"Q. c #596B76",
"!. c #597676",
"~. c #4B6E74",
"^. c #666768",
"/. c #687A69",
"(. c #787468",
"). c #676D74",
"_. c #6A7776",
"`. c #757879",
"'. c #766967",
"]. c #85393A",
"[. c #884746",
"{. c #91504F",
"}. c #887570",
"|. c #A3776B",
" X c #8C3F3F",
".X c #1C8451",
"XX c #378558",
"oX c #2D8B57",
"OX c #3A8768",
"+X c #358E6D",
"@X c #288C65",
"#X c #48865C",
"$X c #478668",
"%X c #598678",
"&X c #499877",
"*X c #539879",
"=X c #4E8D6C",
"-X c #688769",
";X c #688A77",
":X c #748679",
">X c #729371",
",X c #4EA579",
"<X c #6EA57D",
"1X c #718A56",
"2X c #8B8857",
"3X c #858568",
"4X c #878376",
"5X c #8F9571",
"6X c #A0A174",
"7X c #5C7684",
"8X c #717B85",
"9X c #3A6085",
"0X c #579386",
"qX c #698789",
"wX c #798A89",
"eX c #769589",
"rX c #779998",
"tX c #6F8F91",
"yX c #56AA8B",
"uX c #68A785",
"iX c #70B094",
"pX c #7694A2",
"aX c #74B7A4",
"sX c #70C49A",
"dX c #78CFA9",
"fX c #898789",
"gX c #869788",
"hX c #899796",
"jX c #989799",
"kX c #928E8E",
"lX c #A39A8A",
"zX c #A59B97",
"xX c #B09C84",
"cX c #88A79B",
"vX c #8FAB92",
"bX c #AFAA92",
"nX c #8D9AA6",
"mX c #86A6A7",
"MX c #94ABA8",
"NX c #94B3AF",
"BX c #B8B5B6",
"VX c #AEB0AC",
"CX c #C8B296",
"ZX c #C5B9AB",
"AX c #E2BBA4",
"SX c #94CCAE",
"DX c #ADCDB5",
"FX c #9BD5AE",
"GX c #D6C9B1",
"HX c #E9D1B2",
"JX c #B1B9C6",
"KX c #B2CDC8",
"LX c #A2E9C6",
"PX c #CAC9CE",
"IX c #F5E8CC",
"UX c #D5E9D5",
/* pixels */
"F.5X5XvXd.#.t.t.r.%.b B R 6 - = O g + M S 8 Q 3 X 0 y X 6 a b y O. .V i * B a.j.j.p.=XoX=X,X{ r.b q P Y L #   M 1.1.c h l j ; f j ",
"F.<XvX<Xs.t.t.t.t.s...B R l - , - h - : M u 4 @ & & t & 4 N X v '  .V V * 2 G.s.] j.iX#.} j.s.| w 1 P I 7 $   2 o B.U.  l j j n s ",
"%.#X<Xd.#.t.#.t.t.#.0.A Q z + ; - : M - * 1   e ' 0 t e 4 * % ..a.F.a i N   n.%.` %.uXJ.` g.o.0 0 & H H 7 3 + j : M.M.  C l n f j ",
"%.#.%.] r.t.#.t.u.t.a.V W z + - + - A c % % X b ..' b u N * 0.J.o.gX3X@ L * X ' } ` G.[ y o.% w w & 7 D K 9 : l ; v.M.o l j j j s ",
"$.$.%.#.$._ } h.t.r.a.B R S : s   Z 0.v w r & w t  .t M V u =Xj.#.>X4X3 8 i B w _ ] F.;XH.X b e < & 8 Y Y 8 $ l ; fXkXo C h j j j ",
"s.s.#.] @.] #.r.@.r.j.X.R S - o   0.9.w ' ` t o.t  .e u * X.E.h.XX' L.i # V H.` ' ` -X5XH.e B Z b e 4 E W 8 + 2 M.JXVXS N C C s j ",
"$.$.%.] _ ] #.#.@.h.E.X.A S - o X ..[ v | ` } a.[ B q B 2 -.$XOX@.#XF.P i u  .[ %.o.u     2 2 ..Z M 4 W 4.z . j V.nXkXV.: l j j s ",
"@.@.#._ _ #.#.{ @.XXa.B * 2 - = & x ' ' ' } o.y o. .q B u B G.d.%.d.n.U P q 0 d.a.X X 6 4 . X   b e 6 ^ C.z o + M.kX8XS : l s s s ",
"@.#.} r r 9.#.s.j.[ X & * . -   X w b [ | } ` ` r y & u . . X 0 %.d.+.V P 4 r d.O.a {.D.4.6 2   % M 4 W 4.z o : ; 1.l + 2 l s ; j ",
"$.@.} ` v r.@.t.d.X q u u *.S l   Z [ v ' ` _ ` ` t X 4 4 4 .   X  .-.N Y 6 r p.X.A.5X{.[.4.z   & e @ Y ^ z . , : o o : l j j j j ",
"t.{ ] v ` { { t.o.X 4 P C.b.Q z : G.o.v [ ' } o. .0 4 C.D.b.8 *   B H.N T 8 r o.b.( {. X/ ! 5 + X q @ P ^ z . - j ; : l : ; j j j ",
"$.{ ] ] | } t.OXJ.. H =.4.E T z c w.[ v [ [ ` ' t   I }.|.C.7 4   & V 4 E D y +.Y ) ].]./ ~ H $ % e . L ^ 7   = ; ; l l ; s j s ; ",
"] ` ` _ ] r.t.oXO.. I ^ T I I 6 & x v v [ ` y y & 4 / {.Z.^ P 4 .   $ 4 T P 0 p D.{. X( {.[.D $ 1 e . H ^ 8 + ; j h : : j ; ; s s ",
"] ] ] _ 9.s..Xh. .a I I D D D 6 - w b | ' ` _ _ X ;.( / :.I H 4 .   X : I I * p U :.:.( ~ ~ 5 8 e * $ i E 8 o = ; s ; o , ; s k j ",
"' ` _ r } p.t.#._ * I / T Z.T z l C Z | | { { ' u D.{.{.[./ I 3   X X * K L e p 5 D.6X{.G 5 4 * q q $ H ^ 9   o ; j j : s s s k k ",
" .` r y ` ] @.@.-XP.3 ^ ! I Q l 2 1.b [ } | ] 0 X 7  X].F {.~ # * e 2 u Q 7 * q a *.].) =.5 3 4 q q * P ^ 7 + - c g l C 2.2.2.2.q.",
"t ' r w ] p.r.] vXvX@ 5 ! Z.P +   < ......b 0.NXVX-.}.|.F D 9 # u % X V Q 7 N 4 e B *.Y 8 3 * u X.u 6 ^ ~ ~ 6 X M n C C C C 1.2.I.",
"r t r 0 ' } %.} uX;XX 7 F }.A.  e b c w M B 5XUXDXX.Y ^ I K # u t b + 8 W T D L  .o.i # 9 8   -.vX-.H :.! ( P u c c k C <.2.2.M.k.",
"J.9.w w y ` ' } p.9.$ L 7 3 : eXcXE.N.n.X X.SXUX;X+.^ J 9 4 . b r w $ R T / G Y vX=X4 D i i p 1XVX*.G ) ].( E 3 2 c g n n n 2.2.q.",
"G.o.w w ` $XuXiXs.} & 9 3 6 e eXSX!.gXhX  A >XSX>X*.5 D 3 u 1 O.a.0 R ^ I D 9 P.FX-XU H 5 @ #XvXDXP.^ [. X( / H : , x k s > m 2.q.",
"% % c e a.SXUXFXh.#.@ 7 $ 2 9.mXDX;X}.4XX b _ ` =XF.3 H 4 * &.SXMX-.=.:.! I 3 bXDXO.}.9 J * <XFXDX1X4 /  X{.! I : g x d > < m 7.w.",
"b Z 6 M x SXUXDX+X} u 8   O.g.SXKXeX'.b.  J.iXd.XXF.5 G H +.vXUXVXU J [.~ >.4 gXFXJ.3XH U ,.sX#X#XJ.a ;. X{.( Y 8 h d d > f m e.w.",
"N.8.6 Q   MXUXUXaX' i R * ;Xp.j.z.a.kXD.X J.FX=X,XK.E ~ U P.LXGXD.3 J / :.H p #XoX#X>X*.q 1XsX$.@.j.+.H  X{.].G l h d < > < b 7.G.",
"& X 8 R + ;XDXrX<X$X@ i Z -Xo.{ } o.bXlXX &.%.$.=X-.;.{.>.-.#X>XU ( ) ].:.Y &.1XoXoX#X+.$.<XoXoX$.oX .a :. X:.I 4 2 d d = < n M.R.",
"    7 N u O.[ ] uXXX+.a p F._ o.9. .4XD.X +.s.s.#XK.Y :.;.*.p  .=.( ) ].].J H <Xs.$.,X$.d.<X#X$.$.oXy a ;./ / T z 2 g f 1 = g N.).",
"@ . 8 8 6 t >XSX=X_ m.L.*.V -. .O.O.bXD.X O.} %.=X+.-.J ;.4 &.-.=.( F ]. X( 5 &.] $.,X$.oX#XXX%.oX%.y a ~ / :.T z l h , > = g N._.",
". . 9 8 u X a.-Xy q u H ;.Y H Y >.X }.A.q 1X%.#.#X>X*.H ;.3 u a J ( (  X X~ 5 a +.] +XoXoX,X,X$.F.F.q G J ! / I z 6 j s , > c M.Q.",
"@ . 3 7 i 4 0 e *.a a =.H i 4 U q -.CX}.& K.=Xd.<XSXP.3X>.5 4 @ J J ! [.[.:.J U &.t #XXXoX<XsX,.F.m.U ;.( / / ^ z 6 j , , , c M.).",
". . # L K N u V i U X -X>Xw J.%.X xXIXbX*.F.<X-XJ.K.H.L.V i * 3 I J F / D.:.:.~ ;.;.=.>.A.>.C.^ ;.A.Z.Z.:./ :.T z l h , , < x 8.R.",
"  . $ P T 7 R R H 3 m.>Xa.<X#Xr 5XHXGXGX5X1XGXDX#X<X<XK.V i 6 9 ~ ! J J ! J ! ;./ ^ E =.W ^ ^ / ^ ^ / ^ ~ ~ ^ Y z l g < < < c 8.R.",
".   : z R 6 P W Y # A.4XX.-XX.L.GXHXHXHX>XF.5X>X#X#Xd.F.p 4 i 3 ! ~ G G G 5 G a H i p u * u N 9 5 G I G G 5 9 6 6 h , < > < c q.R.",
"    6 7 z 6 # P D K # A L.*.m.bXGXAXAXCXP.F.L.K.} #.%.% e u 6 3 G H G D F 3 3 4 q p p t t e * z G I D.:.~ 5 # # c h < > > > < 8.B.",
"e /.v.$ z # # 3 z 9 4 m.. 5XIXHXHXHXHXCXK.X (.-Xr OX} 0 r 2 i 9 3 # # D I D 9 3 * w w v ` t B u J :.{.{.^ P z @ l n x f = 1 8.X.w.",
"qXW.u . 6 8 z z z 8 : U U xXIXHXHXAXHXHXP.V VXH.9.E.[ r r 0 * $ @ @ # L ( I D 6 1 0 w 0 0 y q u I ~ {.{.^ I K : : c c < 1 c H.N.2.",
"G.b c 2 6 l 6 z $ $ . @ 4 >.2X2X2X2X6X2XP.1X,.L.:XJ.t 0 0 w u u * . @ i ^ ~ N 6 b r r w r ' p V Y ! :.Z.^ I z l o , g d x > N.A Z ",
"v b % & 2 : 6 @ $ + @ q $ -.2XP.2X2X1X2X,.,.P.>.H.n.N.n...n.B   * . . 7 E ;.N e t v v r v ..B a ! ! ~ ;.I K 7 6 + ; = = , = H.M.n ",
"e.=XW.c & 2   : -   X u $ >.6X|.2X2X6X2X1X1X,.,.-.m.L.(.:XG.M A . @ @ 8 E C.V u 0 ' ` v t r u 4 ! ! ~ J J J 7 6   - < f x O v.Z x ",
"$XqXeX8.X &   X : O X * * -.6X5X6X6X6X2X5X5X1X>.-.i $ @ V R.N.e @ # # i E ;.V u t ' b v r t V 3 J J ) J F H H 6 M 1 = > , % R.wX8.",
"cXNXcXvXn.X 2 e c & & & & V 5XxX6XCX6X6X>X>X2X>.=.# i i . 6 v.. 6 8 8 7 J ^ V V B t t w w B V # G J J J D H 7 6 A - = x d o Z T.Z ",
"8.O e _.wXN.X 2 Z &   * . a 5XbXbX6XFX6X5X5XP.A.5 =.P 9 6 . @ l N L L D D ^ U R Z w t w w  .V @ G J ~ J J D 5 8 S : < d d w c , x ",
"o 2 o   C ^.X.  M 2   * X u }.6X6XDXZX'.L.}.P.}.8 W Y 5 # 8 L Q L P L K F ^ K V.^.e B ..w ..* 6 5 D J I D D L 6 l - 1 < d = c 7.A ",
"M l z l . M A O Z g 2   & u P.ZXUXCX}.D.lXVXP.m.i U 8 8 5 K T Q L 3 8 I / ^ ^ 3 S.m.B H.e B u * # 5 H J D D K 6 : - , , d d c q.8.",
"z 6 : : . 2 v.  l h o : u   (.UX3X}.VXVXzXfXL.* z 7 3 8 T T T P 7 b.b.P T I Y R * H.8.% t ..B X 4 8 7 5 i L N 6 6 - 1 f d < x 8.8.",
": z $ + . 2 M o o U.A o     lXkX=.kXPXZXzX'.n.e 6 8 7 Q T I K b.4Xm.m.R P =.U *.c 0.0.R.0.% B $ $ 6 N L z H z z h 2 > > > f > 1.8.",
"+ l +   o 2 2 h o ).jX8XS.1.S.'.S.kXVXVXzX^.B Z . @ Q b.W W m.gX/.w./.H.-.*.n.W.X.g.eX;X!.X B B X . 4 z L Q z z o - g , = x f C 8.",
": . .   2 2 2 h o ).VXfX8Xv.B fX'.lXVXjXBXN.w t - 9 R 4.4.M -.%XG.=X%XJ.O./.eXd.p.0X0Xg.9.o.1 v.V.M u 6 # : # $ S + = > f d > n 1.",
": o - & 1   g c o `.kXfX).6 - `.VXlXgX(._.....< + 6 8 N S X F.J.iX*Xp.=XuXJ.} &XyXOXz.%X%Xb c e M.1.^.S.R 4.S.}.b.o = , j > = c 1.",
"2 ,   O X   c C ; 8XnX8XM.  . V.ZXlXX.m...b v % - z 6 z i   iXSXOX0XsX&XuX&X&XiXyXh.h.z.E.f.b     o S.jXzXzXzXjXh   g d ; > f c Z ",
"c c - 2 - O 2 C 2 wXhXU.c M Z S zXbXb.v.X.Z r O 2 l 6 6 $ O.SXsX.XsXLXyX.XdXdX@X+XdXyXXXp.9.w % c c v.:XkXjXjXfXo - O = , d d d k ",
"c M 2 : - + Z M.M.8.v.C - M A V }.ZXL.v.M.b % % = ; h M   O.#X$XXX,XyX,X+XdXsX@XsXdXsXXX9.9.% q M Z g `.hXhXMX).o M - C g o = , n ",
"c 2 & 2 M M S A Z . g 2 1 2 2 o m.zX(.  0.% x = n j n M X G.0XyXz.iXaXOX.XyX&X.X.X,X+XOXg...C c C c , _.hXjXhX^.o o 8.).U.^.C M 8.",
"X X   - A v.v.V.B.+ C 8.C n C h + BXZXkXc x > f d k f g O 9.%Xz.f.iXaXOX+XsXyX.X,X@X0Xz.v Z C Z Z B O ^.nXhXjXM.  1.).`.8X`.U.U.N.",
"2 M M M V B u A S.. : v.e d 2.O X.VXVXkXm f k s f s s f ; e.z.y.{ u.l.h.u.yX0Xy.+X+XyXc.6.e.k x Z Z c N.hXhXnXI.1.).fX`.B.V.V.B.'.",
"1.8.N.v.8.A M A kXB.S U.C o x > A 3X}.m.Z k k k k k k k ; x.l.l.l.u.l.l.5.c.y.5.u.@Xc.c.x.e.x x o w Q.wXNXnXwXQ.Y.v.7XR.: v.^.'.V.",
"U.U.M.2.Z Z M B `.zXjXjXU.; ; > * (.(.b.x k k <.k <.<.<.f k.l.l.u.u.u.l.u.@Xu.c.@X@Xu.+X0Xc.f m w.`.tXnXpXI.!.k.Z Q.).`.8.R V.V.V.",
"Y.k.I.q.N.N.8.*.'.VXVXVXfXM.R.U.* GXGXlXc Z <.k s s ; s s k l.y.} u.y.y.u..Xu.@Xc.+Xc.l.f.| qXqXrX7X~.!.tX8X~.q.I.Q.Y.1.U.8XkXfXfX",
"3.3.3.k Q.wX_.B.jXzXfX}.B.- U.A }.IXIXHXfXC 8X8X7X).7XI.I.7.f.i.y.h.s.{ { h.y.i.u..Xy.f.f.qXrXrXtXT.k.x.qXpXpXtXk.x ; I.M.1.`.kXVX",
"k <.3.<.7XNXMXmXwXX.  B._.).1.  jXCX6XxX(.h M.I.U.Y.Q.Q.Q.~.z.f.iX*X] XXOX5.r.@.r.i.y.y.z.0XtXeXqXw.~.T.~.mXmX0Xw.~.Q.qXrX1.o Y.).",
"k.3.<.3.NXJXNXKXcXhXeX_.fXjXA B.ZXGXCXxXfXA , d U.wXtXqXrXqXdXl.+X,Xt.OXiXOX} yXyXy.c.l.9.6.qX0XtXe.x.w.x.pXmXrXmXmXpXQ.8XnXQ.I.q.",
"3.<.k.pXJXNXrX!.!.G.;XcXwX^.. VXIXHXAXZXZX:XC O 8XJXNXBXMXtXFXyX$.yXsXt.,XdXs.&XdXsXy.+XOXf.%XtXtX~.g.e.W.rXmXNXmXNXtXT.Y.tXnXpXe.",
"3.7XpXJXNX~.e.9.f.6.cXLXwX  2 lXzXbXbXzXkXR.b c R.mXKXqXT.E.*X0Xl.iXaXl.$XdXyX@XdXLX&X+Xf.0XiXtX%XW.E.T.;XeXcXcXcXMX!.T.~.7XpXpXpX",
"8XPXPXJXVXT.[ g.h.h.j.0XW.wX`.'.L.A.R Q A B Z ..m qXiX7.[ W.aXaX+XOX&Xz.0XyXyX@X&XyXyX@X% %XrXqX%Xx.E.;X;X>XvXgXvXvXvX_.!.qXpXmXqX",
"PXJXJXPXPXNXmXj.r.h.u.} %XBXBXBX'.kXkXfXB.e Z x | !.w.9.9.j.0XyXz.yXaX0X0XaX&Xz.c.z.f.f.| rXrXtX;Xg.G.;X-X-X5XgXvXhXeXqXpXpX7XpXk.",
"JXKXPXJXDXKXLX&Xr.y.r.f.%XwXjXzX).jXnXVXR.O b < m <.[ m x.x.5.y.c.z.z.f.0XiX0X~.0XiXx.x.6.0XMXqX!.W.J.G./.-XK.>XvXgXwXtXNXpXtXqX9X",
"NXJXJXVXMXrX$X6.i.OXuXqXW.MXfX)._.^.^.8XI.f 2.1   w.W.;XiX%Xy.@Xy.5.5.5.5.5.y.c.OXl.5.6.6.0XtXT.T.T.T.J.J.K.#XvXVXMXeX:X;X>XE.T.3."
};
